<svg xmlns="http://www.w3.org/2000/svg" viewBox="0 0 313.45026 494.98267" height="494.98267" width="313.45026" xml:space="preserve" version="1.1"><style>
.c0{font-variant:normal;font-weight:300;font-size:41.66667175px;font-family:Calibri;-inkscape-font-specification:Calibri-Light;writing-mode:lr-tb;fill:#000000;fill-opacity:1;fill-rule:nonzero;stroke:none}
.c1{font-variant:normal;font-weight:300;font-size:37.5px;font-family:Calibri;-inkscape-font-specification:Calibri-Light;writing-mode:lr-tb;fill:#000000;fill-opacity:1;fill-rule:nonzero;stroke:none}
.c2{font-variant:normal;font-weight:normal;font-size:16.66666985px;font-family:HelveticaNeue;-inkscape-font-specification:HelveticaNeue;writing-mode:lr-tb;fill:#ffffff;fill-opacity:1;fill-rule:nonzero;stroke:none}
.c3{font-variant:normal;font-weight:normal;font-size:25px;font-family:HelveticaNeue;-inkscape-font-specification:HelveticaNeue;writing-mode:lr-tb;fill:#000000;fill-opacity:1;fill-rule:nonzero;stroke:none}
.c4{fill:none;stroke:#70ad47;stroke-width:12700;stroke-linecap:butt;stroke-linejoin:miter;stroke-miterlimit:8;stroke-dasharray:none;stroke-opacity:1}
.c5{font-variant:normal;font-weight:normal;font-size:25px;font-family:HelveticaNeue;-inkscape-font-specification:HelveticaNeue;writing-mode:lr-tb;fill:#ffffff;fill-opacity:1;fill-rule:nonzero;stroke:none}
.c6{font-variant:normal;font-weight:normal;font-size:20.83333969px;font-family:HelveticaNeue;-inkscape-font-specification:HelveticaNeue;writing-mode:lr-tb;fill:#ffffff;fill-opacity:1;fill-rule:nonzero;stroke:none}
.c7{font-variant:normal;font-weight:normal;font-size:25px;font-family:HelveticaNeue;-inkscape-font-specification:HelveticaNeue;writing-mode:lr-tb;fill:#52c29e;fill-opacity:1;fill-rule:nonzero;stroke:none}
.c8{font-variant:normal;font-weight:normal;font-size:25px;font-family:HelveticaNeue;-inkscape-font-specification:HelveticaNeue;writing-mode:lr-tb;fill:#00a19c;fill-opacity:1;fill-rule:nonzero;stroke:none}
.c9{font-variant:normal;font-weight:normal;font-size:25px;font-family:HelveticaNeue;-inkscape-font-specification:HelveticaNeue;writing-mode:lr-tb;fill:#f557f0;fill-opacity:1;fill-rule:nonzero;stroke:none}
.c10{font-variant:normal;font-weight:normal;font-size:25px;font-family:HelveticaNeue;-inkscape-font-specification:HelveticaNeue;writing-mode:lr-tb;fill:#929000;fill-opacity:1;fill-rule:nonzero;stroke:none}
.c11{font-variant:normal;font-weight:normal;font-size:25px;font-family:HelveticaNeue;-inkscape-font-specification:HelveticaNeue;writing-mode:lr-tb;fill:#cd202c;fill-opacity:1;fill-rule:nonzero;stroke:none}
.c12{font-variant:normal;font-weight:normal;font-size:25px;font-family:HelveticaNeue;-inkscape-font-specification:HelveticaNeue;writing-mode:lr-tb;fill:#9b21ff;fill-opacity:1;fill-rule:nonzero;stroke:none}
.c13{fill:none;stroke:#ffffff;stroke-width:12700;stroke-linecap:butt;stroke-linejoin:miter;stroke-miterlimit:8;stroke-dasharray:none;stroke-opacity:1}
</style><defs><clipPath id="clipPath14" clipPathUnits="userSpaceOnUse"><path d="M 0,0 H 792 V 612 H 0 Z" /></clipPath><clipPath id="clipPath24" clipPathUnits="userSpaceOnUse"><path d="m 12,89.99999 h 768 v 432 H 12 Z" /></clipPath><clipPath id="clipPath34" clipPathUnits="userSpaceOnUse"><path d="m 12,89.99999 h 768 v 432 H 12 Z" /></clipPath><clipPath id="clipPath64" clipPathUnits="userSpaceOnUse"><path d="m 719.6348,95.86771 h 60.36523 v 23.94986 H 719.6348 Z" /></clipPath><clipPath id="clipPath136" clipPathUnits="userSpaceOnUse"><path d="m 12,89.99999 h 768 v 432 H 12 Z" /></clipPath></defs><g clip-path="url(#clipPath14)" transform="matrix(1.3333333,0,0,-1.3333333,-371.32933,666.47053)"><g /><g><g clip-path="url(#clipPath24)"><path d="M 12,522 H 780 V 89.99999 H 12 Z" fill="#ffffff" /></g></g><g><g clip-path="url(#clipPath34)"><path d="M 12,522 H 780 V 90 H 12 Z" fill="#ffffff" /><g transform="matrix(0.24,0,0,0.24,79.14306,-489.36)"><text transform="matrix(1,0,0,-1,0,2450)" class="c0"><tspan y="0" x="0 22.500002 35.666668 54.208336 75.041672 95.875008 116.70834 136.29167 145.45834 162.12502 181.70834 200.45834 221.29169 240.87502 253.83336 269.25003 290.08334 298.83334 319.66669">Argonne Leadership </tspan></text>
</g><g transform="matrix(0.24,0,0,0.24,158.0671,-489.36)"><text transform="matrix(1,0,0,-1,0,2450)" class="c0"><tspan y="0" x="0 21.250002 42.083336 73.750008 94.583344 115.41668 128.75002 137.50002 158.33334 177.08334 186.25002 203.50002 222.25002 239.33336 248.08336 256.83334 265.58334 278.91669">Computing Facility</tspan></text>
</g><g transform="matrix(0.24,0,0,0.24,38.72076,-489.36)"><text transform="matrix(1,0,0,-1,0,2450)" class="c1"><tspan y="0" x="0">3</tspan></text>
</g><path d="M 12,522 H 28 V 90 H 12 Z" fill="#1e8bc9" /></g></g><g><g clip-path="url(#clipPath64)"><path d="m 767.1336,107.2869 h -3.5184 l 1.7592,-3.1078 z" fill="#008c4f" /><path d="m 770.7595,107.2869 h -3.6259 l -1.7592,-3.1078 h 7.1443 z" fill="#0093d0" /><path d="m 774.2779,107.2869 h -3.5184 l 1.7592,-3.1078 z" fill="#1d388b" /><path d="m 770.7595,107.2869 h -3.6259 l 1.7593,3.1074 z" fill="#ffffff" /><path d="m 770.7595,113.4932 h -3.6259 l 1.7593,-3.0989 z" fill="#a12b2f" /><path d="m 770.7595,113.4932 -1.8666,-3.0989 1.8666,-3.1074 v 0 h 3.5184 z" fill="#e22b2a" /><path d="m 767.1336,107.2869 1.7593,3.1074 -1.7593,3.0989 -3.5184,-6.2063 z" fill="#85c441" /><path d="m 742.2813,100.3058 c -0.5471,0.9934 -0.5471,0.9934 -0.5471,0.9934 0,0.1096 -0.1092,0.2188 -0.1092,0.3374 0,-0.1186 0,-0.4467 0,-0.6652 0,-0.6656 0,-0.6656 0,-0.6656 -0.3282,0 -0.3282,0 -0.3282,0 0,1.8774 0,1.8774 0,1.8774 0.4374,0 0.4374,0 0.4374,0 0.4374,-0.884 0.4374,-0.884 0.4374,-0.884 0.1097,-0.1093 0.2189,-0.3278 0.2189,-0.4463 0,0.2277 0,0.5559 0,0.7837 0,0.5466 0,0.5466 0,0.5466 0.3371,0 0.3371,0 0.3371,0 0,-1.8774 0,-1.8774 0,-1.8774 z" fill="#231f20" /><path d="m 744.4864,100.3058 c -0.1093,0.4374 -0.1093,0.4374 -0.1093,0.4374 -0.7744,0 -0.7744,0 -0.7744,0 -0.1096,-0.4374 -0.1096,-0.4374 -0.1096,-0.4374 -0.3282,0 -0.3282,0 -0.3282,0 0.6563,1.8774 0.6563,1.8774 0.6563,1.8774 0.3374,0 0.3374,0 0.3374,0 0.6559,-1.8774 0.6559,-1.8774 0.6559,-1.8774 z m -0.4463,1.2122 c 0,0 0,0.1186 -0.1096,0.2278 0,0 0,0 0,0 0,-0.1092 0,-0.2278 0,-0.337 -0.2185,-0.4374 -0.2185,-0.4374 -0.2185,-0.4374 0.5559,0 0.5559,0 0.5559,0 z" fill="#231f20" /><path d="m 745.799,101.8551 v -1.5493 h -0.3282 v 1.5493 h -0.4374 v 0.3281 h 1.3215 v -0.3281 z" fill="#231f20" /><path d="m 746.6826,100.3058 h 0.32808 v 1.87736 h -0.32808 z" fill="#231f20" /><path d="m 748.3322,100.3058 c -0.5466,0 -0.884,0.3282 -0.884,0.8841 0,0.6652 0.4466,0.9933 0.9937,0.9933 0.4374,0 0.7651,-0.2185 0.7651,-0.884 0,-0.6652 -0.3277,-0.9934 -0.8748,-0.9934 z m 0,1.5493 c -0.2185,0 -0.4374,-0.2185 -0.4374,-0.5559 0,-0.4463 0.1093,-0.6652 0.4374,-0.6652 0.2189,0 0.5471,0.1092 0.5471,0.6652 0,0.3374 -0.2189,0.5559 -0.5471,0.5559 z" fill="#231f20" /><path d="m 750.6381,100.3058 c -0.547,0.9934 -0.547,0.9934 -0.547,0.9934 0,0.1096 -0.1093,0.2188 -0.2185,0.3374 0.1092,-0.1186 0.1092,-0.4467 0.1092,-0.6652 0,-0.6656 0,-0.6656 0,-0.6656 -0.3281,0 -0.3281,0 -0.3281,0 0,1.8774 0,1.8774 0,1.8774 0.4374,0 0.4374,0 0.4374,0 0.4374,-0.884 0.4374,-0.884 0.4374,-0.884 0.1096,-0.1093 0.2189,-0.3278 0.2189,-0.4463 0,0.2277 0,0.5559 0,0.7837 0,0.5466 0,0.5466 0,0.5466 0.337,0 0.337,0 0.337,0 0,-1.8774 0,-1.8774 0,-1.8774 z" fill="#231f20" /><path d="m 752.8432,100.3058 c -0.1092,0.4374 -0.1092,0.4374 -0.1092,0.4374 -0.7744,0 -0.7744,0 -0.7744,0 -0.1097,-0.4374 -0.1097,-0.4374 -0.1097,-0.4374 -0.3281,0 -0.3281,0 -0.3281,0 0.6563,1.8774 0.6563,1.8774 0.6563,1.8774 0.3281,0 0.3281,0 0.3281,0 0.6652,-1.8774 0.6652,-1.8774 0.6652,-1.8774 z m -0.4462,1.2122 c 0,0 0,0.1186 0,0.2278 0,0 0,0 0,0 -0.1097,-0.1092 -0.1097,-0.2278 -0.1097,-0.337 -0.2185,-0.4374 -0.2185,-0.4374 -0.2185,-0.4374 0.5559,0 0.5559,0 0.5559,0 z" fill="#231f20" /><path d="m 753.6088,100.3058 v 1.8774 h 0.3281 v -1.5492 h 0.6652 v -0.3282 z" fill="#231f20" /><path d="m 755.6958,100.3058 v 1.8774 h 0.3374 v -1.5492 h 0.6562 v -0.3282 z" fill="#231f20" /><path d="m 758.3375,100.3058 c -0.1074,0.4374 -0.1074,0.4374 -0.1074,0.4374 -0.6666,0 -0.6666,0 -0.6666,0 -0.1074,-0.4374 -0.1074,-0.4374 -0.1074,-0.4374 -0.437,0 -0.437,0 -0.437,0 0.6629,1.8774 0.6629,1.8774 0.6629,1.8774 0.437,0 0.437,0 0.437,0 0.6556,-1.8774 0.6556,-1.8774 0.6556,-1.8774 z m -0.3259,1.2122 c -0.1111,0 -0.1111,0.1186 -0.1111,0.2278 0,0 0,0 0,0 0,-0.1092 0,-0.2278 -0.1074,-0.337 -0.1111,-0.4374 -0.1111,-0.4374 -0.1111,-0.4374 0.437,0 0.437,0 0.437,0 z" fill="#231f20" /><path d="m 759.6597,100.3058 c -0.1074,0 -0.2185,0 -0.4444,0 0,1.8774 0,1.8774 0,1.8774 0.1074,0 0.337,0 0.5555,0 0.4371,0 0.6556,-0.1092 0.6556,-0.4374 0,-0.2278 -0.1111,-0.337 -0.3296,-0.4466 0,0 0,0 0,0 0.2185,0 0.3296,-0.2186 0.3296,-0.4463 0,-0.2189 -0.2185,-0.5471 -0.7667,-0.5471 z m 0.1111,1.5493 c -0.1111,0 -0.2185,0 -0.2185,0 0,-0.4463 0,-0.4463 0,-0.4463 0,0 0.1074,0 0.1074,0 0.2186,0 0.3297,0.1092 0.3297,0.2278 0,0.2185 0,0.2185 -0.2186,0.2185 z m -0.1111,-0.6652 c 0,0 -0.1074,0 -0.1074,0 0,-0.5559 0,-0.5559 0,-0.5559 0,0 0.1074,0 0.1074,0 0.3297,0 0.4371,0.1092 0.4371,0.2189 0,0.2277 -0.2185,0.337 -0.4371,0.337 z" fill="#231f20" /><path d="m 761.6375,100.3058 c -0.5482,0 -0.7741,0.3282 -0.7741,0.8841 0,0.6652 0.337,0.9933 0.8852,0.9933 0.437,0 0.7629,-0.2185 0.7629,-0.884 0,-0.6652 -0.3259,-0.9934 -0.874,-0.9934 z m 0,1.5493 c -0.2185,0 -0.4371,-0.2185 -0.4371,-0.5559 0,-0.4463 0.1074,-0.6652 0.4371,-0.6652 0.3296,0 0.5481,0.1092 0.5481,0.6652 0,0.3374 -0.2185,0.5559 -0.5481,0.5559 z" fill="#231f20" /><path d="m 763.8337,100.3058 c -0.5481,0.7748 -0.5481,0.7748 -0.5481,0.7748 0,0 0,0 0,0 0,-0.7748 0,-0.7748 0,-0.7748 -0.3259,0 -0.3259,0 -0.3259,0 0,1.8774 0,1.8774 0,1.8774 0.1074,0 0.3259,0 0.5444,0 0.3296,0 0.6592,-0.1092 0.6592,-0.5466 0,-0.2278 -0.2185,-0.4467 -0.5481,-0.4467 0.1111,-0.1093 0.1111,-0.2185 0.2185,-0.2185 0.437,-0.6656 0.437,-0.6656 0.437,-0.6656 z m -0.437,1.5493 c 0,0 -0.1111,0 -0.1111,0 0,-0.5559 0,-0.5559 0,-0.5559 0,0 0.1111,0 0.1111,0 0.2185,0 0.3296,0.1096 0.3296,0.3374 0,0.2185 -0.1111,0.2185 -0.3296,0.2185 z" fill="#231f20" /><path d="m 768.6743,100.3058 c -0.5481,0 -0.8851,0.3282 -0.8851,0.8841 0,0.6652 0.4481,0.9933 0.8851,0.9933 0.5445,0 0.8815,-0.2185 0.8815,-0.884 0,-0.6652 -0.4444,-0.9934 -0.8815,-0.9934 z m 0,1.5493 c -0.2185,0 -0.437,-0.2185 -0.437,-0.5559 0,-0.4463 0.1074,-0.6652 0.437,-0.6652 0.2186,0 0.5445,0.1092 0.5445,0.6652 0,0.3374 -0.2185,0.5559 -0.5445,0.5559 z" fill="#231f20" /><path d="m 770.7595,100.3058 c -0.4371,0.7748 -0.4371,0.7748 -0.4371,0.7748 0,0 0,0 0,0 0,-0.7748 0,-0.7748 0,-0.7748 -0.437,0 -0.437,0 -0.437,0 0,1.8774 0,1.8774 0,1.8774 0.2185,0 0.3259,0 0.5482,0 0.437,0 0.6555,-0.1092 0.6555,-0.5466 0,-0.2278 -0.1111,-0.4467 -0.437,-0.4467 0.1074,-0.1093 0.1074,-0.2185 0.1074,-0.2185 0.4481,-0.6656 0.4481,-0.6656 0.4481,-0.6656 z m -0.3259,1.5493 c -0.1112,0 -0.1112,0 -0.1112,0 0,-0.5559 0,-0.5559 0,-0.5559 0,0 0,0 0.1112,0 0.2185,0 0.3259,0.1096 0.3259,0.3374 0,0.2185 -0.1074,0.2185 -0.3259,0.2185 z" fill="#231f20" /><path d="m 765.8114,100.3058 c -0.1111,0.4374 -0.1111,0.4374 -0.1111,0.4374 -0.6555,0 -0.6555,0 -0.6555,0 -0.1074,-0.4374 -0.1074,-0.4374 -0.1074,-0.4374 -0.437,0 -0.437,0 -0.437,0 0.6555,1.8774 0.6555,1.8774 0.6555,1.8774 0.437,0 0.437,0 0.437,0 0.6667,-1.8774 0.6667,-1.8774 0.6667,-1.8774 z m -0.3296,1.2122 c -0.1074,0 -0.1074,0.1186 -0.1074,0.2278 0,0 0,0 0,0 0,-0.1092 -0.1111,-0.2278 -0.1111,-0.337 -0.1074,-0.4374 -0.1074,-0.4374 -0.1074,-0.4374 0.437,0 0.437,0 0.437,0 z" fill="#231f20" /><path d="m 767.1336,101.8551 v -1.5493 h -0.3296 v 1.5493 h -0.5444 v 0.3281 h 1.3111 v -0.3281 z" fill="#231f20" /><path d="m 772.4113,100.9714 c 0,-0.6656 0,-0.6656 0,-0.6656 -0.3296,0 -0.3296,0 -0.3296,0 0,0.6656 0,0.6656 0,0.6656 -0.5482,1.2118 -0.5482,1.2118 -0.5482,1.2118 0.3297,0 0.3297,0 0.3297,0 0.2185,-0.5466 0.2185,-0.5466 0.2185,-0.5466 0.1074,-0.1186 0.1074,-0.2278 0.2185,-0.3374 0,0 0,0 0,0 0,0.1096 0,0.2188 0.1111,0.3374 0.2185,0.5466 0.2185,0.5466 0.2185,0.5466 0.337,0 0.337,0 0.337,0 z" fill="#231f20" /><path d="m 730.853,104.2977 c -0.6651,1.7677 -0.6651,1.7677 -0.6651,1.7677 -3.1896,0 -3.1896,0 -3.1896,0 -0.6563,-1.7677 -0.6563,-1.7677 -0.6563,-1.7677 -0.884,0 -0.884,0 -0.884,0 2.7525,7.3181 2.7525,7.3181 2.7525,7.3181 0.8837,0 0.8837,0 0.8837,0 2.7432,-7.3181 2.7432,-7.3181 2.7432,-7.3181 z m -1.8681,5.3221 c -0.2278,0.4375 -0.2278,0.7745 -0.337,1.1026 0,0 0,0 0,0 -0.1096,-0.3281 -0.2189,-0.6651 -0.3282,-1.1026 -1.1029,-2.8888 -1.1029,-2.8888 -1.1029,-2.8888 2.7525,0 2.7525,0 2.7525,0 z" fill="#231f20" /><path d="m 735.1363,108.9547 c -1.2119,0.2185 -1.7589,-0.6656 -1.7589,-2.5519 0,-2.1051 0,-2.1051 0,-2.1051 -0.8748,0 -0.8748,0 -0.8748,0 0,5.4314 0,5.4314 0,5.4314 0.8748,0 0.8748,0 0.8748,0 0,-0.4467 -0.1093,-0.893 -0.2185,-1.44 0.1092,0 0.1092,0 0.1092,0 0.1093,0.7748 0.7748,1.6589 1.8682,1.5493 z" fill="#231f20" /><path d="m 737.6699,101.4088 c -1.4307,0 -2.3148,0.5559 -2.3148,1.5581 0,0.7748 0.4467,1.2122 0.9933,1.44 -0.3281,0.2189 -0.5466,0.4374 -0.5466,0.8841 0,0.337 0.2185,0.6652 0.5466,0.8841 -0.5466,0.2277 -0.7748,0.7837 -0.7748,1.5581 0,1.1029 0.8841,2.1052 2.3148,2.1052 0.2189,0 0.4378,-0.1093 0.547,-0.1093 0.1093,0 0.7745,0 0.8841,0 1.2029,0 1.2029,0 1.2029,0 0,-0.6652 0,-0.6652 0,-0.6652 0,0 -0.547,0 -0.6563,0 0,0 -0.3281,0 -0.3281,0 0,0 0,0 0,0 0.3281,-0.2278 0.547,-0.6652 0.547,-1.2211 0,-1.1118 -0.7655,-1.9959 -2.3058,-1.9959 -0.2186,0 -0.556,0 -0.7745,0 -0.2189,0 -0.4374,-0.2189 -0.4374,-0.4467 0,-0.3281 0.3278,-0.4374 0.9933,-0.4374 1.0933,0 1.0933,0 1.0933,0 1.103,0 1.7589,-0.5559 1.7589,-1.5585 0,-1.1026 -1.0933,-1.9955 -2.7429,-1.9955 z m 0.7655,2.8889 c -1.1029,0 -1.1029,0 -1.1029,0 -0.1093,0 -0.3278,0 -0.3278,0 -0.547,-0.3374 -0.7655,-0.6652 -0.7655,-1.1119 0,-0.7748 0.6559,-1.1118 1.54,-1.1118 1.2029,0 1.8681,0.5559 1.8681,1.2211 0,0.5559 -0.4374,1.0026 -1.2119,1.0026 z m -0.547,4.8755 c -0.9933,0 -1.54,-0.5559 -1.54,-1.44 0,-0.893 0.5467,-1.3304 1.4308,-1.3304 0.8747,0 1.5403,0.556 1.5403,1.3304 0,0.8841 -0.5559,1.44 -1.4311,1.44 z" fill="#231f20" /><path d="m 743.0557,104.1791 c -1.4307,0 -2.3148,0.893 -2.3148,2.7797 0,1.5492 0.9933,2.8796 2.5337,2.8796 1.3214,0 2.4147,-0.7745 2.4147,-2.7704 0,-1.5585 -0.984,-2.8889 -2.6336,-2.8889 z m 0.2189,4.8848 c -0.8841,0 -1.6496,-0.5559 -1.6496,-1.9959 0,-1.44 0.5466,-2.2237 1.6496,-2.2237 0.7655,0 1.5399,0.6652 1.5399,2.2237 0,1.2211 -0.5466,1.9959 -1.5399,1.9959 z" fill="#231f20" /><path d="m 749.8726,104.2977 c 0,3.4355 0,3.4355 0,3.4355 0,0.8841 -0.2189,1.44 -0.9933,1.44 -0.9845,0 -1.6496,-1.0022 -1.6496,-2.333 0,-2.5425 0,-2.5425 0,-2.5425 -0.7656,0 -0.7656,0 -0.7656,0 0,5.4314 0,5.4314 0,5.4314 0.7656,0 0.7656,0 0.7656,0 0,-0.337 0,-0.893 -0.1093,-1.2211 0,0 0,0 0,0 0.3278,0.7744 0.9933,1.3304 1.9774,1.3304 1.2122,0 1.6496,-0.7745 1.6496,-1.7771 0,-3.7636 0,-3.7636 0,-3.7636 z" fill="#231f20" /><path d="m 755.4772,104.2977 c 0,3.4355 0,3.4355 0,3.4355 0,0.8841 -0.2188,1.44 -0.9844,1.44 -0.9933,0 -1.6496,-1.0022 -1.6496,-2.333 0,-2.5425 0,-2.5425 0,-2.5425 -0.7744,0 -0.7744,0 -0.7744,0 0,5.4314 0,5.4314 0,5.4314 0.7744,0 0.7744,0 0.7744,0 0,-0.337 0,-0.893 -0.1092,-1.2211 0.1092,0 0.1092,0 0.1092,0 0.2189,0.7744 0.8752,1.3304 1.8685,1.3304 1.2029,0 1.6492,-0.7745 1.6492,-1.7771 0,-3.7636 0,-3.7636 0,-3.7636 z" fill="#231f20" /><path d="m 761.5301,107.1773 c -3.6296,0 -3.6296,0 -3.6296,0 0,-1.6678 0.6556,-2.333 1.8703,-2.333 0.5445,0 1.0926,0.1185 1.537,0.3374 0,-0.6655 0,-0.6655 0,-0.6655 -0.4444,-0.2185 -1.0999,-0.3371 -1.7555,-0.3371 -1.5407,0 -2.4258,0.893 -2.4258,2.7797 0,1.6585 0.8851,2.8796 2.3147,2.8796 1.5296,0 2.0889,-1.1119 2.0889,-2.333 0,0 0,-0.2185 0,-0.3281 z m -2.0889,1.9959 c -0.774,0 -1.3222,-0.5559 -1.4296,-1.44 2.7407,0 2.7407,0 2.7407,0 0,0.8841 -0.5444,1.44 -1.3111,1.44 z" fill="#231f20" /></g></g><g><g clip-path="url(#clipPath136)"><path d="m 297.1059,362.844 h 45.7936 v -43.1651 h -45.7936 z" fill="#004875" /><g transform="matrix(0.24,0,0,0.24,305.0527,-232.08)"><text transform="matrix(1,0,0,-1,0,2450)" class="c2"><tspan y="0" x="0 4.1666675 13.333336 18.750004 27.500006 31.250006 35.83334 47.500008 56.250011 61.666679 70.416679">Intel Data </tspan></text>
</g><g transform="matrix(0.24,0,0,0.24,323.0527,-232.08)"><text transform="matrix(1,0,0,-1,0,2450)" class="c2"><tspan y="0" x="0 12.083336 20.833338 30.000006 35.416676 44.166676 49.583344">Center </tspan></text>
</g><g transform="matrix(0.24,0,0,0.24,305.3047,-237.12)"><text transform="matrix(1,0,0,-1,0,2450)" class="c2"><tspan y="0" x="0 12.500003 23.333338 35.416676 40.000008 54.583344 63.333347 72.083351">GPU Max </tspan></text>
</g><g transform="matrix(0.24,0,0,0.24,323.7047,-237.12)"><text transform="matrix(1,0,0,-1,0,2450)" class="c2"><tspan y="0" x="0 10.833336 19.583338 25.000006 28.750006 37.500008">Series</tspan></text>
</g><path d="m 345.0601,290.3316 57.6228,48.919 -0.7766,0.9148 -57.6228,-48.919 z m -0.8139,2.1949 -1.404,-3.2907 3.475,0.8512 z m 58.474,45.4441 1.404,3.2907 -3.475,-0.8513 z" fill="#929000" /><path d="m 297.0486,310.8185 h 45.7936 v -43.1651 h -45.7936 z" fill="#004875" /><g transform="matrix(0.24,0,0,0.24,304.9954,-283.92)"><text transform="matrix(1,0,0,-1,0,2450)" class="c2"><tspan y="0" x="0 4.1666675 13.333336 18.750004 27.500006 31.250006">Intel </tspan></text>
</g><g transform="matrix(0.24,0,0,0.24,313.5954,-283.92)"><text transform="matrix(1,0,0,-1,0,2450)" class="c2"><tspan y="0" x="0 11.666669 20.41667 25.833338 34.58334">Data </tspan></text>
</g><g transform="matrix(0.24,0,0,0.24,322.9954,-283.92)"><text transform="matrix(1,0,0,-1,0,2450)" class="c2"><tspan y="0" x="0 12.083336 20.833338 30.000006 35.416676 44.166676 49.583344">Center </tspan></text>
</g><g transform="matrix(0.24,0,0,0.24,305.2474,-288.96)"><text transform="matrix(1,0,0,-1,0,2450)" class="c2"><tspan y="0" x="0 12.500003 23.333338 35.416676">GPU </tspan></text>
</g><g transform="matrix(0.24,0,0,0.24,314.8474,-288.96)"><text transform="matrix(1,0,0,-1,0,2450)" class="c2"><tspan y="0" x="0 14.583336 23.333338 32.08334">Max </tspan></text>
</g><g transform="matrix(0.24,0,0,0.24,323.6474,-288.96)"><text transform="matrix(1,0,0,-1,0,2450)" class="c2"><tspan y="0" x="0 10.833336 19.583338 25.000006 28.750006 37.500008">Series</tspan></text>
</g><path d="M 351.0454,393.3114 H 396.839 V 350.1463 H 351.0454 Z" fill="#004875" /><g transform="matrix(0.24,0,0,0.24,358.9922,-201.6)"><text transform="matrix(1,0,0,-1,0,2450)" class="c2"><tspan y="0" x="0 4.1666675 13.333336 18.750004 27.500006 31.250006">Intel </tspan></text>
</g><g transform="matrix(0.24,0,0,0.24,367.5922,-201.6)"><text transform="matrix(1,0,0,-1,0,2450)" class="c2"><tspan y="0" x="0 11.666669 20.41667 25.833338 34.58334">Data </tspan></text>
</g><g transform="matrix(0.24,0,0,0.24,376.9922,-201.6)"><text transform="matrix(1,0,0,-1,0,2450)" class="c2"><tspan y="0" x="0 12.083336 20.833338 30.000006 35.416676 44.166676 49.583344">Center </tspan></text>
</g><g transform="matrix(0.24,0,0,0.24,359.2442,-206.64)"><text transform="matrix(1,0,0,-1,0,2450)" class="c2"><tspan y="0" x="0 12.500003 23.333338 35.416676">GPU </tspan></text>
</g><g transform="matrix(0.24,0,0,0.24,368.8442,-206.64)"><text transform="matrix(1,0,0,-1,0,2450)" class="c2"><tspan y="0" x="0 14.583336 23.333338 32.08334">Max </tspan></text>
</g><g transform="matrix(0.24,0,0,0.24,377.6442,-206.64)"><text transform="matrix(1,0,0,-1,0,2450)" class="c2"><tspan y="0" x="0 10.833336 19.583338 25.000006 28.750006 37.500008">Series</tspan></text>
</g><path d="m 404.1242,362.844 h 45.7937 v -43.1651 h -45.7937 z" fill="#004875" /><g transform="matrix(0.24,0,0,0.24,412.071,-232.08)"><text transform="matrix(1,0,0,-1,0,2450)" class="c2"><tspan y="0" x="0 4.1666675 13.333336 18.750004 27.500006 31.250006">Intel </tspan></text>
</g><g transform="matrix(0.24,0,0,0.24,420.671,-232.08)"><text transform="matrix(1,0,0,-1,0,2450)" class="c2"><tspan y="0" x="0 11.666669 20.41667 25.833338 34.58334">Data </tspan></text>
</g><g transform="matrix(0.24,0,0,0.24,430.071,-232.08)"><text transform="matrix(1,0,0,-1,0,2450)" class="c2"><tspan y="0" x="0 12.083336 20.833338 30.000006 35.416676 44.166676 49.583344">Center </tspan></text>
</g><g transform="matrix(0.24,0,0,0.24,412.323,-237.12)"><text transform="matrix(1,0,0,-1,0,2450)" class="c2"><tspan y="0" x="0 12.500003 23.333338 35.416676">GPU </tspan></text>
</g><g transform="matrix(0.24,0,0,0.24,421.923,-237.12)"><text transform="matrix(1,0,0,-1,0,2450)" class="c2"><tspan y="0" x="0 14.583336 23.333338 32.08334">Max </tspan></text>
</g><g transform="matrix(0.24,0,0,0.24,430.723,-237.12)"><text transform="matrix(1,0,0,-1,0,2450)" class="c2"><tspan y="0" x="0 10.833336 19.583338 25.000006 28.750006 37.500008">Series</tspan></text>
</g><path d="m 404.0668,310.7941 h 45.7937 V 267.629 h -45.7937 z" fill="#004875" /><g transform="matrix(0.24,0,0,0.24,412.0137,-284.16)"><text transform="matrix(1,0,0,-1,0,2450)" class="c2"><tspan y="0" x="0 4.1666675 13.333336 18.750004 27.500006 31.250006">Intel </tspan></text>
</g><g transform="matrix(0.24,0,0,0.24,420.6136,-284.16)"><text transform="matrix(1,0,0,-1,0,2450)" class="c2"><tspan y="0" x="0 11.666669 20.41667 25.833338 34.58334">Data </tspan></text>
</g><g transform="matrix(0.24,0,0,0.24,430.0137,-284.16)"><text transform="matrix(1,0,0,-1,0,2450)" class="c2"><tspan y="0" x="0 12.083336 20.833338 30.000006 35.416676 44.166676 49.583344">Center </tspan></text>
</g><g transform="matrix(0.24,0,0,0.24,412.2656,-288.96)"><text transform="matrix(1,0,0,-1,0,2450)" class="c2"><tspan y="0" x="0 12.500003 23.333338 35.416676">GPU </tspan></text>
</g><g transform="matrix(0.24,0,0,0.24,421.8656,-288.96)"><text transform="matrix(1,0,0,-1,0,2450)" class="c2"><tspan y="0" x="0 14.583336 23.333338 32.08334">Max </tspan></text>
</g><g transform="matrix(0.24,0,0,0.24,430.6657,-288.96)"><text transform="matrix(1,0,0,-1,0,2450)" class="c2"><tspan y="0" x="0 10.833336 19.583338 25.000006 28.750006 37.500008">Series</tspan></text>
</g><path d="m 349.9868,280.767 h 45.7937 v -43.1651 h -45.7937 z" fill="#004875" /><g transform="matrix(0.24,0,0,0.24,357.9337,-314.16)"><text transform="matrix(1,0,0,-1,0,2450)" class="c2"><tspan y="0" x="0 4.1666675 13.333336 18.750004 27.500006 31.250006">Intel </tspan></text>
</g><g transform="matrix(0.24,0,0,0.24,366.5337,-314.16)"><text transform="matrix(1,0,0,-1,0,2450)" class="c2"><tspan y="0" x="0 11.666669 20.41667 25.833338 34.58334">Data </tspan></text>
</g><g transform="matrix(0.24,0,0,0.24,375.9337,-314.16)"><text transform="matrix(1,0,0,-1,0,2450)" class="c2"><tspan y="0" x="0 12.083336 20.833338 30.000006 35.416676 44.166676 49.583344">Center </tspan></text>
</g><g transform="matrix(0.24,0,0,0.24,358.1856,-319.2)"><text transform="matrix(1,0,0,-1,0,2450)" class="c2"><tspan y="0" x="0 12.500003 23.333338 35.416676">GPU </tspan></text>
</g><g transform="matrix(0.24,0,0,0.24,367.7856,-319.2)"><text transform="matrix(1,0,0,-1,0,2450)" class="c2"><tspan y="0" x="0 14.583336 23.333338 32.08334">Max </tspan></text>
</g><g transform="matrix(0.24,0,0,0.24,376.5857,-319.2)"><text transform="matrix(1,0,0,-1,0,2450)" class="c2"><tspan y="0" x="0 10.833336 19.583338 25.000006 28.750006 37.500008">Series</tspan></text>
</g><path d="m 373.5202,283.1575 0.9853,64.5797 -1.1998,0.0183 -0.9853,-64.5797 z m -2.1875,0.8334 1.551,-3.224 1.6486,3.1752 z m 4.1605,62.9311 -1.551,3.2241 -1.6486,-3.1753 z" fill="#929000" /><path d="m 401.8501,290.3098 -57.5116,48.9392 0.7776,0.9139 57.5117,-48.9392 z m 0.8166,2.1939 1.4001,-3.2923 -3.4739,0.8553 z m -58.367,45.4652 -1.4002,3.2924 3.474,-0.8553 z" fill="#929000" /><path d="m 345.2425,289.8349 56.4246,-0.0225 -5e-4,-1.2 -56.4246,0.0225 z m 0.7991,-2.2003 -3.1994,1.6012 3.2006,1.5988 -10e-4,-3.2 z m 54.8259,3.1781 3.1993,-1.6013 -3.2006,-1.5987 0.001,3.2 z" fill="#929000" /><path d="m 345.2995,341.8613 56.4247,-1e-4 v -1.2 l -56.4247,10e-5 z m 0.8,-2.2 -3.2,1.6 3.2,1.6 z m 54.8247,3.1999 3.2,-1.6 -3.2,-1.6 z" fill="#929000" /><path d="m 371.2803,282.6508 -27.8526,56.1937 1.0752,0.5329 27.8525,-56.1937 z m 1.6159,1.6937 -0.0125,-3.5776 -2.8547,2.1565 z m -30.0092,53.3391 0.0125,3.5777 2.8547,-2.1566 z" fill="#929000" /><path d="m 374.5181,282.624 29.038,56.2295 -1.0662,0.5506 -29.0381,-56.2295 z m -1.5877,1.7203 -0.0467,-3.5774 2.8899,2.1091 z m 31.1471,53.3396 0.0467,3.5774 -2.8899,-2.1091 z" fill="#929000" /><path d="m 344.468,291.1005 28.9173,56.6353 -1.0687,0.5457 -28.9174,-56.6353 z m -1.5956,1.7129 -0.0302,-3.5776 2.8802,2.1224 z m 31.0397,53.7551 0.0302,3.5776 -2.8802,-2.1224 z" fill="#929000" /><path d="m 402.4653,291.097 -27.9973,56.6317 1.0757,0.5318 27.9973,-56.6317 z m 1.6177,1.6921 -0.0162,-3.5777 -2.8524,2.1595 z m -30.1569,53.7793 0.0161,3.5777 2.8525,-2.1595 z" fill="#929000" /><path d="m 370.4109,280.8406 -25.4215,7.1665 0.3256,1.155 25.4215,-7.1666 z m -0.173,2.3345 2.6458,-2.4082 -3.5141,-0.6718 z m -24.7499,3.6525 -2.6458,2.4082 3.5141,0.6717 z" fill="#929000" /><path d="m 375.3571,280.8151 26.55,7.1898 -0.3137,1.1583 -26.55,-7.1899 z m 0.1971,2.3326 -2.6705,-2.3808 3.507,-0.708 z m 25.8421,3.6829 2.6705,2.3808 -3.507,0.7079 z" fill="#929000" /><path d="m 345.372,341.3448 26.428,7.564 -0.3302,1.1537 -26.428,-7.564 z m 0.1637,2.3352 -2.6362,-2.4187 3.5168,-0.6577 z m 25.7703,4.0473 2.6362,2.4188 -3.5167,0.6577 z" fill="#929000" /><path d="m 401.6524,341.3634 -25.5773,7.5294 0.3389,1.1511 25.5773,-7.5293 z m -0.1462,2.3364 2.618,-2.4385 -3.5216,-0.6312 z m -24.946,4.0077 -2.618,2.4386 3.5216,0.6312 z" fill="#929000" /><path d="m 343.4448,291.635 0.0521,47.2257 -1.2,10e-4 -0.0521,-47.2256 1.2,-10e-4 z m -2.1991,0.8025 1.5965,-3.2017 1.6035,3.1982 -3.2,0.003 z m 3.2503,45.622 -1.5964,3.2018 -1.6036,-3.1982 3.2,-0.004 z" fill="#929000" /><path d="m 404.6695,291.6107 0.0521,47.25 -1.2,10e-4 -0.0521,-47.25 z m -2.1991,0.8024 1.5964,-3.2017 1.6036,3.1982 -3.2,0.003 z m 3.2503,45.6464 -1.5965,3.2018 -1.6035,-3.1983 3.2,-0.003 z" fill="#929000" /><path d="m 348.15,432.1818 h 52.2514 V 414.506 H 348.15 Z" fill="#ffff00" /><g transform="matrix(0.24,0,0,0.24,358.9757,-167.28)"><text transform="matrix(1,0,0,-1,0,2450)" class="c3"><tspan y="0" x="0 15 31.674999 37.924999 50.424999 57.099998 72.099998 89.599998 94.599998 102.1 114.6">PCIe Switch</tspan></text>
</g><g transform="matrix(6.299212e-5,0,0,-6.299212e-5,283.0228,481.3925)"><path d="M 0,0 H 1425556 V 496605 H 0 Z" class="c4" /></g><g transform="matrix(6.299212e-5,0,0,-6.299212e-5,378.2656,481.3925)"><path d="M 0,0 H 1425556 V 496605 H 0 Z" class="c4" /></g><path d="m 452.4278,244.8285 h 39.8327 v -45.0876 h -39.8327 z" fill="#4472c4" /><g transform="matrix(0.24,0,0,0.24,460.1941,-352.08)"><text transform="matrix(1,0,0,-1,0,2450)" class="c5"><tspan y="0" x="0 6.25 19.174999 26.674999 39.174999">Intel</tspan></text>
</g><g transform="matrix(0.24,0,0,0.24,470.7941,-349.92)" /><g transform="matrix(0.24,0,0,0.24,471.7941,-352.08)"><text transform="matrix(1,0,0,-1,0,2450)" class="c5"><tspan y="0" x="0 14.1675 26.66 40.002499 52.919998">Xeon </tspan></text>
</g><g transform="matrix(0.24,0,0,0.24,460.3421,-358.08)"><text transform="matrix(1,0,0,-1,0,2450)" class="c5"><tspan y="0" x="0 16.6675 31.66 48.327499">CPU </tspan></text>
</g><g transform="matrix(0.24,0,0,0.24,473.5421,-358.08)"><text transform="matrix(1,0,0,-1,0,2450)" class="c5"><tspan y="0" x="0 20.4175 32.91 45.002499">Max </tspan></text>
</g><g transform="matrix(0.24,0,0,0.24,464.5941,-365.04)"><text transform="matrix(1,0,0,-1,0,2450)" class="c5"><tspan y="0" x="0 15 27.5 35.424999 40.424999 52.924999">Series</tspan></text>
</g><path d="m 347.5202,215.638 h 51.9246 v -15.8971 h -51.9246 z" fill="#ffff00" /><g transform="matrix(0.24,0,0,0.24,358.1825,-382.8)"><text transform="matrix(1,0,0,-1,0,2450)" class="c3"><tspan y="0" x="0 15 31.674999 37.924999 50.424999 57.099998 72.099998 89.599998 94.599998 102.1 114.6">PCIe Switch</tspan></text>
</g><g transform="matrix(6.299212e-5,0,0,-6.299212e-5,283.0228,179.6915)"><path d="M 0,0 H 1425556 V 496605 H 0 Z" class="c4" /></g><g transform="matrix(6.299212e-5,0,0,-6.299212e-5,378.2656,179.6915)"><path d="M 0,0 H 1425556 V 496605 H 0 Z" class="c4" /></g><path d="M 448.1967,220.3654 H 319.3454 v 43.2878 h 1.2 v -42.6878 l -0.6,0.6 h 128.2513 z m -0.7999,3 4.8,-2.4 -4.8,-2.4 z m -129.8514,39.4878 2.4,4.8 2.4,-4.8 z" fill="#cd202c" /><path d="m 448.4277,226.1619 h -76.144 v 7.4399 h 1.2 v -6.8399 l -0.6,0.6 h 75.544 z m -0.7999,3 4.8,-2.4 -4.8,-2.4 z m -77.1441,3.6399 2.4,4.8 2.4,-4.8 z" fill="#cd202c" /><path d="M 447.9674,216.0186 H 425.106 v -6.4477 l 0.6,0.6 h -22.2613 v -1.2 h 22.8613 v 6.4477 l -0.6,-0.6 h 22.2614 z m -0.8,-3 4.8,2.4 -4.8,2.4 z m -42.9227,-1.0477 -4.8,-2.4 4.8,-2.4 z" fill="#cd202c" /><path d="m 448.2011,233.767 -21.2365,0.0324 0.5991,-0.6 v 30.4294 h -1.2 v -31.0285 l 21.8355,-0.0333 0.002,1.2 z m -0.8976,-2.9656 4.8934,2.2034 -4.6988,2.5926 z m -17.9398,32.0274 -2.4,4.8 -2.4,-4.8 z" fill="#cd202c" /><path d="m 447.9675,415.7076 h -22.7462 v 5.893 l 0.6,-0.6 h -22.1462 v 1.2 h 22.7462 v -5.893 l -0.6,0.6 h 22.1462 z m -0.8,3 4.8,-2.4 -4.8,-2.4 z m -42.6924,0.493 -4.8,2.4 4.8,2.4 z" fill="#cd202c" /><path d="M 447.9676,411.6316 H 319.403 v -44.788 h 1.2 v 44.188 l -0.6,-0.6 h 127.9646 z m -0.8002,-3 4.8,2.4 -4.8,2.4 z m -129.5644,-40.988 2.4,-4.8 2.4,4.8 z" fill="#cd202c" /><path d="m 447.9677,406.3727 h -74.6253 v -9.0615 h 1.2 v 8.4615 l -0.6,-0.6 h 74.0253 z m -0.8,-3 4.8,2.4 -4.8,2.4 z m -75.6253,-5.2615 2.4,-4.8 2.4,4.8 z" fill="#cd202c" /><path d="m 447.9705,399.468 -20.9484,-0.0262 0.5992,0.6 v -33.198 h -1.2 v 33.7972 l 21.5477,0.027 0.002,-1.2 z m -0.879,2.9725 4.8761,-2.2414 -4.7188,-2.556 z m -17.6702,-34.7967 -2.4,-4.8 -2.4,4.8 z" fill="#cd202c" /><path d="m 353.8703,196.8916 v -5.2802 h -47.3145 l 0.6,0.6 v -10.6668 h -1.2 v 11.2668 h 47.3145 l -0.6,-0.6 v 4.6802 z m -3,-0.8 2.4,4.8 2.4,-4.8 z m -41.9145,-13.747 -2.4,-4.8 -2.4,4.8 z" fill="#f557f0" /><path d="m 369.4415,196.8915 v -9.646 h -21.0614 l 0.6,0.6 v -5.6787 h -1.2 v 6.2787 h 21.0614 l -0.6,-0.6 v 9.046 z m -3,-0.8 2.4,4.8 2.4,-4.8 z m -15.6614,-13.1247 -2.4,-4.8 -2.4,4.8 z" fill="#f557f0" /><path d="m 393.3601,196.8915 v -5.2802 h 47.3144 l -0.6,0.6 v -10.6668 h 1.2 v 11.2668 h -47.3144 l 0.6,-0.6 v 4.6802 z m 3,-0.8 -2.4,4.8 -2.4,-4.8 z m 41.9144,-13.747 2.4,-4.8 2.4,4.8 z" fill="#f557f0" /><path d="m 380.0346,196.8915 v -9.646 h 21.0614 l -0.6,0.6 v -5.6787 h 1.2 v 6.2787 h -21.0614 l 0.6,-0.6 v 9.046 z m 3,-0.8 -2.4,4.8 -2.4,-4.8 z m 15.6614,-13.1247 2.4,-4.8 2.4,4.8 z" fill="#f557f0" /><path d="m 354.4032,433.6922 v 5.2802 h -47.3144 l 0.6,-0.6 v 10.6668 h -1.2 v -11.2668 h 47.3144 l -0.6,0.6 v -4.6802 z m -3,0.8 2.4,-4.8 2.4,4.8 z m -41.9144,13.747 -2.4,4.8 -2.4,-4.8 z" fill="#f557f0" /><path d="m 369.9745,433.6922 v 9.646 h -21.0614 l 0.6,-0.6 v 5.6787 h -1.2 v -6.2787 h 21.0614 l -0.6,0.6 v -9.046 z m -3,0.8 2.4,-4.8 2.4,4.8 z m -15.6614,13.1247 -2.4,4.8 -2.4,-4.8 z" fill="#f557f0" /><path d="m 393.893,433.6923 v 5.2802 h 47.3145 l -0.6,-0.6 v 10.6668 h 1.2 V 437.7725 H 394.493 l 0.6,0.6 v -4.6802 z m 3,0.8 -2.4,-4.8 -2.4,4.8 z m 41.9145,13.747 2.4,4.8 2.4,-4.8 z" fill="#f557f0" /><path d="m 380.5676,433.6922 v 9.646 h 21.0614 l -0.6,-0.6 v 5.6787 h 1.2 v -6.2787 h -21.0614 l 0.6,0.6 v -9.046 z m 3,0.8 -2.4,-4.8 -2.4,4.8 z m 15.6614,13.1247 2.4,4.8 2.4,-4.8 z" fill="#f557f0" /><path d="M 448.1975,210.1709 H 431.432 v -6.4477 l 0.6,0.6 h -28.3571 v -1.2 h 28.9571 v 6.4477 l -0.6,-0.6 h 16.1655 z m -0.8,-3 4.8,2.4 -4.8,2.4 z m -42.9226,-1.0477 -4.8,-2.4 4.8,-2.4 z" fill="#cd202c" /><path d="m 447.9674,421.8903 h -18.5269 v 6.0226 l 0.6,-0.6 h -26.2688 v 1.2 h 26.8688 v -6.0226 l -0.6,0.6 h 17.9269 z m -0.8,3 4.8,-2.4 -4.8,-2.4 z m -42.5957,0.6226 -4.8,2.4 4.8,2.4 z" fill="#cd202c" /><path d="m 471.8371,175.7458 h 37.0887 v -19.79 h -37.0887 z" fill="#ed7d31" /><g transform="matrix(0.24,0,0,0.24,481.6815,-421.44)"><text transform="matrix(1,0,0,-1,0,2450)" class="c5"><tspan y="0" x="0 12.9175 25.834999 38.752499 56.669998 72.512497">512GB </tspan></text>
</g><g transform="matrix(0.24,0,0,0.24,483.0335,-427.44)"><text transform="matrix(1,0,0,-1,0,2450)" class="c5"><tspan y="0" x="0 16.25 32.5 48.325001">DDR5</tspan></text>
</g><path d="m 470.6239,431.0467 v 11.1416 h 20.7067 l -0.6,-0.6 V 452.13 h 1.2 v -11.1417 h -20.7067 l 0.6,0.6 v -10.5416 z m 2.2,0.8 -1.6,-3.2 -1.6,3.2 z m 16.9067,19.4833 1.6,3.2 1.6,-3.2 z" fill="#00a19c" /><path d="m 471.7442,197.3409 v -10.1975 h 18.6374 l -0.6,0.6 v -9.5976 h 1.2 v 10.1976 h -18.6374 l 0.6,-0.6 v 9.5975 z m 2.2,-0.8 -1.6,3.2 -1.6,-3.2 z m 14.8374,-17.5951 1.6,-3.2 1.6,3.2 z" fill="#00a19c" /><path d="m 307.095,478.5696 v 8.0061 h -1.2 v -8.0061 z m -3,0.8 2.4,-3.2 2.4,3.2 z m 4.8,6.4061 -2.3999,3.2 -2.4001,-3.2 z" fill="#52c29e" /><path d="m 349.5131,478.5696 v 8.0061 h -1.2 v -8.0061 z m -3,0.8 2.4,-3.2 2.4,3.2 z m 4.8,6.4061 -2.4,3.2 -2.4,-3.2 z" fill="#52c29e" /><path d="m 403.7414,478.5696 v 8.0061 h -1.2 v -8.0061 z m -3,0.8 2.4,-3.2 2.4,3.2 z m 4.8,6.4061 -2.3999,3.2 -2.4001,-3.2 z" fill="#52c29e" /><path d="m 445.4559,478.5696 v 8.0061 h -1.2 v -8.0061 z m -3,0.8 2.4,-3.2 2.4,3.2 z m 4.8,6.4061 -2.4,3.2 -2.4,-3.2 z" fill="#52c29e" /><path d="m 307.095,142.2236 v 8.0061 h -1.2 v -8.0061 z m -3,0.8 2.4,-3.2 2.4,3.2 z m 4.8,6.4061 -2.3999,3.2 -2.4001,-3.2 z" fill="#52c29e" /><path d="m 349.5131,142.2236 v 8.0061 h -1.2 v -8.0061 z m -3,0.8 2.4,-3.2 2.4,3.2 z m 4.8,6.4061 -2.4,3.2 -2.4,-3.2 z" fill="#52c29e" /><path d="m 403.7414,142.2236 v 8.0061 h -1.2 v -8.0061 z m -3,0.8 2.4,-3.2 2.4,3.2 z m 4.8,6.4061 -2.3999,3.2 -2.4001,-3.2 z" fill="#52c29e" /><path d="m 445.4559,142.2236 v 8.0061 h -1.2 v -8.0061 z m -3,0.8 2.4,-3.2 2.4,3.2 z m 4.8,6.4061 -2.4,3.2 -2.4,-3.2 z" fill="#52c29e" /><path d="m 455.7039,202.7937 v 14.7134 h 33.2805 v -14.7134 z" fill="#ff7900" /><g transform="matrix(0.24,0,0,0.24,466.1941,-377.04)"><text transform="matrix(1,0,0,-1,0,2450)" class="c6"><tspan y="0" x="0 11.250004">64</tspan></text>
</g><g transform="matrix(0.24,0,0,0.24,471.5941,-377.04)"><text transform="matrix(1,0,0,-1,0,2450)" class="c6"><tspan y="0" x="0 15.000005">GB</tspan></text>
</g><g transform="matrix(0.24,0,0,0.24,464.1941,-383.04)"><text transform="matrix(1,0,0,-1,0,2450)" class="c6"><tspan y="0" x="0 14.583338 28.333342 45.833347 57.083351">HBM2e</tspan></text>
</g><g transform="matrix(0.24,0,0,0.24,296.7409,-453.12)"><text transform="matrix(1,0,0,-1,0,2450)" class="c7"><tspan y="0" x="0 12.9175 25.834999 43.752499 59.595001 67.512497">25GB/s</tspan></text>
</g><path d="m 451.3075,428.6467 h 39.8327 v -45.0876 h -39.8327 z" fill="#4472c4" /><g transform="matrix(0.24,0,0,0.24,459.0739,-168.24)"><text transform="matrix(1,0,0,-1,0,2450)" class="c5"><tspan y="0" x="0 6.25 19.174999 26.674999 39.174999">Intel</tspan></text>
</g><g transform="matrix(0.24,0,0,0.24,469.6739,-166.32)" /><g transform="matrix(0.24,0,0,0.24,470.6739,-168.24)"><text transform="matrix(1,0,0,-1,0,2450)" class="c5"><tspan y="0" x="0 14.1675 26.66 40.002499 52.919998">Xeon </tspan></text>
</g><g transform="matrix(0.24,0,0,0.24,459.2219,-174.24)"><text transform="matrix(1,0,0,-1,0,2450)" class="c5"><tspan y="0" x="0 16.6675 31.66 48.327499">CPU </tspan></text>
</g><g transform="matrix(0.24,0,0,0.24,472.4219,-174.24)"><text transform="matrix(1,0,0,-1,0,2450)" class="c5"><tspan y="0" x="0 20.4175 32.91 45.002499">Max </tspan></text>
</g><g transform="matrix(0.24,0,0,0.24,463.4739,-181.2)"><text transform="matrix(1,0,0,-1,0,2450)" class="c5"><tspan y="0" x="0 15 27.5 35.424999 40.424999 52.924999">Series</tspan></text>
</g><path d="m 454.8227,386.6192 v 14.7135 h 33.2805 v -14.7135 z" fill="#ff7900" /><g transform="matrix(0.24,0,0,0.24,465.3129,-193.2)"><text transform="matrix(1,0,0,-1,0,2450)" class="c6"><tspan y="0" x="0 11.250004">64</tspan></text>
</g><g transform="matrix(0.24,0,0,0.24,470.7129,-193.2)"><text transform="matrix(1,0,0,-1,0,2450)" class="c6"><tspan y="0" x="0 15.000005">GB</tspan></text>
</g><g transform="matrix(0.24,0,0,0.24,463.3129,-199.2)"><text transform="matrix(1,0,0,-1,0,2450)" class="c6"><tspan y="0" x="0 14.583338 28.333342 45.833347 57.083351">HBM2e</tspan></text>
</g><path d="M 353.7006,379.8153 H 394.493 V 369.1661 H 353.7006 Z" fill="#f4a19b" /><g transform="matrix(0.24,0,0,0.24,354.8006,-215.04)"><text transform="matrix(1,0,0,-1,0,2450)" class="c2"><tspan y="0" x="0 10.833336 16.250004 25.000006 33.750008 42.500008">Stack </tspan></text>
</g><g transform="matrix(0.24,0,0,0.24,366.1006,-215.04)"><text transform="matrix(1,0,0,-1,0,2450)" class="c2"><tspan y="0" x="0">0</tspan></text>
</g><path d="M 372.7894,379.8153 H 394.493 V 369.1661 H 372.7894 Z" fill="#ff7900" /><g transform="matrix(0.24,0,0,0.24,378.5932,-212.64)"><text transform="matrix(1,0,0,-1,0,2450)" class="c2"><tspan y="0" x="0 9.1666689 18.333338 30.83334">64GB</tspan></text>
</g><g transform="matrix(0.24,0,0,0.24,376.9412,-217.68)"><text transform="matrix(1,0,0,-1,0,2450)" class="c2"><tspan y="0" x="0 12.083336 23.333338 37.916676 47.083344">HBM2e</tspan></text>
</g><path d="M 353.7006,363.5223 H 394.493 V 352.8731 H 353.7006 Z" fill="#f4a19b" /><g transform="matrix(0.24,0,0,0.24,354.8006,-231.36)"><text transform="matrix(1,0,0,-1,0,2450)" class="c2"><tspan y="0" x="0 10.833336 16.250004 25.000006 33.750008 42.500008">Stack </tspan></text>
</g><g transform="matrix(0.24,0,0,0.24,366.1006,-231.36)"><text transform="matrix(1,0,0,-1,0,2450)" class="c2"><tspan y="0" x="0">1</tspan></text>
</g><path d="M 372.7894,363.5223 H 394.493 V 352.8731 H 372.7894 Z" fill="#ff7900" /><g transform="matrix(0.24,0,0,0.24,378.5932,-228.96)"><text transform="matrix(1,0,0,-1,0,2450)" class="c2"><tspan y="0" x="0 9.1666689 18.333338 30.83334">64GB</tspan></text>
</g><g transform="matrix(0.24,0,0,0.24,376.9412,-234)"><text transform="matrix(1,0,0,-1,0,2450)" class="c2"><tspan y="0" x="0 12.083336 23.333338 37.916676 47.083344">HBM2e</tspan></text>
</g><path d="m 364.5305,367.4605 v -2.4984 h -0.8 v 2.4984 z m -2,-0.8 1.5999,3.2 1.6001,-3.2 z m 3.2,-0.8984 -1.6,-3.2 -1.6,3.2 z" fill="#7beee4" /><path d="m 358.6287,367.5627 v -2.4985 h -0.8 v 2.4985 z m -2,-0.8 1.5999,3.2 1.6001,-3.2 z m 3.2,-0.8984 -1.6,-3.2001 -1.6,3.2 z" fill="#7beee4" /><path d="m 370.5366,367.4286 10e-5,-2.4985 h -0.8 l -10e-5,2.4985 z m -1.9999,-0.8 1.5999,3.2 1.6001,-3.2 z m 3.2,-0.8984 -1.6,-3.2001 -1.6,3.2 z" fill="#7beee4" /><path d="m 406.5674,349.3099 h 40.7925 v -10.6492 h -40.7925 z" fill="#f4a19b" /><g transform="matrix(0.24,0,0,0.24,407.6674,-245.52)"><text transform="matrix(1,0,0,-1,0,2450)" class="c2"><tspan y="0" x="0 10.833336 16.250004 25.000006 33.750008 42.500008">Stack </tspan></text>
</g><g transform="matrix(0.24,0,0,0.24,418.9675,-245.52)"><text transform="matrix(1,0,0,-1,0,2450)" class="c2"><tspan y="0" x="0">0</tspan></text>
</g><path d="m 425.6563,349.3099 h 21.7036 v -10.6492 h -21.7036 z" fill="#ff7900" /><g transform="matrix(0.24,0,0,0.24,431.46,-243.12)"><text transform="matrix(1,0,0,-1,0,2450)" class="c2"><tspan y="0" x="0 9.1666689 18.333338 30.83334">64GB</tspan></text>
</g><g transform="matrix(0.24,0,0,0.24,429.8081,-248.16)"><text transform="matrix(1,0,0,-1,0,2450)" class="c2"><tspan y="0" x="0 12.083336 23.333338 37.916676 47.083344">HBM2e</tspan></text>
</g><path d="m 406.5674,333.0168 h 40.7925 v -10.6492 h -40.7925 z" fill="#f4a19b" /><g transform="matrix(0.24,0,0,0.24,407.6674,-261.84)"><text transform="matrix(1,0,0,-1,0,2450)" class="c2"><tspan y="0" x="0 10.833336 16.250004 25.000006 33.750008 42.500008">Stack </tspan></text>
</g><g transform="matrix(0.24,0,0,0.24,418.9675,-261.84)"><text transform="matrix(1,0,0,-1,0,2450)" class="c2"><tspan y="0" x="0">1</tspan></text>
</g><path d="m 425.6563,333.0168 h 21.7036 v -10.6492 h -21.7036 z" fill="#ff7900" /><g transform="matrix(0.24,0,0,0.24,431.46,-259.44)"><text transform="matrix(1,0,0,-1,0,2450)" class="c2"><tspan y="0" x="0 9.1666689 18.333338 30.83334">64GB</tspan></text>
</g><g transform="matrix(0.24,0,0,0.24,429.8081,-264.48)"><text transform="matrix(1,0,0,-1,0,2450)" class="c2"><tspan y="0" x="0 12.083336 23.333338 37.916676 47.083344">HBM2e</tspan></text>
</g><path d="m 417.3973,336.9551 v -2.4985 h -0.8 v 2.4985 z m -2,-0.8 1.6,3.2 1.6,-3.2 z m 3.2,-0.8985 -1.5999,-3.2 -1.6001,3.2 z" fill="#7beee4" /><path d="m 411.4955,337.0573 v -2.4985 h -0.8 v 2.4985 z m -2,-0.8001 1.6,3.2001 1.6,-3.2 z m 3.2,-0.8984 -1.5999,-3.2 -1.6001,3.2 z" fill="#7beee4" /><path d="m 423.4035,336.9231 v -2.4984 h -0.8 v 2.4984 z m -2,-0.8 1.5999,3.2 1.6001,-3.2 z m 3.2,-0.8984 -1.6,-3.2 -1.6,3.2 z" fill="#7beee4" /><path d="m 299.6764,349.2173 h 40.7924 v -10.6492 h -40.7924 z" fill="#f4a19b" /><g transform="matrix(0.24,0,0,0.24,300.7764,-245.76)"><text transform="matrix(1,0,0,-1,0,2450)" class="c2"><tspan y="0" x="0 10.833336 16.250004 25.000006 33.750008 42.500008">Stack </tspan></text>
</g><g transform="matrix(0.24,0,0,0.24,312.0764,-245.76)"><text transform="matrix(1,0,0,-1,0,2450)" class="c2"><tspan y="0" x="0">0</tspan></text>
</g><path d="m 318.7652,349.2173 h 21.7036 v -10.6492 h -21.7036 z" fill="#ff7900" /><g transform="matrix(0.24,0,0,0.24,324.569,-243.36)"><text transform="matrix(1,0,0,-1,0,2450)" class="c2"><tspan y="0" x="0 9.1666689 18.333338 30.83334">64GB</tspan></text>
</g><g transform="matrix(0.24,0,0,0.24,322.917,-248.16)"><text transform="matrix(1,0,0,-1,0,2450)" class="c2"><tspan y="0" x="0 12.083336 23.333338 37.916676 47.083344">HBM2e</tspan></text>
</g><path d="m 299.6764,332.9243 h 40.7924 v -10.6492 h -40.7924 z" fill="#f4a19b" /><g transform="matrix(0.24,0,0,0.24,300.7764,-262.08)"><text transform="matrix(1,0,0,-1,0,2450)" class="c2"><tspan y="0" x="0 10.833336 16.250004 25.000006 33.750008 42.500008">Stack </tspan></text>
</g><g transform="matrix(0.24,0,0,0.24,312.0764,-262.08)"><text transform="matrix(1,0,0,-1,0,2450)" class="c2"><tspan y="0" x="0">1</tspan></text>
</g><path d="m 318.7652,332.9243 h 21.7036 v -10.6492 h -21.7036 z" fill="#ff7900" /><g transform="matrix(0.24,0,0,0.24,324.569,-259.68)"><text transform="matrix(1,0,0,-1,0,2450)" class="c2"><tspan y="0" x="0 9.1666689 18.333338 30.83334">64GB</tspan></text>
</g><g transform="matrix(0.24,0,0,0.24,322.917,-264.48)"><text transform="matrix(1,0,0,-1,0,2450)" class="c2"><tspan y="0" x="0 12.083336 23.333338 37.916676 47.083344">HBM2e</tspan></text>
</g><path d="m 310.5063,336.8625 v -2.4984 h -0.8 v 2.4984 z m -2,-0.8 1.6,3.2 1.6,-3.2 z m 3.2,-0.8984 -1.6,-3.2 -1.6,3.2 z" fill="#7beee4" /><path d="m 304.6045,336.9647 v -2.4984 h -0.8 v 2.4984 z m -2,-0.8 1.6,3.2 1.6,-3.2 z m 3.2,-0.8984 -1.6,-3.2 -1.6,3.2 z" fill="#7beee4" /><path d="m 316.5124,336.8306 10e-5,-2.4985 h -0.8 l -10e-5,2.4985 z m -1.9999,-0.8 1.5999,3.2 1.6001,-3.2 z m 3.2,-0.8984 -1.6,-3.2001 -1.6,3.2 z" fill="#7beee4" /><path d="m 299.466,297.5526 h 40.7924 V 286.9034 H 299.466 Z" fill="#f4a19b" /><g transform="matrix(0.24,0,0,0.24,300.566,-297.36)"><text transform="matrix(1,0,0,-1,0,2450)" class="c2"><tspan y="0" x="0 10.833336 16.250004 25.000006 33.750008 42.500008">Stack </tspan></text>
</g><g transform="matrix(0.24,0,0,0.24,311.866,-297.36)"><text transform="matrix(1,0,0,-1,0,2450)" class="c2"><tspan y="0" x="0">0</tspan></text>
</g><path d="m 318.5548,297.5526 h 21.7036 v -10.6492 h -21.7036 z" fill="#ff7900" /><g transform="matrix(0.24,0,0,0.24,324.3586,-294.96)"><text transform="matrix(1,0,0,-1,0,2450)" class="c2"><tspan y="0" x="0 9.1666689 18.333338 30.83334">64GB</tspan></text>
</g><g transform="matrix(0.24,0,0,0.24,322.7066,-300)"><text transform="matrix(1,0,0,-1,0,2450)" class="c2"><tspan y="0" x="0 12.083336 23.333338 37.916676 47.083344">HBM2e</tspan></text>
</g><path d="m 299.466,281.2596 h 40.7924 V 270.6104 H 299.466 Z" fill="#f4a19b" /><g transform="matrix(0.24,0,0,0.24,300.566,-313.68)"><text transform="matrix(1,0,0,-1,0,2450)" class="c2"><tspan y="0" x="0 10.833336 16.250004 25.000006 33.750008 42.500008">Stack </tspan></text>
</g><g transform="matrix(0.24,0,0,0.24,311.866,-313.68)"><text transform="matrix(1,0,0,-1,0,2450)" class="c2"><tspan y="0" x="0">1</tspan></text>
</g><path d="m 318.5548,281.2596 h 21.7036 v -10.6492 h -21.7036 z" fill="#ff7900" /><g transform="matrix(0.24,0,0,0.24,324.3586,-311.28)"><text transform="matrix(1,0,0,-1,0,2450)" class="c2"><tspan y="0" x="0 9.1666689 18.333338 30.83334">64GB</tspan></text>
</g><g transform="matrix(0.24,0,0,0.24,322.7066,-316.32)"><text transform="matrix(1,0,0,-1,0,2450)" class="c2"><tspan y="0" x="0 12.083336 23.333338 37.916676 47.083344">HBM2e</tspan></text>
</g><path d="m 310.2959,285.1979 v -2.4985 h -0.8 v 2.4984 z m -2,-0.8001 1.6,3.2 1.6,-3.1999 z m 3.2,-0.8984 -1.6,-3.2 -1.6,3.2 z" fill="#7beee4" /><path d="m 304.3941,285.3 v -2.4984 h -0.8 V 285.3 Z m -2,-0.8 1.6,3.2 1.6,-3.2 z m 3.2,-0.8984 -1.6,-3.2 -1.6,3.2 z" fill="#7beee4" /><path d="m 316.3021,285.1659 v -2.4984 h -0.8 v 2.4984 z m -2,-0.8 1.5999,3.2 1.6001,-3.2 z m 3.2,-0.8984 -1.6,-3.2 -1.6,3.1999 z" fill="#7beee4" /><path d="m 406.5674,297.2484 h 40.7925 v -10.6492 h -40.7925 z" fill="#f4a19b" /><g transform="matrix(0.24,0,0,0.24,407.6674,-297.6)"><text transform="matrix(1,0,0,-1,0,2450)" class="c2"><tspan y="0" x="0 10.833336 16.250004 25.000006 33.750008 42.500008">Stack </tspan></text>
</g><g transform="matrix(0.24,0,0,0.24,418.9675,-297.6)"><text transform="matrix(1,0,0,-1,0,2450)" class="c2"><tspan y="0" x="0">0</tspan></text>
</g><path d="m 425.6563,297.2484 h 21.7036 v -10.6492 h -21.7036 z" fill="#ff7900" /><g transform="matrix(0.24,0,0,0.24,431.46,-295.2)"><text transform="matrix(1,0,0,-1,0,2450)" class="c2"><tspan y="0" x="0 9.1666689 18.333338 30.83334">64GB</tspan></text>
</g><g transform="matrix(0.24,0,0,0.24,429.8081,-300.24)"><text transform="matrix(1,0,0,-1,0,2450)" class="c2"><tspan y="0" x="0 12.083336 23.333338 37.916676 47.083344">HBM2e</tspan></text>
</g><path d="m 406.5674,280.9554 h 40.7925 v -10.6492 h -40.7925 z" fill="#f4a19b" /><g transform="matrix(0.24,0,0,0.24,407.6674,-313.92)"><text transform="matrix(1,0,0,-1,0,2450)" class="c2"><tspan y="0" x="0 10.833336 16.250004 25.000006 33.750008 42.500008">Stack </tspan></text>
</g><g transform="matrix(0.24,0,0,0.24,418.9675,-313.92)"><text transform="matrix(1,0,0,-1,0,2450)" class="c2"><tspan y="0" x="0">1</tspan></text>
</g><path d="m 425.6563,280.9554 h 21.7036 v -10.6492 h -21.7036 z" fill="#ff7900" /><g transform="matrix(0.24,0,0,0.24,431.46,-311.52)"><text transform="matrix(1,0,0,-1,0,2450)" class="c2"><tspan y="0" x="0 9.1666689 18.333338 30.83334">64GB</tspan></text>
</g><g transform="matrix(0.24,0,0,0.24,429.8081,-316.56)"><text transform="matrix(1,0,0,-1,0,2450)" class="c2"><tspan y="0" x="0 12.083336 23.333338 37.916676 47.083344">HBM2e</tspan></text>
</g><path d="m 417.3973,284.8937 v -2.4985 h -0.8 v 2.4985 z m -2,-0.8001 1.6,3.2001 1.6,-3.2 z m 3.2,-0.8984 -1.5999,-3.2 -1.6001,3.2 z" fill="#7beee4" /><path d="m 411.4955,284.9958 v -2.4984 h -0.8 v 2.4984 z m -2,-0.8 1.6,3.2 1.6,-3.2 z m 3.2,-0.8984 -1.5999,-3.2 -1.6001,3.2 z" fill="#7beee4" /><path d="m 423.4035,284.8617 v -2.4984 h -0.8 v 2.4984 z m -2,-0.8 1.5999,3.2 1.6001,-3.2 z m 3.2,-0.8984 -1.6,-3.2 -1.6,3.2 z" fill="#7beee4" /><path d="m 352.916,267.155 h 40.7925 V 256.5058 H 352.916 Z" fill="#f4a19b" /><g transform="matrix(0.24,0,0,0.24,354.016,-327.84)"><text transform="matrix(1,0,0,-1,0,2450)" class="c2"><tspan y="0" x="0 10.833336 16.250004 25.000006 33.750008 42.500008">Stack </tspan></text>
</g><g transform="matrix(0.24,0,0,0.24,365.3161,-327.84)"><text transform="matrix(1,0,0,-1,0,2450)" class="c2"><tspan y="0" x="0">0</tspan></text>
</g><path d="m 372.0049,267.155 h 21.7036 v -10.6492 h -21.7036 z" fill="#ff7900" /><g transform="matrix(0.24,0,0,0.24,377.8087,-325.44)"><text transform="matrix(1,0,0,-1,0,2450)" class="c2"><tspan y="0" x="0 9.1666689 18.333338 30.83334">64GB</tspan></text>
</g><g transform="matrix(0.24,0,0,0.24,376.1566,-330.24)"><text transform="matrix(1,0,0,-1,0,2450)" class="c2"><tspan y="0" x="0 12.083336 23.333338 37.916676 47.083344">HBM2e</tspan></text>
</g><path d="m 352.916,250.862 h 40.7925 V 240.2128 H 352.916 Z" fill="#f4a19b" /><g transform="matrix(0.24,0,0,0.24,354.016,-343.92)"><text transform="matrix(1,0,0,-1,0,2450)" class="c2"><tspan y="0" x="0 10.833336 16.250004 25.000006 33.750008 42.500008">Stack </tspan></text>
</g><g transform="matrix(0.24,0,0,0.24,365.3161,-343.92)"><text transform="matrix(1,0,0,-1,0,2450)" class="c2"><tspan y="0" x="0">1</tspan></text>
</g><path d="m 372.0049,250.862 h 21.7036 v -10.6492 h -21.7036 z" fill="#ff7900" /><g transform="matrix(0.24,0,0,0.24,377.8087,-341.52)"><text transform="matrix(1,0,0,-1,0,2450)" class="c2"><tspan y="0" x="0 9.1666689 18.333338 30.83334">64GB</tspan></text>
</g><g transform="matrix(0.24,0,0,0.24,376.1566,-346.56)"><text transform="matrix(1,0,0,-1,0,2450)" class="c2"><tspan y="0" x="0 12.083336 23.333338 37.916676 47.083344">HBM2e</tspan></text>
</g><path d="m 363.7459,254.8002 v -2.4984 h -0.8 v 2.4984 z m -2,-0.8 1.6,3.2 1.6,-3.1999 z m 3.2,-0.8984 -1.6,-3.2 -1.6,3.2 z" fill="#7beee4" /><path d="m 357.8441,254.9024 v -2.4984 l -0.8,-1e-4 v 2.4985 z m -2,-0.8 1.6,3.2 1.6,-3.2 z m 3.2,-0.8984 -1.6,-3.2001 -1.6,3.2 z" fill="#7beee4" /><path d="m 369.7521,254.7683 v -2.4984 h -0.8 v 2.4984 z m -2,-0.8 1.6,3.2 1.6,-3.2 z m 3.2,-0.8984 -1.6,-3.2 -1.6,3.1999 z" fill="#7beee4" /><path d="m 471.843,382.7405 1.0819,-135.5075 -1.1999,-0.01 -1.0819,135.5075 z m -2.9935,-0.8238 2.3744,3.219 2.4254,-3.1807 z m 5.869,-133.8692 -2.3744,-3.219 -2.4254,3.1807 z" fill="#9b21ff" /><g transform="matrix(0.24,0,0,0.24,473.8244,-153.6)"><text transform="matrix(1,0,0,-1,0,2450)" class="c8"><tspan y="0" x="0 12.9175 25.01 37.927502 50.845001 68.762497">8x35GB</tspan></text>
</g><g transform="matrix(0.24,0,0,0.24,494.1244,-153.6)"><text transform="matrix(1,0,0,-1,0,2450)" class="c8"><tspan y="0" x="0">/</tspan></text>
</g><g transform="matrix(0.24,0,0,0.24,496.0244,-153.6)"><text transform="matrix(1,0,0,-1,0,2450)" class="c8"><tspan y="0" x="0">s</tspan></text>
</g><g transform="matrix(0.24,0,0,0.24,473.8243,-396.24)"><text transform="matrix(1,0,0,-1,0,2450)" class="c8"><tspan y="0" x="0 12.9175 25.01 37.927502 50.845001 68.762497">8x35GB</tspan></text>
</g><g transform="matrix(0.24,0,0,0.24,494.1243,-396.24)"><text transform="matrix(1,0,0,-1,0,2450)" class="c8"><tspan y="0" x="0">/</tspan></text>
</g><g transform="matrix(0.24,0,0,0.24,496.0243,-396.24)"><text transform="matrix(1,0,0,-1,0,2450)" class="c8"><tspan y="0" x="0">s</tspan></text>
</g><g transform="matrix(0.24,0,0,0.24,416.4592,-402.96)"><text transform="matrix(1,0,0,-1,0,2450)" class="c9"><tspan y="0" x="0 12.9175 25.834999 43.752499 59.595001 67.512497">32GB/s</tspan></text>
</g><path d="m 347.8467,326.1219 h 52.1241 v -26.1731 h -52.1241 z" fill="#ffffff" /><g transform="matrix(0.24,0,0,0.24,364.4108,-270.72)"><text transform="matrix(1,0,0,-1,0,2450)" class="c10"><tspan y="0" x="0">2</tspan></text>
</g><g transform="matrix(0.24,0,0,0.24,367.5107,-270.72)"><text transform="matrix(1,0,0,-1,0,2450)" class="c10"><tspan y="0" x="0">8</tspan></text>
</g><g transform="matrix(0.24,0,0,0.24,370.6108,-270.72)"><text transform="matrix(1,0,0,-1,0,2450)" class="c10"><tspan y="0" x="0 17.9175">GB</tspan></text>
</g><g transform="matrix(0.24,0,0,0.24,378.7108,-270.72)"><text transform="matrix(1,0,0,-1,0,2450)" class="c10"><tspan y="0" x="0 7.9175">/s</tspan></text>
</g><g transform="matrix(0.24,0,0,0.24,362.9108,-276.72)"><text transform="matrix(1,0,0,-1,0,2450)" class="c10"><tspan y="0" x="0 15 27.5 35.424999 42.099998 55.025002 60.025002 72.949997 85.025002">Per Link </tspan></text>
</g><g transform="matrix(0.24,0,0,0.24,353.8588,-283.68)"><text transform="matrix(1,0,0,-1,0,2450)" class="c10"><tspan y="0" x="0 13.75 26.25 33.75 51.25 63.75 76.25 89.175003 95.849998 110.85 118.35 130.85001 143.35001 155.425">between Stacks</tspan></text>
</g><g transform="matrix(0.24,0,0,0.24,416.7209,-147.6)"><text transform="matrix(1,0,0,-1,0,2450)" class="c9"><tspan y="0" x="0 12.9175 25.834999 43.752499 59.595001 67.512497">32GB/s</tspan></text>
</g><g transform="matrix(0.24,0,0,0.24,322.0339,-184.32)"><text transform="matrix(1,0,0,-1,0,2450)" class="c11"><tspan y="0" x="0 12.9175 25.834999 43.752499 59.595001 67.512497">64GB/s</tspan></text>
</g><g transform="matrix(0.24,0,0,0.24,321.4834,-364.56)"><text transform="matrix(1,0,0,-1,0,2450)" class="c11"><tspan y="0" x="0 12.9175 25.834999 43.752499 59.595001 67.512497">64GB/s</tspan></text>
</g><g transform="matrix(0,0.24,-0.24,0,1067.621,303.6)"><text transform="matrix(1,0,0,-1,0,2450)" class="c12"><tspan y="0" x="0 16.6675 31.66 37.9025 44.57 57.487499 70.404999 88.322502 104.165 112.0825">UPI 48GB/s</tspan></text>
</g><g transform="matrix(0.24,0,0,0.24,297.4024,-97.68)"><text transform="matrix(1,0,0,-1,0,2450)" class="c7"><tspan y="0" x="0 12.9175 25.834999 43.752499 59.595001 67.512497">25GB/s</tspan></text>
</g><g transform="matrix(0.24,0,0,0.24,401.6616,-374.88)"><text transform="matrix(1,0,0,-1,0,2450)" class="c11"><tspan y="0" x="0 12.9175 25.834999 43.752499 59.595001 67.512497">64GB/s</tspan></text>
</g><g transform="matrix(0.24,0,0,0.24,401.6616,-174.48)"><text transform="matrix(1,0,0,-1,0,2450)" class="c11"><tspan y="0" x="0 12.9175 25.834999 43.752499 59.595001 67.512497">64GB/s</tspan></text>
</g><g transform="matrix(0.24,0,0,0.24,339.2641,-97.68)"><text transform="matrix(1,0,0,-1,0,2450)" class="c7"><tspan y="0" x="0 12.9175 25.834999 43.752499 59.595001 67.512497">25GB/s</tspan></text>
</g><g transform="matrix(0.24,0,0,0.24,375.7987,-189.12)"><text transform="matrix(1,0,0,-1,0,2450)" class="c11"><tspan y="0" x="0 12.9175 25.834999 43.752499 59.595001 67.512497">64GB/s</tspan></text>
</g><g transform="matrix(0.24,0,0,0.24,428.1253,-195.12)"><text transform="matrix(1,0,0,-1,0,2450)" class="c11"><tspan y="0" x="0 12.9175 25.834999 43.752499 59.595001 67.512497">64GB/s</tspan></text>
</g><g transform="matrix(0.24,0,0,0.24,402.1793,-157.44)"><text transform="matrix(1,0,0,-1,0,2450)" class="c11"><tspan y="0" x="0 12.9175 25.834999 43.752499 59.595001 67.512497">64GB/s</tspan></text>
</g><g transform="matrix(0.24,0,0,0.24,376.5431,-143.76)"><text transform="matrix(1,0,0,-1,0,2450)" class="c9"><tspan y="0" x="0 12.9175 25.834999 43.752499 59.595001 67.512497">32GB/s</tspan></text>
</g><g transform="matrix(0.24,0,0,0.24,324.6973,-144.48)"><text transform="matrix(1,0,0,-1,0,2450)" class="c9"><tspan y="0" x="0 12.9175 25.834999 43.752499 59.595001 67.512497">32GB/s</tspan></text>
</g><g transform="matrix(0.24,0,0,0.24,283.6542,-147.12)"><text transform="matrix(1,0,0,-1,0,2450)" class="c9"><tspan y="0" x="0 12.9175 25.834999 43.752499 59.595001 67.512497">32GB/s</tspan></text>
</g><g transform="matrix(0.24,0,0,0.24,324.6562,-404.88)"><text transform="matrix(1,0,0,-1,0,2450)" class="c9"><tspan y="0" x="0 12.9175 25.834999 43.752499 59.595001 67.512497">32GB/s</tspan></text>
</g><g transform="matrix(0.24,0,0,0.24,283.1183,-404.16)"><text transform="matrix(1,0,0,-1,0,2450)" class="c9"><tspan y="0" x="0 12.9175 25.834999 43.752499 59.595001 67.512497">32GB/s</tspan></text>
</g><g transform="matrix(0.24,0,0,0.24,375.4666,-406.8)"><text transform="matrix(1,0,0,-1,0,2450)" class="c9"><tspan y="0" x="0 12.9175 25.834999 43.752499 59.595001 67.512497">32GB/s</tspan></text>
</g><g transform="matrix(0.24,0,0,0.24,393.4924,-97.68)"><text transform="matrix(1,0,0,-1,0,2450)" class="c7"><tspan y="0" x="0 12.9175 25.834999 43.752499 59.595001 67.512497">25GB/s</tspan></text>
</g><g transform="matrix(0.24,0,0,0.24,435.2069,-97.68)"><text transform="matrix(1,0,0,-1,0,2450)" class="c7"><tspan y="0" x="0 12.9175 25.834999 43.752499 59.595001 67.512497">25GB/s</tspan></text>
</g><g transform="matrix(0.24,0,0,0.24,339.2641,-453.12)"><text transform="matrix(1,0,0,-1,0,2450)" class="c7"><tspan y="0" x="0 12.9175 25.834999 43.752499 59.595001 67.512497">25GB/s</tspan></text>
</g><g transform="matrix(0.24,0,0,0.24,393.4924,-453.12)"><text transform="matrix(1,0,0,-1,0,2450)" class="c7"><tspan y="0" x="0 12.9175 25.834999 43.752499 59.595001 67.512497">25GB/s</tspan></text>
</g><g transform="matrix(0.24,0,0,0.24,435.2069,-453.12)"><text transform="matrix(1,0,0,-1,0,2450)" class="c7"><tspan y="0" x="0 12.9175 25.834999 43.752499 59.595001 67.512497">25GB/s</tspan></text>
</g><g transform="matrix(0.24,0,0,0.24,401.8852,-392.4)"><text transform="matrix(1,0,0,-1,0,2450)" class="c11"><tspan y="0" x="0 12.9175 25.834999 43.752499 59.595001 67.512497">64GB/s</tspan></text>
</g><g transform="matrix(0.24,0,0,0.24,428.7778,-351.84)"><text transform="matrix(1,0,0,-1,0,2450)" class="c11"><tspan y="0" x="0 12.9175 25.834999 43.752499 59.595001 67.512497">64GB/s</tspan></text>
</g><g transform="matrix(0.24,0,0,0.24,375.393,-358.32)"><text transform="matrix(1,0,0,-1,0,2450)" class="c11"><tspan y="0" x="0 12.9175 25.834999 43.752499 59.595001 67.512497">64GB/s</tspan></text>
</g><path d="m 472.7862,474.3199 h 37.0887 V 454.53 h -37.0887 z" fill="#ed7d31" /><g transform="matrix(0.24,0,0,0.24,482.6306,-122.88)"><text transform="matrix(1,0,0,-1,0,2450)" class="c5"><tspan y="0" x="0 12.9175 25.834999 38.752499 56.669998 72.512497">512GB </tspan></text>
</g><g transform="matrix(0.24,0,0,0.24,483.9826,-128.88)"><text transform="matrix(1,0,0,-1,0,2450)" class="c5"><tspan y="0" x="0 16.25 32.5 48.325001">DDR5</tspan></text>
</g><path d="m 287.4006,175.7458 h 40.6192 v -23.7853 h -40.6192 z" fill="#70ad47" /><g transform="matrix(6.299212e-5,0,0,-6.299212e-5,287.4006,175.7458)"><path d="M 0,0 H 644829 V 377591 H 0 Z" class="c13" /></g><g transform="matrix(0.24,0,0,0.24,299.2602,-429.36)"><text transform="matrix(1,0,0,-1,0,2450)" class="c5"><tspan y="0" x="0 12.9175 25.834999 38.752499 56.669998">200Gb</tspan></text>
</g><path d="m 328.0198,175.7458 h 40.1361 v -23.7853 h -40.1361 z" fill="#70ad47" /><g transform="matrix(6.299212e-5,0,0,-6.299212e-5,328.0198,175.7458)"><path d="M 0,0 H 637160 V 377591 H 0 Z" class="c13" /></g><g transform="matrix(0.24,0,0,0.24,339.6379,-429.36)"><text transform="matrix(1,0,0,-1,0,2450)" class="c5"><tspan y="0" x="0 12.9175 25.834999 38.752499 56.669998">200Gb</tspan></text>
</g><path d="m 290.2478,175.2001 h 75.3487 v -12.6019 h -75.3487 z" fill="#70ad47" /><g transform="matrix(0.24,0,0,0.24,296.0078,-421.68)"><text transform="matrix(1,0,0,-1,0,2450)" class="c5"><tspan y="0" x="0 16.6675 31.66 45.827499 52.494999 69.162498 81.654999 93.322502 104.99 109.9825 122.9 127.8925 141.22749 157.895 164.1375 180.80499">HPE Cassini NIC </tspan></text>
</g><g transform="matrix(0.24,0,0,0.24,341.0078,-421.68)"><text transform="matrix(1,0,0,-1,0,2450)" class="c5"><tspan y="0" x="0 12.9175 25.01">2x </tspan></text>
</g><g transform="matrix(0.24,0,0,0.24,348.6078,-421.68)"><text transform="matrix(1,0,0,-1,0,2450)" class="c5"><tspan y="0" x="0 15 28.325001 36.25">Port</tspan></text>
</g><path d="m 382.6434,176.1524 h 40.6191 v -23.7853 h -40.6191 z" fill="#70ad47" /><g transform="matrix(6.299212e-5,0,0,-6.299212e-5,382.6434,176.1524)"><path d="M 0,0 H 644829 V 377591 H 0 Z" class="c13" /></g><g transform="matrix(0.24,0,0,0.24,394.503,-428.88)"><text transform="matrix(1,0,0,-1,0,2450)" class="c5"><tspan y="0" x="0 12.9175 25.834999 38.752499 56.669998">200Gb</tspan></text>
</g><path d="m 423.2626,176.1524 h 40.1361 v -23.7853 h -40.1361 z" fill="#70ad47" /><g transform="matrix(6.299212e-5,0,0,-6.299212e-5,423.2626,176.1524)"><path d="M 0,0 H 637160 V 377591 H 0 Z" class="c13" /></g><g transform="matrix(0.24,0,0,0.24,434.8806,-428.88)"><text transform="matrix(1,0,0,-1,0,2450)" class="c5"><tspan y="0" x="0 12.9175 25.834999 38.752499 56.669998">200Gb</tspan></text>
</g><path d="m 385.7255,175.7607 h 75.3488 v -12.6019 h -75.3488 z" fill="#70ad47" /><g transform="matrix(0.24,0,0,0.24,391.4855,-420.96)"><text transform="matrix(1,0,0,-1,0,2450)" class="c5"><tspan y="0" x="0 16.6675 31.66 45.827499 52.494999 69.162498 81.654999 93.322502 104.99 109.9825 122.9 127.8925 141.22749 157.895 164.1375 180.80499">HPE Cassini NIC </tspan></text>
</g><g transform="matrix(0.24,0,0,0.24,436.4855,-420.96)"><text transform="matrix(1,0,0,-1,0,2450)" class="c5"><tspan y="0" x="0 12.9175 25.01">2x </tspan></text>
</g><g transform="matrix(0.24,0,0,0.24,444.0856,-420.96)"><text transform="matrix(1,0,0,-1,0,2450)" class="c5"><tspan y="0" x="0 15 28.325001 36.25">Port</tspan></text>
</g><path d="m 287.5446,477.1548 h 40.6191 v -23.7852 h -40.6191 z" fill="#70ad47" /><g transform="matrix(6.299212e-5,0,0,-6.299212e-5,287.5446,477.1548)"><path d="M 0,0 H 644829 V 377591 H 0 Z" class="c13" /></g><g transform="matrix(0.24,0,0,0.24,299.4041,-119.76)"><text transform="matrix(1,0,0,-1,0,2450)" class="c5"><tspan y="0" x="0 12.9175 25.834999 38.752499 56.669998">200Gb</tspan></text>
</g><path d="m 328.1638,477.1548 h 40.136 v -23.7852 h -40.136 z" fill="#70ad47" /><g transform="matrix(6.299212e-5,0,0,-6.299212e-5,328.1638,477.1548)"><path d="M 0,0 H 637160 V 377591 H 0 Z" class="c13" /></g><g transform="matrix(0.24,0,0,0.24,339.7818,-119.76)"><text transform="matrix(1,0,0,-1,0,2450)" class="c5"><tspan y="0" x="0 12.9175 25.834999 38.752499 56.669998">200Gb</tspan></text>
</g><path d="m 288.9734,466.2585 h 75.3487 v -12.6019 h -75.3487 z" fill="#70ad47" /><g transform="matrix(0.24,0,0,0.24,294.7334,-130.56)"><text transform="matrix(1,0,0,-1,0,2450)" class="c5"><tspan y="0" x="0 16.6675 31.66 45.827499 52.494999 69.162498 81.654999 93.322502 104.99 109.9825 122.9 127.8925 141.22749 157.895 164.1375 180.80499">HPE Cassini NIC </tspan></text>
</g><g transform="matrix(0.24,0,0,0.24,339.7334,-130.56)"><text transform="matrix(1,0,0,-1,0,2450)" class="c5"><tspan y="0" x="0 12.9175 25.01">2x </tspan></text>
</g><g transform="matrix(0.24,0,0,0.24,347.3334,-130.56)"><text transform="matrix(1,0,0,-1,0,2450)" class="c5"><tspan y="0" x="0 15 28.325001 36.25">Port</tspan></text>
</g><path d="m 382.7873,476.902 h 40.6192 v -23.7853 h -40.6192 z" fill="#70ad47" /><g transform="matrix(6.299212e-5,0,0,-6.299212e-5,382.7873,476.902)"><path d="M 0,0 H 644829 V 377591 H 0 Z" class="c13" /></g><g transform="matrix(0.24,0,0,0.24,394.6469,-120)"><text transform="matrix(1,0,0,-1,0,2450)" class="c5"><tspan y="0" x="0 12.9175 25.834999 38.752499 56.669998">200Gb</tspan></text>
</g><path d="m 423.4065,476.902 h 40.1361 v -23.7853 h -40.1361 z" fill="#70ad47" /><g transform="matrix(6.299212e-5,0,0,-6.299212e-5,423.4065,476.902)"><path d="M 0,0 H 637160 V 377591 H 0 Z" class="c13" /></g><g transform="matrix(0.24,0,0,0.24,435.0246,-120)"><text transform="matrix(1,0,0,-1,0,2450)" class="c5"><tspan y="0" x="0 12.9175 25.834999 38.752499 56.669998">200Gb</tspan></text>
</g><path d="m 385.085,465.9703 h 75.3487 V 453.3684 H 385.085 Z" fill="#70ad47" /><g transform="matrix(0.24,0,0,0.24,390.845,-130.8)"><text transform="matrix(1,0,0,-1,0,2450)" class="c5"><tspan y="0" x="0 16.6675 31.66 45.827499 52.494999 69.162498 81.654999 93.322502 104.99 109.9825 122.9 127.8925 141.22749 157.895 164.1375 180.80499">HPE Cassini NIC </tspan></text>
</g><g transform="matrix(0.24,0,0,0.24,435.845,-130.8)"><text transform="matrix(1,0,0,-1,0,2450)" class="c5"><tspan y="0" x="0 12.9175 25.01">2x </tspan></text>
</g><g transform="matrix(0.24,0,0,0.24,443.445,-130.8)"><text transform="matrix(1,0,0,-1,0,2450)" class="c5"><tspan y="0" x="0 15 28.325001 36.25">Port</tspan></text>
</g></g></g></g></svg>