<?xml version="1.0" encoding="utf-8" standalone="no"?>
<!DOCTYPE svg PUBLIC "-//W3C//DTD SVG 1.1//EN"
  "http://www.w3.org/Graphics/SVG/1.1/DTD/svg11.dtd">
<!-- Created with matplotlib (https://matplotlib.org/) -->
<svg height="304.237707pt" version="1.1" viewBox="0 0 493.59275 304.237707" width="493.59275pt" xmlns="http://www.w3.org/2000/svg" xmlns:xlink="http://www.w3.org/1999/xlink">
 <metadata>
  <rdf:RDF xmlns:cc="http://creativecommons.org/ns#" xmlns:dc="http://purl.org/dc/elements/1.1/" xmlns:rdf="http://www.w3.org/1999/02/22-rdf-syntax-ns#">
   <cc:Work>
    <dc:type rdf:resource="http://purl.org/dc/dcmitype/StillImage"/>
    <dc:date>2025-09-22T19:52:08.617972</dc:date>
    <dc:format>image/svg+xml</dc:format>
    <dc:creator>
     <cc:Agent>
      <dc:title>Matplotlib v3.3.4, https://matplotlib.org/</dc:title>
     </cc:Agent>
    </dc:creator>
   </cc:Work>
  </rdf:RDF>
 </metadata>
 <defs>
  <style type="text/css">*{stroke-linecap:butt;stroke-linejoin:round;}</style>
 </defs>
 <g id="figure_1">
  <g id="patch_1">
   <path d="M 0 304.237707 
L 493.59275 304.237707 
L 493.59275 0 
L 0 0 
z
" style="fill:#ffffff;"/>
  </g>
  <g id="axes_1">
   <g id="patch_2">
    <path d="M 41.51275 118.868142 
L 240.71775 118.868142 
L 240.71775 1.983577 
L 41.51275 1.983577 
z
" style="fill:#ffffff;"/>
   </g>
   <g id="matplotlib.axis_1">
    <g id="xtick_1">
     <g id="line2d_1">
      <defs>
       <path d="M 0 0 
L 0 3.5 
" id="m7e733df901" style="stroke:#000000;stroke-width:0.8;"/>
      </defs>
      <g>
       <use style="stroke:#000000;stroke-width:0.8;" x="67.030746" xlink:href="#m7e733df901" y="118.868142"/>
      </g>
     </g>
     <g id="text_1">
      <!-- 2 -->
      <g transform="translate(64.644808 131.56697)scale(0.075 -0.075)">
       <defs>
        <path d="M 12.796875 55.515625 
L 7.328125 55.515625 
L 7.328125 68.5 
Q 12.546875 71.296875 17.84375 72.75 
Q 23.140625 74.21875 28.21875 74.21875 
Q 39.59375 74.21875 46.1875 68.703125 
Q 52.78125 63.1875 52.78125 53.71875 
Q 52.78125 43.015625 37.84375 28.125 
Q 36.671875 27 36.078125 26.421875 
L 17.671875 8.015625 
L 48.09375 8.015625 
L 48.09375 17 
L 53.8125 17 
L 53.8125 0 
L 6.78125 0 
L 6.78125 5.328125 
L 28.90625 27.390625 
Q 36.234375 34.71875 39.359375 40.84375 
Q 42.484375 46.96875 42.484375 53.71875 
Q 42.484375 61.078125 38.640625 65.234375 
Q 34.8125 69.390625 28.078125 69.390625 
Q 21.09375 69.390625 17.28125 65.921875 
Q 13.484375 62.453125 12.796875 55.515625 
z
" id="DejaVuSerif-50"/>
       </defs>
       <use xlink:href="#DejaVuSerif-50"/>
      </g>
     </g>
    </g>
    <g id="xtick_2">
     <g id="line2d_2">
      <g>
       <use style="stroke:#000000;stroke-width:0.8;" x="99.957192" xlink:href="#m7e733df901" y="118.868142"/>
      </g>
     </g>
     <g id="text_2">
      <!-- 4 -->
      <g transform="translate(97.571255 131.56697)scale(0.075 -0.075)">
       <defs>
        <path d="M 34.90625 24.703125 
L 34.90625 63.484375 
L 10.015625 24.703125 
z
M 56.390625 0 
L 23.1875 0 
L 23.1875 5.171875 
L 34.90625 5.171875 
L 34.90625 19.484375 
L 3.078125 19.484375 
L 3.078125 24.8125 
L 35.015625 74.21875 
L 44.671875 74.21875 
L 44.671875 24.703125 
L 58.59375 24.703125 
L 58.59375 19.484375 
L 44.671875 19.484375 
L 44.671875 5.171875 
L 56.390625 5.171875 
z
" id="DejaVuSerif-52"/>
       </defs>
       <use xlink:href="#DejaVuSerif-52"/>
      </g>
     </g>
    </g>
    <g id="xtick_3">
     <g id="line2d_3">
      <g>
       <use style="stroke:#000000;stroke-width:0.8;" x="132.883638" xlink:href="#m7e733df901" y="118.868142"/>
      </g>
     </g>
     <g id="text_3">
      <!-- 6 -->
      <g transform="translate(130.497701 131.56697)scale(0.075 -0.075)">
       <defs>
        <path d="M 32.71875 3.421875 
Q 39.59375 3.421875 43.296875 8.46875 
Q 47.015625 13.53125 47.015625 23 
Q 47.015625 32.46875 43.296875 37.515625 
Q 39.59375 42.578125 32.71875 42.578125 
Q 25.734375 42.578125 22.0625 37.6875 
Q 18.40625 32.8125 18.40625 23.578125 
Q 18.40625 13.875 22.109375 8.640625 
Q 25.828125 3.421875 32.71875 3.421875 
z
M 16.796875 40.140625 
Q 20.125 43.796875 24.3125 45.59375 
Q 28.515625 47.40625 33.796875 47.40625 
Q 44.671875 47.40625 51 40.859375 
Q 57.328125 34.328125 57.328125 23 
Q 57.328125 11.921875 50.515625 5.25 
Q 43.703125 -1.421875 32.328125 -1.421875 
Q 19.96875 -1.421875 13.328125 7.78125 
Q 6.6875 17 6.6875 34.078125 
Q 6.6875 53.21875 14.546875 63.71875 
Q 22.40625 74.21875 36.71875 74.21875 
Q 40.578125 74.21875 44.828125 73.484375 
Q 49.078125 72.75 53.515625 71.296875 
L 53.515625 59.28125 
L 48 59.28125 
Q 47.40625 64.203125 44.234375 66.796875 
Q 41.0625 69.390625 35.6875 69.390625 
Q 26.21875 69.390625 21.578125 62.203125 
Q 16.9375 55.03125 16.796875 40.140625 
z
" id="DejaVuSerif-54"/>
       </defs>
       <use xlink:href="#DejaVuSerif-54"/>
      </g>
     </g>
    </g>
    <g id="xtick_4">
     <g id="line2d_4">
      <g>
       <use style="stroke:#000000;stroke-width:0.8;" x="165.810085" xlink:href="#m7e733df901" y="118.868142"/>
      </g>
     </g>
     <g id="text_4">
      <!-- 8 -->
      <g transform="translate(163.424147 131.56697)scale(0.075 -0.075)">
       <defs>
        <path d="M 46.578125 19.921875 
Q 46.578125 27.734375 42.6875 32.046875 
Q 38.8125 36.375 31.78125 36.375 
Q 24.75 36.375 20.875 32.046875 
Q 17 27.734375 17 19.921875 
Q 17 12.0625 20.875 7.734375 
Q 24.75 3.421875 31.78125 3.421875 
Q 38.8125 3.421875 42.6875 7.734375 
Q 46.578125 12.0625 46.578125 19.921875 
z
M 44.578125 55.328125 
Q 44.578125 61.96875 41.203125 65.671875 
Q 37.84375 69.390625 31.78125 69.390625 
Q 25.78125 69.390625 22.390625 65.671875 
Q 19 61.96875 19 55.328125 
Q 19 48.640625 22.390625 44.921875 
Q 25.78125 41.21875 31.78125 41.21875 
Q 37.84375 41.21875 41.203125 44.921875 
Q 44.578125 48.640625 44.578125 55.328125 
z
M 39.3125 38.8125 
Q 47.609375 37.703125 52.25 32.6875 
Q 56.890625 27.6875 56.890625 19.921875 
Q 56.890625 9.671875 50.390625 4.125 
Q 43.890625 -1.421875 31.78125 -1.421875 
Q 19.734375 -1.421875 13.203125 4.125 
Q 6.6875 9.671875 6.6875 19.921875 
Q 6.6875 27.6875 11.328125 32.6875 
Q 15.96875 37.703125 24.3125 38.8125 
Q 16.9375 40.140625 13 44.40625 
Q 9.078125 48.6875 9.078125 55.328125 
Q 9.078125 64.109375 15.125 69.15625 
Q 21.1875 74.21875 31.78125 74.21875 
Q 42.390625 74.21875 48.4375 69.15625 
Q 54.5 64.109375 54.5 55.328125 
Q 54.5 48.6875 50.5625 44.40625 
Q 46.625 40.140625 39.3125 38.8125 
z
" id="DejaVuSerif-56"/>
       </defs>
       <use xlink:href="#DejaVuSerif-56"/>
      </g>
     </g>
    </g>
    <g id="xtick_5">
     <g id="line2d_5">
      <g>
       <use style="stroke:#000000;stroke-width:0.8;" x="198.736531" xlink:href="#m7e733df901" y="118.868142"/>
      </g>
     </g>
     <g id="text_5">
      <!-- 10 -->
      <g transform="translate(193.964656 131.56697)scale(0.075 -0.075)">
       <defs>
        <path d="M 14.203125 0 
L 14.203125 5.171875 
L 26.90625 5.171875 
L 26.90625 65.828125 
L 12.203125 56.296875 
L 12.203125 62.703125 
L 29.984375 74.21875 
L 36.71875 74.21875 
L 36.71875 5.171875 
L 49.421875 5.171875 
L 49.421875 0 
z
" id="DejaVuSerif-49"/>
        <path d="M 31.78125 3.421875 
Q 39.265625 3.421875 42.96875 11.625 
Q 46.6875 19.828125 46.6875 36.375 
Q 46.6875 52.984375 42.96875 61.1875 
Q 39.265625 69.390625 31.78125 69.390625 
Q 24.3125 69.390625 20.59375 61.1875 
Q 16.890625 52.984375 16.890625 36.375 
Q 16.890625 19.828125 20.59375 11.625 
Q 24.3125 3.421875 31.78125 3.421875 
z
M 31.78125 -1.421875 
Q 19.921875 -1.421875 13.25 8.53125 
Q 6.59375 18.5 6.59375 36.375 
Q 6.59375 54.296875 13.25 64.25 
Q 19.921875 74.21875 31.78125 74.21875 
Q 43.703125 74.21875 50.34375 64.25 
Q 56.984375 54.296875 56.984375 36.375 
Q 56.984375 18.5 50.34375 8.53125 
Q 43.703125 -1.421875 31.78125 -1.421875 
z
" id="DejaVuSerif-48"/>
       </defs>
       <use xlink:href="#DejaVuSerif-49"/>
       <use x="63.623047" xlink:href="#DejaVuSerif-48"/>
      </g>
     </g>
    </g>
    <g id="xtick_6">
     <g id="line2d_6">
      <g>
       <use style="stroke:#000000;stroke-width:0.8;" x="231.662977" xlink:href="#m7e733df901" y="118.868142"/>
      </g>
     </g>
     <g id="text_6">
      <!-- 12 -->
      <g transform="translate(226.891102 131.56697)scale(0.075 -0.075)">
       <use xlink:href="#DejaVuSerif-49"/>
       <use x="63.623047" xlink:href="#DejaVuSerif-50"/>
      </g>
     </g>
    </g>
    <g id="text_7">
     <!-- Concurrent Allreduce Processes -->
     <g transform="translate(71.634391 143.585408)scale(0.085 -0.085)">
      <defs>
       <path d="M 70.515625 19.28125 
Q 67.28125 9.078125 59.6875 3.828125 
Q 52.09375 -1.421875 40.484375 -1.421875 
Q 33.34375 -1.421875 27.234375 1.015625 
Q 21.140625 3.46875 16.40625 8.203125 
Q 10.9375 13.671875 8.265625 20.625 
Q 5.609375 27.59375 5.609375 36.375 
Q 5.609375 53.375 15.421875 63.796875 
Q 25.25 74.21875 41.3125 74.21875 
Q 47.265625 74.21875 54 72.65625 
Q 60.75 71.09375 68.5 67.921875 
L 68.5 51.125 
L 62.984375 51.125 
Q 61.1875 60.296875 55.734375 64.640625 
Q 50.296875 69 40.484375 69 
Q 28.8125 69 22.796875 60.71875 
Q 16.796875 52.4375 16.796875 36.375 
Q 16.796875 20.359375 22.796875 12.078125 
Q 28.8125 3.8125 40.484375 3.8125 
Q 48.640625 3.8125 53.90625 7.6875 
Q 59.1875 11.578125 61.53125 19.28125 
z
" id="DejaVuSerif-67"/>
       <path d="M 30.078125 3.421875 
Q 37.3125 3.421875 40.984375 9.125 
Q 44.671875 14.84375 44.671875 25.984375 
Q 44.671875 37.109375 40.984375 42.796875 
Q 37.3125 48.484375 30.078125 48.484375 
Q 22.859375 48.484375 19.171875 42.796875 
Q 15.484375 37.109375 15.484375 25.984375 
Q 15.484375 14.84375 19.1875 9.125 
Q 22.90625 3.421875 30.078125 3.421875 
z
M 30.078125 -1.421875 
Q 18.75 -1.421875 11.859375 6.078125 
Q 4.984375 13.578125 4.984375 25.984375 
Q 4.984375 38.375 11.84375 45.84375 
Q 18.703125 53.328125 30.078125 53.328125 
Q 41.453125 53.328125 48.3125 45.84375 
Q 55.171875 38.375 55.171875 25.984375 
Q 55.171875 13.578125 48.3125 6.078125 
Q 41.453125 -1.421875 30.078125 -1.421875 
z
" id="DejaVuSerif-111"/>
       <path d="M 4.109375 0 
L 4.109375 5.171875 
L 12.203125 5.171875 
L 12.203125 46.6875 
L 3.609375 46.6875 
L 3.609375 51.90625 
L 21.1875 51.90625 
L 21.1875 42.671875 
Q 23.6875 47.953125 27.65625 50.640625 
Q 31.640625 53.328125 36.921875 53.328125 
Q 45.515625 53.328125 49.5625 48.390625 
Q 53.609375 43.453125 53.609375 33.015625 
L 53.609375 5.171875 
L 61.625 5.171875 
L 61.625 0 
L 36.8125 0 
L 36.8125 5.171875 
L 44.578125 5.171875 
L 44.578125 30.171875 
Q 44.578125 39.703125 42.234375 43.234375 
Q 39.890625 46.78125 33.984375 46.78125 
Q 27.734375 46.78125 24.453125 42.203125 
Q 21.1875 37.640625 21.1875 28.90625 
L 21.1875 5.171875 
L 29 5.171875 
L 29 0 
z
" id="DejaVuSerif-110"/>
       <path d="M 51.421875 15.578125 
Q 49.515625 7.28125 44.09375 2.921875 
Q 38.671875 -1.421875 30.078125 -1.421875 
Q 18.75 -1.421875 11.859375 6.078125 
Q 4.984375 13.578125 4.984375 25.984375 
Q 4.984375 38.421875 11.859375 45.875 
Q 18.75 53.328125 30.078125 53.328125 
Q 35.015625 53.328125 39.890625 52.171875 
Q 44.78125 51.03125 49.703125 48.6875 
L 49.703125 35.40625 
L 44.484375 35.40625 
Q 43.453125 42.234375 40.015625 45.359375 
Q 36.578125 48.484375 30.171875 48.484375 
Q 22.90625 48.484375 19.1875 42.84375 
Q 15.484375 37.203125 15.484375 25.984375 
Q 15.484375 14.75 19.171875 9.078125 
Q 22.859375 3.421875 30.171875 3.421875 
Q 35.984375 3.421875 39.453125 6.4375 
Q 42.921875 9.46875 44.1875 15.578125 
z
" id="DejaVuSerif-99"/>
       <path d="M 35.40625 51.90625 
L 52.203125 51.90625 
L 52.203125 5.171875 
L 60.6875 5.171875 
L 60.6875 0 
L 43.21875 0 
L 43.21875 9.1875 
Q 40.71875 4 36.765625 1.28125 
Q 32.8125 -1.421875 27.59375 -1.421875 
Q 18.953125 -1.421875 14.875 3.484375 
Q 10.796875 8.40625 10.796875 18.890625 
L 10.796875 46.6875 
L 2.6875 46.6875 
L 2.6875 51.90625 
L 19.828125 51.90625 
L 19.828125 21.6875 
Q 19.828125 12.203125 22.140625 8.6875 
Q 24.46875 5.171875 30.421875 5.171875 
Q 36.671875 5.171875 39.9375 9.765625 
Q 43.21875 14.359375 43.21875 23.09375 
L 43.21875 46.6875 
L 35.40625 46.6875 
z
" id="DejaVuSerif-117"/>
       <path d="M 47.796875 52 
L 47.796875 39.015625 
L 42.625 39.015625 
Q 42.390625 42.875 40.484375 44.78125 
Q 38.578125 46.6875 34.90625 46.6875 
Q 28.265625 46.6875 24.71875 42.09375 
Q 21.1875 37.5 21.1875 28.90625 
L 21.1875 5.171875 
L 31.59375 5.171875 
L 31.59375 0 
L 4.109375 0 
L 4.109375 5.171875 
L 12.203125 5.171875 
L 12.203125 46.78125 
L 3.609375 46.78125 
L 3.609375 51.90625 
L 21.1875 51.90625 
L 21.1875 42.671875 
Q 23.828125 48.09375 27.96875 50.703125 
Q 32.125 53.328125 38.09375 53.328125 
Q 40.28125 53.328125 42.703125 52.984375 
Q 45.125 52.640625 47.796875 52 
z
" id="DejaVuSerif-114"/>
       <path d="M 54.203125 25 
L 15.484375 25 
L 15.484375 24.609375 
Q 15.484375 14.109375 19.4375 8.765625 
Q 23.390625 3.421875 31.109375 3.421875 
Q 37.015625 3.421875 40.796875 6.515625 
Q 44.578125 9.625 46.09375 15.71875 
L 53.328125 15.71875 
Q 51.171875 7.171875 45.375 2.875 
Q 39.59375 -1.421875 30.171875 -1.421875 
Q 18.796875 -1.421875 11.890625 6.078125 
Q 4.984375 13.578125 4.984375 25.984375 
Q 4.984375 38.28125 11.765625 45.796875 
Q 18.5625 53.328125 29.59375 53.328125 
Q 41.359375 53.328125 47.65625 46.0625 
Q 53.953125 38.8125 54.203125 25 
z
M 43.609375 30.171875 
Q 43.3125 39.265625 39.765625 43.875 
Q 36.234375 48.484375 29.59375 48.484375 
Q 23.390625 48.484375 19.828125 43.84375 
Q 16.265625 39.203125 15.484375 30.171875 
z
" id="DejaVuSerif-101"/>
       <path d="M 10.796875 46.6875 
L 2.875 46.6875 
L 2.875 51.90625 
L 10.796875 51.90625 
L 10.796875 68.015625 
L 19.828125 68.015625 
L 19.828125 51.90625 
L 36.71875 51.90625 
L 36.71875 46.6875 
L 19.828125 46.6875 
L 19.828125 13.71875 
Q 19.828125 7.125 21.09375 5.265625 
Q 22.359375 3.421875 25.78125 3.421875 
Q 29.296875 3.421875 30.90625 5.484375 
Q 32.515625 7.5625 32.625 12.203125 
L 39.40625 12.203125 
Q 39.015625 5.125 35.546875 1.84375 
Q 32.078125 -1.421875 25 -1.421875 
Q 17.234375 -1.421875 14.015625 2.015625 
Q 10.796875 5.46875 10.796875 13.71875 
z
" id="DejaVuSerif-116"/>
       <path id="DejaVuSerif-32"/>
       <path d="M 20.015625 26.421875 
L 46.78125 26.421875 
L 33.40625 61.078125 
z
M -0.59375 0 
L -0.59375 5.171875 
L 5.8125 5.171875 
L 31.78125 72.90625 
L 39.984375 72.90625 
L 66.015625 5.171875 
L 73.1875 5.171875 
L 73.1875 0 
L 46.6875 0 
L 46.6875 5.171875 
L 54.78125 5.171875 
L 48.6875 21.1875 
L 18.015625 21.1875 
L 11.921875 5.171875 
L 19.921875 5.171875 
L 19.921875 0 
z
" id="DejaVuSerif-65"/>
       <path d="M 20.515625 5.171875 
L 29 5.171875 
L 29 0 
L 2.875 0 
L 2.875 5.171875 
L 11.53125 5.171875 
L 11.53125 70.796875 
L 2.875 70.796875 
L 2.875 75.984375 
L 20.515625 75.984375 
z
" id="DejaVuSerif-108"/>
       <path d="M 52.484375 5.171875 
L 61.078125 5.171875 
L 61.078125 0 
L 43.5 0 
L 43.5 8.109375 
Q 40.875 3.21875 36.796875 0.890625 
Q 32.71875 -1.421875 26.703125 -1.421875 
Q 17.140625 -1.421875 11.0625 6.171875 
Q 4.984375 13.765625 4.984375 25.984375 
Q 4.984375 38.1875 11.03125 45.75 
Q 17.09375 53.328125 26.703125 53.328125 
Q 32.71875 53.328125 36.796875 51 
Q 40.875 48.6875 43.5 43.796875 
L 43.5 70.796875 
L 35.015625 70.796875 
L 35.015625 75.984375 
L 52.484375 75.984375 
z
M 43.5 23.390625 
L 43.5 28.515625 
Q 43.5 37.84375 39.90625 42.765625 
Q 36.328125 47.703125 29.5 47.703125 
Q 22.5625 47.703125 19.015625 42.234375 
Q 15.484375 36.765625 15.484375 25.984375 
Q 15.484375 15.234375 19.015625 9.71875 
Q 22.5625 4.203125 29.5 4.203125 
Q 36.328125 4.203125 39.90625 9.109375 
Q 43.5 14.015625 43.5 23.390625 
z
" id="DejaVuSerif-100"/>
       <path d="M 24.703125 37.109375 
L 37.59375 37.109375 
Q 44.875 37.109375 48.671875 41.03125 
Q 52.484375 44.96875 52.484375 52.390625 
Q 52.484375 59.859375 48.671875 63.765625 
Q 44.875 67.671875 37.59375 67.671875 
L 24.703125 67.671875 
z
M 5.515625 0 
L 5.515625 5.171875 
L 14.796875 5.171875 
L 14.796875 67.671875 
L 5.515625 67.671875 
L 5.515625 72.90625 
L 39.984375 72.90625 
Q 50.921875 72.90625 57.3125 67.359375 
Q 63.71875 61.8125 63.71875 52.390625 
Q 63.71875 43.015625 57.3125 37.453125 
Q 50.921875 31.890625 39.984375 31.890625 
L 24.703125 31.890625 
L 24.703125 5.171875 
L 35.984375 5.171875 
L 35.984375 0 
z
" id="DejaVuSerif-80"/>
       <path d="M 5.609375 2.875 
L 5.609375 14.984375 
L 10.796875 14.984375 
Q 10.984375 9.1875 14.421875 6.296875 
Q 17.875 3.421875 24.609375 3.421875 
Q 30.671875 3.421875 33.84375 5.6875 
Q 37.015625 7.953125 37.015625 12.3125 
Q 37.015625 15.71875 34.6875 17.8125 
Q 32.375 19.921875 24.90625 22.3125 
L 18.40625 24.515625 
Q 11.71875 26.65625 8.71875 29.875 
Q 5.71875 33.109375 5.71875 38.09375 
Q 5.71875 45.21875 10.9375 49.265625 
Q 16.15625 53.328125 25.390625 53.328125 
Q 29.5 53.328125 34.03125 52.25 
Q 38.578125 51.171875 43.40625 49.125 
L 43.40625 37.796875 
L 38.234375 37.796875 
Q 38.03125 42.828125 34.703125 45.65625 
Q 31.390625 48.484375 25.6875 48.484375 
Q 20.015625 48.484375 17.109375 46.484375 
Q 14.203125 44.484375 14.203125 40.484375 
Q 14.203125 37.203125 16.40625 35.21875 
Q 18.609375 33.25 25.203125 31.203125 
L 32.328125 29 
Q 39.703125 26.703125 42.9375 23.265625 
Q 46.1875 19.828125 46.1875 14.40625 
Q 46.1875 7.03125 40.546875 2.796875 
Q 34.90625 -1.421875 25 -1.421875 
Q 19.96875 -1.421875 15.1875 -0.34375 
Q 10.40625 0.734375 5.609375 2.875 
z
" id="DejaVuSerif-115"/>
      </defs>
      <use xlink:href="#DejaVuSerif-67"/>
      <use x="76.513672" xlink:href="#DejaVuSerif-111"/>
      <use x="136.71875" xlink:href="#DejaVuSerif-110"/>
      <use x="201.123047" xlink:href="#DejaVuSerif-99"/>
      <use x="257.128906" xlink:href="#DejaVuSerif-117"/>
      <use x="321.533203" xlink:href="#DejaVuSerif-114"/>
      <use x="369.335938" xlink:href="#DejaVuSerif-114"/>
      <use x="417.138672" xlink:href="#DejaVuSerif-101"/>
      <use x="476.318359" xlink:href="#DejaVuSerif-110"/>
      <use x="540.722656" xlink:href="#DejaVuSerif-116"/>
      <use x="580.908203" xlink:href="#DejaVuSerif-32"/>
      <use x="612.695312" xlink:href="#DejaVuSerif-65"/>
      <use x="684.912109" xlink:href="#DejaVuSerif-108"/>
      <use x="716.894531" xlink:href="#DejaVuSerif-108"/>
      <use x="748.876953" xlink:href="#DejaVuSerif-114"/>
      <use x="796.679688" xlink:href="#DejaVuSerif-101"/>
      <use x="855.859375" xlink:href="#DejaVuSerif-100"/>
      <use x="919.873047" xlink:href="#DejaVuSerif-117"/>
      <use x="984.277344" xlink:href="#DejaVuSerif-99"/>
      <use x="1040.283203" xlink:href="#DejaVuSerif-101"/>
      <use x="1099.462891" xlink:href="#DejaVuSerif-32"/>
      <use x="1131.25" xlink:href="#DejaVuSerif-80"/>
      <use x="1198.535156" xlink:href="#DejaVuSerif-114"/>
      <use x="1246.337891" xlink:href="#DejaVuSerif-111"/>
      <use x="1306.542969" xlink:href="#DejaVuSerif-99"/>
      <use x="1362.548828" xlink:href="#DejaVuSerif-101"/>
      <use x="1421.728516" xlink:href="#DejaVuSerif-115"/>
      <use x="1473.046875" xlink:href="#DejaVuSerif-115"/>
      <use x="1524.365234" xlink:href="#DejaVuSerif-101"/>
      <use x="1583.544922" xlink:href="#DejaVuSerif-115"/>
     </g>
    </g>
   </g>
   <g id="matplotlib.axis_2">
    <g id="ytick_1">
     <g id="line2d_7">
      <defs>
       <path d="M 0 0 
L -3.5 0 
" id="m3d3c180f33" style="stroke:#000000;stroke-width:0.8;"/>
      </defs>
      <g>
       <use style="stroke:#000000;stroke-width:0.8;" x="41.51275" xlink:href="#m3d3c180f33" y="113.925424"/>
      </g>
     </g>
     <g id="text_8">
      <!-- 7.100 -->
      <g transform="translate(13.041656 116.774838)scale(0.075 -0.075)">
       <defs>
        <path d="M 56.390625 67.921875 
L 27.875 0 
L 20.609375 0 
L 47.796875 64.890625 
L 14.109375 64.890625 
L 14.109375 55.90625 
L 8.40625 55.90625 
L 8.40625 72.90625 
L 56.390625 72.90625 
z
" id="DejaVuSerif-55"/>
        <path d="M 9.421875 5.078125 
Q 9.421875 7.8125 11.28125 9.71875 
Q 13.140625 11.625 15.921875 11.625 
Q 18.609375 11.625 20.5 9.71875 
Q 22.40625 7.8125 22.40625 5.078125 
Q 22.40625 2.390625 20.5 0.484375 
Q 18.609375 -1.421875 15.921875 -1.421875 
Q 13.140625 -1.421875 11.28125 0.453125 
Q 9.421875 2.34375 9.421875 5.078125 
z
" id="DejaVuSerif-46"/>
       </defs>
       <use xlink:href="#DejaVuSerif-55"/>
       <use x="63.623047" xlink:href="#DejaVuSerif-46"/>
       <use x="95.410156" xlink:href="#DejaVuSerif-49"/>
       <use x="159.033203" xlink:href="#DejaVuSerif-48"/>
       <use x="222.65625" xlink:href="#DejaVuSerif-48"/>
      </g>
     </g>
    </g>
    <g id="ytick_2">
     <g id="line2d_8">
      <g>
       <use style="stroke:#000000;stroke-width:0.8;" x="41.51275" xlink:href="#m3d3c180f33" y="94.140957"/>
      </g>
     </g>
     <g id="text_9">
      <!-- 7.125 -->
      <g transform="translate(13.041656 96.990371)scale(0.075 -0.075)">
       <defs>
        <path d="M 50.296875 72.90625 
L 50.296875 64.890625 
L 16.890625 64.890625 
L 16.890625 44 
Q 19.4375 45.75 22.828125 46.625 
Q 26.21875 47.515625 30.421875 47.515625 
Q 42.234375 47.515625 49.0625 40.96875 
Q 55.90625 34.421875 55.90625 23.09375 
Q 55.90625 11.53125 49 5.046875 
Q 42.09375 -1.421875 29.59375 -1.421875 
Q 24.5625 -1.421875 19.28125 -0.1875 
Q 14.015625 1.03125 8.5 3.515625 
L 8.5 17.671875 
L 14.015625 17.671875 
Q 14.453125 10.75 18.421875 7.078125 
Q 22.40625 3.421875 29.59375 3.421875 
Q 37.3125 3.421875 41.453125 8.5 
Q 45.609375 13.578125 45.609375 23.09375 
Q 45.609375 32.5625 41.484375 37.609375 
Q 37.359375 42.671875 29.59375 42.671875 
Q 25.203125 42.671875 21.84375 41.109375 
Q 18.5 39.546875 15.921875 36.28125 
L 11.71875 36.28125 
L 11.71875 72.90625 
z
" id="DejaVuSerif-53"/>
       </defs>
       <use xlink:href="#DejaVuSerif-55"/>
       <use x="63.623047" xlink:href="#DejaVuSerif-46"/>
       <use x="95.410156" xlink:href="#DejaVuSerif-49"/>
       <use x="159.033203" xlink:href="#DejaVuSerif-50"/>
       <use x="222.65625" xlink:href="#DejaVuSerif-53"/>
      </g>
     </g>
    </g>
    <g id="ytick_3">
     <g id="line2d_9">
      <g>
       <use style="stroke:#000000;stroke-width:0.8;" x="41.51275" xlink:href="#m3d3c180f33" y="74.356491"/>
      </g>
     </g>
     <g id="text_10">
      <!-- 7.150 -->
      <g transform="translate(13.041656 77.205905)scale(0.075 -0.075)">
       <use xlink:href="#DejaVuSerif-55"/>
       <use x="63.623047" xlink:href="#DejaVuSerif-46"/>
       <use x="95.410156" xlink:href="#DejaVuSerif-49"/>
       <use x="159.033203" xlink:href="#DejaVuSerif-53"/>
       <use x="222.65625" xlink:href="#DejaVuSerif-48"/>
      </g>
     </g>
    </g>
    <g id="ytick_4">
     <g id="line2d_10">
      <g>
       <use style="stroke:#000000;stroke-width:0.8;" x="41.51275" xlink:href="#m3d3c180f33" y="54.572024"/>
      </g>
     </g>
     <g id="text_11">
      <!-- 7.175 -->
      <g transform="translate(13.041656 57.421438)scale(0.075 -0.075)">
       <use xlink:href="#DejaVuSerif-55"/>
       <use x="63.623047" xlink:href="#DejaVuSerif-46"/>
       <use x="95.410156" xlink:href="#DejaVuSerif-49"/>
       <use x="159.033203" xlink:href="#DejaVuSerif-55"/>
       <use x="222.65625" xlink:href="#DejaVuSerif-53"/>
      </g>
     </g>
    </g>
    <g id="ytick_5">
     <g id="line2d_11">
      <g>
       <use style="stroke:#000000;stroke-width:0.8;" x="41.51275" xlink:href="#m3d3c180f33" y="34.787558"/>
      </g>
     </g>
     <g id="text_12">
      <!-- 7.200 -->
      <g transform="translate(13.041656 37.636972)scale(0.075 -0.075)">
       <use xlink:href="#DejaVuSerif-55"/>
       <use x="63.623047" xlink:href="#DejaVuSerif-46"/>
       <use x="95.410156" xlink:href="#DejaVuSerif-50"/>
       <use x="159.033203" xlink:href="#DejaVuSerif-48"/>
       <use x="222.65625" xlink:href="#DejaVuSerif-48"/>
      </g>
     </g>
    </g>
    <g id="ytick_6">
     <g id="line2d_12">
      <g>
       <use style="stroke:#000000;stroke-width:0.8;" x="41.51275" xlink:href="#m3d3c180f33" y="15.003091"/>
      </g>
     </g>
     <g id="text_13">
      <!-- 7.225 -->
      <g transform="translate(13.041656 17.852505)scale(0.075 -0.075)">
       <use xlink:href="#DejaVuSerif-55"/>
       <use x="63.623047" xlink:href="#DejaVuSerif-46"/>
       <use x="95.410156" xlink:href="#DejaVuSerif-50"/>
       <use x="159.033203" xlink:href="#DejaVuSerif-50"/>
       <use x="222.65625" xlink:href="#DejaVuSerif-53"/>
      </g>
     </g>
    </g>
    <g id="text_14">
     <!-- Posted Pushback Ratio -->
     <g transform="translate(7.273922 109.680703)rotate(-90)scale(0.085 -0.085)">
      <defs>
       <path d="M 4.109375 0 
L 4.109375 5.171875 
L 12.203125 5.171875 
L 12.203125 70.796875 
L 3.609375 70.796875 
L 3.609375 75.984375 
L 21.1875 75.984375 
L 21.1875 42.671875 
Q 23.6875 47.953125 27.65625 50.640625 
Q 31.640625 53.328125 36.921875 53.328125 
Q 45.515625 53.328125 49.5625 48.390625 
Q 53.609375 43.453125 53.609375 33.015625 
L 53.609375 5.171875 
L 61.625 5.171875 
L 61.625 0 
L 36.8125 0 
L 36.8125 5.171875 
L 44.578125 5.171875 
L 44.578125 30.171875 
Q 44.578125 39.703125 42.25 43.1875 
Q 39.9375 46.6875 33.984375 46.6875 
Q 27.734375 46.6875 24.453125 42.140625 
Q 21.1875 37.59375 21.1875 28.90625 
L 21.1875 5.171875 
L 29 5.171875 
L 29 0 
z
" id="DejaVuSerif-104"/>
       <path d="M 11.53125 5.171875 
L 11.53125 70.796875 
L 2.875 70.796875 
L 2.875 75.984375 
L 20.515625 75.984375 
L 20.515625 43.796875 
Q 23.140625 48.6875 27.21875 51 
Q 31.296875 53.328125 37.3125 53.328125 
Q 46.875 53.328125 52.921875 45.75 
Q 58.984375 38.1875 58.984375 25.984375 
Q 58.984375 13.765625 52.921875 6.171875 
Q 46.875 -1.421875 37.3125 -1.421875 
Q 31.296875 -1.421875 27.21875 0.890625 
Q 23.140625 3.21875 20.515625 8.109375 
L 20.515625 0 
L 2.875 0 
L 2.875 5.171875 
z
M 20.515625 23.390625 
Q 20.515625 14.015625 24.09375 9.109375 
Q 27.6875 4.203125 34.515625 4.203125 
Q 41.40625 4.203125 44.9375 9.71875 
Q 48.484375 15.234375 48.484375 25.984375 
Q 48.484375 36.765625 44.9375 42.234375 
Q 41.40625 47.703125 34.515625 47.703125 
Q 27.6875 47.703125 24.09375 42.765625 
Q 20.515625 37.84375 20.515625 28.515625 
z
" id="DejaVuSerif-98"/>
       <path d="M 39.796875 16.3125 
L 39.796875 27.296875 
L 28.21875 27.296875 
Q 21.53125 27.296875 18.25 24.40625 
Q 14.984375 21.53125 14.984375 15.578125 
Q 14.984375 10.15625 18.296875 6.984375 
Q 21.625 3.8125 27.296875 3.8125 
Q 32.90625 3.8125 36.34375 7.28125 
Q 39.796875 10.75 39.796875 16.3125 
z
M 48.78125 32.421875 
L 48.78125 5.171875 
L 56.78125 5.171875 
L 56.78125 0 
L 39.796875 0 
L 39.796875 5.609375 
Q 36.8125 2 32.90625 0.28125 
Q 29 -1.421875 23.78125 -1.421875 
Q 15.140625 -1.421875 10.0625 3.171875 
Q 4.984375 7.765625 4.984375 15.578125 
Q 4.984375 23.640625 10.796875 28.078125 
Q 16.609375 32.515625 27.203125 32.515625 
L 39.796875 32.515625 
L 39.796875 36.078125 
Q 39.796875 42 36.203125 45.234375 
Q 32.625 48.484375 26.125 48.484375 
Q 20.75 48.484375 17.578125 46.046875 
Q 14.40625 43.609375 13.625 38.8125 
L 8.984375 38.8125 
L 8.984375 49.3125 
Q 13.671875 51.3125 18.09375 52.3125 
Q 22.515625 53.328125 26.703125 53.328125 
Q 37.5 53.328125 43.140625 47.96875 
Q 48.78125 42.625 48.78125 32.421875 
z
" id="DejaVuSerif-97"/>
       <path d="M 28.609375 0 
L 3.421875 0 
L 3.421875 5.171875 
L 11.53125 5.171875 
L 11.53125 70.796875 
L 2.875 70.796875 
L 2.875 75.984375 
L 20.515625 75.984375 
L 20.515625 26.515625 
L 42.390625 46.6875 
L 34.90625 46.6875 
L 34.90625 51.90625 
L 58.40625 51.90625 
L 58.40625 46.6875 
L 49.515625 46.6875 
L 34.078125 32.421875 
L 53.8125 5.171875 
L 61.28125 5.171875 
L 61.28125 0 
L 35.6875 0 
L 35.6875 5.171875 
L 43.109375 5.171875 
L 27.59375 26.515625 
L 20.515625 19.921875 
L 20.515625 5.171875 
L 28.609375 5.171875 
z
" id="DejaVuSerif-107"/>
       <path d="M 47.90625 36.1875 
Q 51.3125 35.25 53.78125 33.03125 
Q 56.25 30.8125 58.203125 26.8125 
L 68.796875 5.171875 
L 77.6875 5.171875 
L 77.6875 0 
L 60.5 0 
L 49.125 23.1875 
Q 45.84375 29.9375 43.109375 31.90625 
Q 40.375 33.890625 35.59375 33.890625 
L 24.703125 33.890625 
L 24.703125 5.171875 
L 35.015625 5.171875 
L 35.015625 0 
L 5.515625 0 
L 5.515625 5.171875 
L 14.796875 5.171875 
L 14.796875 67.671875 
L 5.515625 67.671875 
L 5.515625 72.90625 
L 42.484375 72.90625 
Q 53.125 72.90625 58.90625 67.828125 
Q 64.703125 62.75 64.703125 53.421875 
Q 64.703125 45.90625 60.46875 41.578125 
Q 56.25 37.25 47.90625 36.1875 
z
M 24.703125 39.109375 
L 39.109375 39.109375 
Q 46.484375 39.109375 50 42.59375 
Q 53.515625 46.09375 53.515625 53.421875 
Q 53.515625 60.75 50 64.203125 
Q 46.484375 67.671875 39.109375 67.671875 
L 24.703125 67.671875 
z
" id="DejaVuSerif-82"/>
       <path d="M 9.71875 68.015625 
Q 9.71875 70.265625 11.34375 71.921875 
Q 12.984375 73.578125 15.28125 73.578125 
Q 17.53125 73.578125 19.15625 71.921875 
Q 20.796875 70.265625 20.796875 68.015625 
Q 20.796875 65.71875 19.1875 64.109375 
Q 17.578125 62.5 15.28125 62.5 
Q 12.984375 62.5 11.34375 64.109375 
Q 9.71875 65.71875 9.71875 68.015625 
z
M 21.1875 5.171875 
L 29.6875 5.171875 
L 29.6875 0 
L 3.609375 0 
L 3.609375 5.171875 
L 12.203125 5.171875 
L 12.203125 46.6875 
L 3.609375 46.6875 
L 3.609375 51.90625 
L 21.1875 51.90625 
z
" id="DejaVuSerif-105"/>
      </defs>
      <use xlink:href="#DejaVuSerif-80"/>
      <use x="63.285156" xlink:href="#DejaVuSerif-111"/>
      <use x="123.490234" xlink:href="#DejaVuSerif-115"/>
      <use x="174.808594" xlink:href="#DejaVuSerif-116"/>
      <use x="214.994141" xlink:href="#DejaVuSerif-101"/>
      <use x="274.173828" xlink:href="#DejaVuSerif-100"/>
      <use x="338.1875" xlink:href="#DejaVuSerif-32"/>
      <use x="369.974609" xlink:href="#DejaVuSerif-80"/>
      <use x="437.259766" xlink:href="#DejaVuSerif-117"/>
      <use x="501.664062" xlink:href="#DejaVuSerif-115"/>
      <use x="552.982422" xlink:href="#DejaVuSerif-104"/>
      <use x="617.386719" xlink:href="#DejaVuSerif-98"/>
      <use x="681.400391" xlink:href="#DejaVuSerif-97"/>
      <use x="741.019531" xlink:href="#DejaVuSerif-99"/>
      <use x="797.025391" xlink:href="#DejaVuSerif-107"/>
      <use x="857.621094" xlink:href="#DejaVuSerif-32"/>
      <use x="889.408203" xlink:href="#DejaVuSerif-82"/>
      <use x="966.951172" xlink:href="#DejaVuSerif-97"/>
      <use x="1026.570312" xlink:href="#DejaVuSerif-116"/>
      <use x="1066.755859" xlink:href="#DejaVuSerif-105"/>
      <use x="1098.738281" xlink:href="#DejaVuSerif-111"/>
     </g>
    </g>
   </g>
   <g id="line2d_13">
    <path clip-path="url(#p67e9a11f76)" d="M 50.567523 106.996249 
L 67.030746 101.027226 
L 83.493969 113.555207 
L 99.957192 90.876738 
L 116.420415 86.889921 
L 132.883638 81.619392 
L 149.346862 78.990768 
L 165.810085 32.082245 
L 182.273308 20.845927 
L 198.736531 23.325171 
L 215.199754 19.107869 
L 231.662977 7.296512 
" style="fill:none;stroke:#1f77b4;stroke-linecap:square;stroke-width:1.2;"/>
    <defs>
     <path d="M 0 2 
C 0.530406 2 1.03916 1.789267 1.414214 1.414214 
C 1.789267 1.03916 2 0.530406 2 0 
C 2 -0.530406 1.789267 -1.03916 1.414214 -1.414214 
C 1.03916 -1.789267 0.530406 -2 0 -2 
C -0.530406 -2 -1.03916 -1.789267 -1.414214 -1.414214 
C -1.789267 -1.03916 -2 -0.530406 -2 0 
C -2 0.530406 -1.789267 1.03916 -1.414214 1.414214 
C -1.03916 1.789267 -0.530406 2 0 2 
z
" id="ma397105566" style="stroke:#1f77b4;"/>
    </defs>
    <g clip-path="url(#p67e9a11f76)">
     <use style="fill:#1f77b4;stroke:#1f77b4;" x="50.567523" xlink:href="#ma397105566" y="106.996249"/>
     <use style="fill:#1f77b4;stroke:#1f77b4;" x="67.030746" xlink:href="#ma397105566" y="101.027226"/>
     <use style="fill:#1f77b4;stroke:#1f77b4;" x="83.493969" xlink:href="#ma397105566" y="113.555207"/>
     <use style="fill:#1f77b4;stroke:#1f77b4;" x="99.957192" xlink:href="#ma397105566" y="90.876738"/>
     <use style="fill:#1f77b4;stroke:#1f77b4;" x="116.420415" xlink:href="#ma397105566" y="86.889921"/>
     <use style="fill:#1f77b4;stroke:#1f77b4;" x="132.883638" xlink:href="#ma397105566" y="81.619392"/>
     <use style="fill:#1f77b4;stroke:#1f77b4;" x="149.346862" xlink:href="#ma397105566" y="78.990768"/>
     <use style="fill:#1f77b4;stroke:#1f77b4;" x="165.810085" xlink:href="#ma397105566" y="32.082245"/>
     <use style="fill:#1f77b4;stroke:#1f77b4;" x="182.273308" xlink:href="#ma397105566" y="20.845927"/>
     <use style="fill:#1f77b4;stroke:#1f77b4;" x="198.736531" xlink:href="#ma397105566" y="23.325171"/>
     <use style="fill:#1f77b4;stroke:#1f77b4;" x="215.199754" xlink:href="#ma397105566" y="19.107869"/>
     <use style="fill:#1f77b4;stroke:#1f77b4;" x="231.662977" xlink:href="#ma397105566" y="7.296512"/>
    </g>
   </g>
   <g id="line2d_14">
    <path clip-path="url(#p67e9a11f76)" d="M 50.567523 106.720794 
L 67.030746 103.878621 
L 83.493969 107.827498 
L 99.957192 103.0662 
L 116.420415 88.656439 
L 132.883638 83.517436 
L 149.346862 53.141982 
L 165.810085 76.089186 
L 182.273308 65.281831 
L 198.736531 36.44271 
L 215.199754 29.151298 
L 231.662977 16.571089 
" style="fill:none;stroke:#ff7f0e;stroke-linecap:square;stroke-width:1.2;"/>
    <defs>
     <path d="M -2 2 
L 2 2 
L 2 -2 
L -2 -2 
z
" id="m46aa7e402e" style="stroke:#ff7f0e;stroke-linejoin:miter;"/>
    </defs>
    <g clip-path="url(#p67e9a11f76)">
     <use style="fill:#ff7f0e;stroke:#ff7f0e;stroke-linejoin:miter;" x="50.567523" xlink:href="#m46aa7e402e" y="106.720794"/>
     <use style="fill:#ff7f0e;stroke:#ff7f0e;stroke-linejoin:miter;" x="67.030746" xlink:href="#m46aa7e402e" y="103.878621"/>
     <use style="fill:#ff7f0e;stroke:#ff7f0e;stroke-linejoin:miter;" x="83.493969" xlink:href="#m46aa7e402e" y="107.827498"/>
     <use style="fill:#ff7f0e;stroke:#ff7f0e;stroke-linejoin:miter;" x="99.957192" xlink:href="#m46aa7e402e" y="103.0662"/>
     <use style="fill:#ff7f0e;stroke:#ff7f0e;stroke-linejoin:miter;" x="116.420415" xlink:href="#m46aa7e402e" y="88.656439"/>
     <use style="fill:#ff7f0e;stroke:#ff7f0e;stroke-linejoin:miter;" x="132.883638" xlink:href="#m46aa7e402e" y="83.517436"/>
     <use style="fill:#ff7f0e;stroke:#ff7f0e;stroke-linejoin:miter;" x="149.346862" xlink:href="#m46aa7e402e" y="53.141982"/>
     <use style="fill:#ff7f0e;stroke:#ff7f0e;stroke-linejoin:miter;" x="165.810085" xlink:href="#m46aa7e402e" y="76.089186"/>
     <use style="fill:#ff7f0e;stroke:#ff7f0e;stroke-linejoin:miter;" x="182.273308" xlink:href="#m46aa7e402e" y="65.281831"/>
     <use style="fill:#ff7f0e;stroke:#ff7f0e;stroke-linejoin:miter;" x="198.736531" xlink:href="#m46aa7e402e" y="36.44271"/>
     <use style="fill:#ff7f0e;stroke:#ff7f0e;stroke-linejoin:miter;" x="215.199754" xlink:href="#m46aa7e402e" y="29.151298"/>
     <use style="fill:#ff7f0e;stroke:#ff7f0e;stroke-linejoin:miter;" x="231.662977" xlink:href="#m46aa7e402e" y="16.571089"/>
    </g>
   </g>
   <g id="patch_3">
    <path d="M 41.51275 118.868142 
L 41.51275 1.983577 
" style="fill:none;stroke:#000000;stroke-linecap:square;stroke-linejoin:miter;stroke-width:0.8;"/>
   </g>
   <g id="patch_4">
    <path d="M 240.71775 118.868142 
L 240.71775 1.983577 
" style="fill:none;stroke:#000000;stroke-linecap:square;stroke-linejoin:miter;stroke-width:0.8;"/>
   </g>
   <g id="patch_5">
    <path d="M 41.51275 118.868142 
L 240.71775 118.868142 
" style="fill:none;stroke:#000000;stroke-linecap:square;stroke-linejoin:miter;stroke-width:0.8;"/>
   </g>
   <g id="patch_6">
    <path d="M 41.51275 1.983577 
L 240.71775 1.983577 
" style="fill:none;stroke:#000000;stroke-linecap:square;stroke-linejoin:miter;stroke-width:0.8;"/>
   </g>
   <g id="legend_1">
    <g id="line2d_15">
     <path d="M 48.26275 11.807405 
L 59.51275 11.807405 
" style="fill:none;stroke:#1f77b4;stroke-linecap:square;stroke-width:1.2;"/>
    </g>
    <g id="line2d_16">
     <g>
      <use style="fill:#1f77b4;stroke:#1f77b4;" x="53.88775" xlink:href="#ma397105566" y="11.807405"/>
     </g>
    </g>
    <g id="text_15">
     <!-- Host A -->
     <g transform="translate(65.51275 14.432405)scale(0.075 -0.075)">
      <defs>
       <path d="M 5.515625 0 
L 5.515625 5.171875 
L 14.796875 5.171875 
L 14.796875 67.671875 
L 5.515625 67.671875 
L 5.515625 72.90625 
L 33.984375 72.90625 
L 33.984375 67.671875 
L 24.703125 67.671875 
L 24.703125 42.484375 
L 62.5 42.484375 
L 62.5 67.671875 
L 53.21875 67.671875 
L 53.21875 72.90625 
L 81.6875 72.90625 
L 81.6875 67.671875 
L 72.40625 67.671875 
L 72.40625 5.171875 
L 81.6875 5.171875 
L 81.6875 0 
L 53.21875 0 
L 53.21875 5.171875 
L 62.5 5.171875 
L 62.5 36.53125 
L 24.703125 36.53125 
L 24.703125 5.171875 
L 33.984375 5.171875 
L 33.984375 0 
z
" id="DejaVuSerif-72"/>
      </defs>
      <use xlink:href="#DejaVuSerif-72"/>
      <use x="87.207031" xlink:href="#DejaVuSerif-111"/>
      <use x="147.412109" xlink:href="#DejaVuSerif-115"/>
      <use x="198.730469" xlink:href="#DejaVuSerif-116"/>
      <use x="238.916016" xlink:href="#DejaVuSerif-32"/>
      <use x="270.703125" xlink:href="#DejaVuSerif-65"/>
     </g>
    </g>
    <g id="line2d_17">
     <path d="M 48.26275 22.815999 
L 59.51275 22.815999 
" style="fill:none;stroke:#ff7f0e;stroke-linecap:square;stroke-width:1.2;"/>
    </g>
    <g id="line2d_18">
     <g>
      <use style="fill:#ff7f0e;stroke:#ff7f0e;stroke-linejoin:miter;" x="53.88775" xlink:href="#m46aa7e402e" y="22.815999"/>
     </g>
    </g>
    <g id="text_16">
     <!-- Host B -->
     <g transform="translate(65.51275 25.440999)scale(0.075 -0.075)">
      <defs>
       <path d="M 24.703125 5.171875 
L 39.3125 5.171875 
Q 48.09375 5.171875 52.140625 8.984375 
Q 56.203125 12.796875 56.203125 21.09375 
Q 56.203125 29.34375 52.171875 33.125 
Q 48.140625 36.921875 39.3125 36.921875 
L 24.703125 36.921875 
z
M 24.703125 42.09375 
L 37.109375 42.09375 
Q 45.125 42.09375 48.796875 45.171875 
Q 52.484375 48.25 52.484375 54.890625 
Q 52.484375 61.578125 48.796875 64.625 
Q 45.125 67.671875 37.109375 67.671875 
L 24.703125 67.671875 
z
M 5.515625 0 
L 5.515625 5.171875 
L 14.796875 5.171875 
L 14.796875 67.671875 
L 5.515625 67.671875 
L 5.515625 72.90625 
L 41.5 72.90625 
Q 52.546875 72.90625 58.125 68.390625 
Q 63.71875 63.875 63.71875 54.890625 
Q 63.71875 48.390625 59.828125 44.53125 
Q 55.953125 40.671875 48.484375 39.796875 
Q 57.765625 38.625 62.578125 33.859375 
Q 67.390625 29.109375 67.390625 21.09375 
Q 67.390625 10.25 60.546875 5.125 
Q 53.71875 0 39.203125 0 
z
" id="DejaVuSerif-66"/>
      </defs>
      <use xlink:href="#DejaVuSerif-72"/>
      <use x="87.207031" xlink:href="#DejaVuSerif-111"/>
      <use x="147.412109" xlink:href="#DejaVuSerif-115"/>
      <use x="198.730469" xlink:href="#DejaVuSerif-116"/>
      <use x="238.916016" xlink:href="#DejaVuSerif-32"/>
      <use x="270.703125" xlink:href="#DejaVuSerif-66"/>
     </g>
    </g>
   </g>
  </g>
  <g id="axes_2">
   <g id="patch_7">
    <path d="M 293.66775 118.868142 
L 492.87275 118.868142 
L 492.87275 1.983577 
L 293.66775 1.983577 
z
" style="fill:#ffffff;"/>
   </g>
   <g id="matplotlib.axis_3">
    <g id="xtick_7">
     <g id="line2d_19">
      <g>
       <use style="stroke:#000000;stroke-width:0.8;" x="319.185746" xlink:href="#m7e733df901" y="118.868142"/>
      </g>
     </g>
     <g id="text_17">
      <!-- 2 -->
      <g transform="translate(316.799808 131.56697)scale(0.075 -0.075)">
       <use xlink:href="#DejaVuSerif-50"/>
      </g>
     </g>
    </g>
    <g id="xtick_8">
     <g id="line2d_20">
      <g>
       <use style="stroke:#000000;stroke-width:0.8;" x="352.112192" xlink:href="#m7e733df901" y="118.868142"/>
      </g>
     </g>
     <g id="text_18">
      <!-- 4 -->
      <g transform="translate(349.726255 131.56697)scale(0.075 -0.075)">
       <use xlink:href="#DejaVuSerif-52"/>
      </g>
     </g>
    </g>
    <g id="xtick_9">
     <g id="line2d_21">
      <g>
       <use style="stroke:#000000;stroke-width:0.8;" x="385.038638" xlink:href="#m7e733df901" y="118.868142"/>
      </g>
     </g>
     <g id="text_19">
      <!-- 6 -->
      <g transform="translate(382.652701 131.56697)scale(0.075 -0.075)">
       <use xlink:href="#DejaVuSerif-54"/>
      </g>
     </g>
    </g>
    <g id="xtick_10">
     <g id="line2d_22">
      <g>
       <use style="stroke:#000000;stroke-width:0.8;" x="417.965085" xlink:href="#m7e733df901" y="118.868142"/>
      </g>
     </g>
     <g id="text_20">
      <!-- 8 -->
      <g transform="translate(415.579147 131.56697)scale(0.075 -0.075)">
       <use xlink:href="#DejaVuSerif-56"/>
      </g>
     </g>
    </g>
    <g id="xtick_11">
     <g id="line2d_23">
      <g>
       <use style="stroke:#000000;stroke-width:0.8;" x="450.891531" xlink:href="#m7e733df901" y="118.868142"/>
      </g>
     </g>
     <g id="text_21">
      <!-- 10 -->
      <g transform="translate(446.119656 131.56697)scale(0.075 -0.075)">
       <use xlink:href="#DejaVuSerif-49"/>
       <use x="63.623047" xlink:href="#DejaVuSerif-48"/>
      </g>
     </g>
    </g>
    <g id="xtick_12">
     <g id="line2d_24">
      <g>
       <use style="stroke:#000000;stroke-width:0.8;" x="483.817977" xlink:href="#m7e733df901" y="118.868142"/>
      </g>
     </g>
     <g id="text_22">
      <!-- 12 -->
      <g transform="translate(479.046102 131.56697)scale(0.075 -0.075)">
       <use xlink:href="#DejaVuSerif-49"/>
       <use x="63.623047" xlink:href="#DejaVuSerif-50"/>
      </g>
     </g>
    </g>
    <g id="text_23">
     <!-- Concurrent Allreduce Processes -->
     <g transform="translate(323.789391 143.585408)scale(0.085 -0.085)">
      <use xlink:href="#DejaVuSerif-67"/>
      <use x="76.513672" xlink:href="#DejaVuSerif-111"/>
      <use x="136.71875" xlink:href="#DejaVuSerif-110"/>
      <use x="201.123047" xlink:href="#DejaVuSerif-99"/>
      <use x="257.128906" xlink:href="#DejaVuSerif-117"/>
      <use x="321.533203" xlink:href="#DejaVuSerif-114"/>
      <use x="369.335938" xlink:href="#DejaVuSerif-114"/>
      <use x="417.138672" xlink:href="#DejaVuSerif-101"/>
      <use x="476.318359" xlink:href="#DejaVuSerif-110"/>
      <use x="540.722656" xlink:href="#DejaVuSerif-116"/>
      <use x="580.908203" xlink:href="#DejaVuSerif-32"/>
      <use x="612.695312" xlink:href="#DejaVuSerif-65"/>
      <use x="684.912109" xlink:href="#DejaVuSerif-108"/>
      <use x="716.894531" xlink:href="#DejaVuSerif-108"/>
      <use x="748.876953" xlink:href="#DejaVuSerif-114"/>
      <use x="796.679688" xlink:href="#DejaVuSerif-101"/>
      <use x="855.859375" xlink:href="#DejaVuSerif-100"/>
      <use x="919.873047" xlink:href="#DejaVuSerif-117"/>
      <use x="984.277344" xlink:href="#DejaVuSerif-99"/>
      <use x="1040.283203" xlink:href="#DejaVuSerif-101"/>
      <use x="1099.462891" xlink:href="#DejaVuSerif-32"/>
      <use x="1131.25" xlink:href="#DejaVuSerif-80"/>
      <use x="1198.535156" xlink:href="#DejaVuSerif-114"/>
      <use x="1246.337891" xlink:href="#DejaVuSerif-111"/>
      <use x="1306.542969" xlink:href="#DejaVuSerif-99"/>
      <use x="1362.548828" xlink:href="#DejaVuSerif-101"/>
      <use x="1421.728516" xlink:href="#DejaVuSerif-115"/>
      <use x="1473.046875" xlink:href="#DejaVuSerif-115"/>
      <use x="1524.365234" xlink:href="#DejaVuSerif-101"/>
      <use x="1583.544922" xlink:href="#DejaVuSerif-115"/>
     </g>
    </g>
   </g>
   <g id="matplotlib.axis_4">
    <g id="ytick_7">
     <g id="line2d_25">
      <g>
       <use style="stroke:#000000;stroke-width:0.8;" x="293.66775" xlink:href="#m3d3c180f33" y="114.551471"/>
      </g>
     </g>
     <g id="text_24">
      <!-- 0.0000 -->
      <g transform="translate(260.424781 117.400885)scale(0.075 -0.075)">
       <use xlink:href="#DejaVuSerif-48"/>
       <use x="63.623047" xlink:href="#DejaVuSerif-46"/>
       <use x="95.410156" xlink:href="#DejaVuSerif-48"/>
       <use x="159.033203" xlink:href="#DejaVuSerif-48"/>
       <use x="222.65625" xlink:href="#DejaVuSerif-48"/>
       <use x="286.279297" xlink:href="#DejaVuSerif-48"/>
      </g>
     </g>
    </g>
    <g id="ytick_8">
     <g id="line2d_26">
      <g>
       <use style="stroke:#000000;stroke-width:0.8;" x="293.66775" xlink:href="#m3d3c180f33" y="95.235911"/>
      </g>
     </g>
     <g id="text_25">
      <!-- 0.0001 -->
      <g transform="translate(260.424781 98.085325)scale(0.075 -0.075)">
       <use xlink:href="#DejaVuSerif-48"/>
       <use x="63.623047" xlink:href="#DejaVuSerif-46"/>
       <use x="95.410156" xlink:href="#DejaVuSerif-48"/>
       <use x="159.033203" xlink:href="#DejaVuSerif-48"/>
       <use x="222.65625" xlink:href="#DejaVuSerif-48"/>
       <use x="286.279297" xlink:href="#DejaVuSerif-49"/>
      </g>
     </g>
    </g>
    <g id="ytick_9">
     <g id="line2d_27">
      <g>
       <use style="stroke:#000000;stroke-width:0.8;" x="293.66775" xlink:href="#m3d3c180f33" y="75.920352"/>
      </g>
     </g>
     <g id="text_26">
      <!-- 0.0002 -->
      <g transform="translate(260.424781 78.769766)scale(0.075 -0.075)">
       <use xlink:href="#DejaVuSerif-48"/>
       <use x="63.623047" xlink:href="#DejaVuSerif-46"/>
       <use x="95.410156" xlink:href="#DejaVuSerif-48"/>
       <use x="159.033203" xlink:href="#DejaVuSerif-48"/>
       <use x="222.65625" xlink:href="#DejaVuSerif-48"/>
       <use x="286.279297" xlink:href="#DejaVuSerif-50"/>
      </g>
     </g>
    </g>
    <g id="ytick_10">
     <g id="line2d_28">
      <g>
       <use style="stroke:#000000;stroke-width:0.8;" x="293.66775" xlink:href="#m3d3c180f33" y="56.604792"/>
      </g>
     </g>
     <g id="text_27">
      <!-- 0.0003 -->
      <g transform="translate(260.424781 59.454206)scale(0.075 -0.075)">
       <defs>
        <path d="M 9.71875 69.828125 
Q 15.4375 71.96875 20.671875 73.09375 
Q 25.921875 74.21875 30.515625 74.21875 
Q 41.21875 74.21875 47.21875 69.59375 
Q 53.21875 64.984375 53.21875 56.78125 
Q 53.21875 50.203125 49.0625 45.78125 
Q 44.921875 41.359375 37.3125 39.796875 
Q 46.296875 38.53125 51.25 33.28125 
Q 56.203125 28.03125 56.203125 19.671875 
Q 56.203125 9.46875 49.34375 4.015625 
Q 42.484375 -1.421875 29.59375 -1.421875 
Q 23.875 -1.421875 18.421875 -0.1875 
Q 12.984375 1.03125 7.625 3.515625 
L 7.625 17.671875 
L 13.09375 17.671875 
Q 13.578125 10.640625 17.828125 7.03125 
Q 22.078125 3.421875 29.78125 3.421875 
Q 37.25 3.421875 41.578125 7.734375 
Q 45.90625 12.0625 45.90625 19.578125 
Q 45.90625 28.171875 41.453125 32.59375 
Q 37.015625 37.015625 28.421875 37.015625 
L 23.78125 37.015625 
L 23.78125 42 
L 26.21875 42 
Q 34.765625 42 39.03125 45.53125 
Q 43.3125 49.078125 43.3125 56.203125 
Q 43.3125 62.59375 39.796875 65.984375 
Q 36.28125 69.390625 29.6875 69.390625 
Q 23.09375 69.390625 19.453125 66.265625 
Q 15.828125 63.140625 15.1875 56.984375 
L 9.71875 56.984375 
z
" id="DejaVuSerif-51"/>
       </defs>
       <use xlink:href="#DejaVuSerif-48"/>
       <use x="63.623047" xlink:href="#DejaVuSerif-46"/>
       <use x="95.410156" xlink:href="#DejaVuSerif-48"/>
       <use x="159.033203" xlink:href="#DejaVuSerif-48"/>
       <use x="222.65625" xlink:href="#DejaVuSerif-48"/>
       <use x="286.279297" xlink:href="#DejaVuSerif-51"/>
      </g>
     </g>
    </g>
    <g id="ytick_11">
     <g id="line2d_29">
      <g>
       <use style="stroke:#000000;stroke-width:0.8;" x="293.66775" xlink:href="#m3d3c180f33" y="37.289233"/>
      </g>
     </g>
     <g id="text_28">
      <!-- 0.0004 -->
      <g transform="translate(260.424781 40.138647)scale(0.075 -0.075)">
       <use xlink:href="#DejaVuSerif-48"/>
       <use x="63.623047" xlink:href="#DejaVuSerif-46"/>
       <use x="95.410156" xlink:href="#DejaVuSerif-48"/>
       <use x="159.033203" xlink:href="#DejaVuSerif-48"/>
       <use x="222.65625" xlink:href="#DejaVuSerif-48"/>
       <use x="286.279297" xlink:href="#DejaVuSerif-52"/>
      </g>
     </g>
    </g>
    <g id="ytick_12">
     <g id="line2d_30">
      <g>
       <use style="stroke:#000000;stroke-width:0.8;" x="293.66775" xlink:href="#m3d3c180f33" y="17.973673"/>
      </g>
     </g>
     <g id="text_29">
      <!-- 0.0005 -->
      <g transform="translate(260.424781 20.823087)scale(0.075 -0.075)">
       <use xlink:href="#DejaVuSerif-48"/>
       <use x="63.623047" xlink:href="#DejaVuSerif-46"/>
       <use x="95.410156" xlink:href="#DejaVuSerif-48"/>
       <use x="159.033203" xlink:href="#DejaVuSerif-48"/>
       <use x="222.65625" xlink:href="#DejaVuSerif-48"/>
       <use x="286.279297" xlink:href="#DejaVuSerif-53"/>
      </g>
     </g>
    </g>
    <g id="text_30">
     <!-- Non-Posted Pushback Ratio -->
     <g transform="translate(254.657047 120.131719)rotate(-90)scale(0.085 -0.085)">
      <defs>
       <path d="M 4.890625 0 
L 4.890625 5.171875 
L 14.703125 5.171875 
L 14.703125 67.671875 
L 4.890625 67.671875 
L 4.890625 72.90625 
L 23.578125 72.90625 
L 67.28125 15.375 
L 67.28125 67.671875 
L 57.515625 67.671875 
L 57.515625 72.90625 
L 83.109375 72.90625 
L 83.109375 67.671875 
L 73.296875 67.671875 
L 73.296875 -1.421875 
L 67.390625 -1.421875 
L 20.703125 60.015625 
L 20.703125 5.171875 
L 30.515625 5.171875 
L 30.515625 0 
z
" id="DejaVuSerif-78"/>
       <path d="M 4.390625 30.609375 
L 29.390625 30.609375 
L 29.390625 23 
L 4.390625 23 
z
" id="DejaVuSerif-45"/>
      </defs>
      <use xlink:href="#DejaVuSerif-78"/>
      <use x="87.5" xlink:href="#DejaVuSerif-111"/>
      <use x="147.705078" xlink:href="#DejaVuSerif-110"/>
      <use x="212.109375" xlink:href="#DejaVuSerif-45"/>
      <use x="245.898438" xlink:href="#DejaVuSerif-80"/>
      <use x="309.183594" xlink:href="#DejaVuSerif-111"/>
      <use x="369.388672" xlink:href="#DejaVuSerif-115"/>
      <use x="420.707031" xlink:href="#DejaVuSerif-116"/>
      <use x="460.892578" xlink:href="#DejaVuSerif-101"/>
      <use x="520.072266" xlink:href="#DejaVuSerif-100"/>
      <use x="584.085938" xlink:href="#DejaVuSerif-32"/>
      <use x="615.873047" xlink:href="#DejaVuSerif-80"/>
      <use x="683.158203" xlink:href="#DejaVuSerif-117"/>
      <use x="747.5625" xlink:href="#DejaVuSerif-115"/>
      <use x="798.880859" xlink:href="#DejaVuSerif-104"/>
      <use x="863.285156" xlink:href="#DejaVuSerif-98"/>
      <use x="927.298828" xlink:href="#DejaVuSerif-97"/>
      <use x="986.917969" xlink:href="#DejaVuSerif-99"/>
      <use x="1042.923828" xlink:href="#DejaVuSerif-107"/>
      <use x="1103.519531" xlink:href="#DejaVuSerif-32"/>
      <use x="1135.306641" xlink:href="#DejaVuSerif-82"/>
      <use x="1212.849609" xlink:href="#DejaVuSerif-97"/>
      <use x="1272.46875" xlink:href="#DejaVuSerif-116"/>
      <use x="1312.654297" xlink:href="#DejaVuSerif-105"/>
      <use x="1344.636719" xlink:href="#DejaVuSerif-111"/>
     </g>
    </g>
   </g>
   <g id="line2d_31">
    <path clip-path="url(#pb32e47c5a1)" d="M 302.722523 112.369468 
L 319.185746 112.892611 
L 335.648969 113.126004 
L 352.112192 113.175723 
L 368.575415 113.311156 
L 385.038638 113.555207 
L 401.501862 113.154248 
L 417.965085 45.221256 
L 434.428308 40.838763 
L 450.891531 17.033008 
L 467.354754 17.149002 
L 483.817977 7.296512 
" style="fill:none;stroke:#1f77b4;stroke-linecap:square;stroke-width:1.2;"/>
    <g clip-path="url(#pb32e47c5a1)">
     <use style="fill:#1f77b4;stroke:#1f77b4;" x="302.722523" xlink:href="#ma397105566" y="112.369468"/>
     <use style="fill:#1f77b4;stroke:#1f77b4;" x="319.185746" xlink:href="#ma397105566" y="112.892611"/>
     <use style="fill:#1f77b4;stroke:#1f77b4;" x="335.648969" xlink:href="#ma397105566" y="113.126004"/>
     <use style="fill:#1f77b4;stroke:#1f77b4;" x="352.112192" xlink:href="#ma397105566" y="113.175723"/>
     <use style="fill:#1f77b4;stroke:#1f77b4;" x="368.575415" xlink:href="#ma397105566" y="113.311156"/>
     <use style="fill:#1f77b4;stroke:#1f77b4;" x="385.038638" xlink:href="#ma397105566" y="113.555207"/>
     <use style="fill:#1f77b4;stroke:#1f77b4;" x="401.501862" xlink:href="#ma397105566" y="113.154248"/>
     <use style="fill:#1f77b4;stroke:#1f77b4;" x="417.965085" xlink:href="#ma397105566" y="45.221256"/>
     <use style="fill:#1f77b4;stroke:#1f77b4;" x="434.428308" xlink:href="#ma397105566" y="40.838763"/>
     <use style="fill:#1f77b4;stroke:#1f77b4;" x="450.891531" xlink:href="#ma397105566" y="17.033008"/>
     <use style="fill:#1f77b4;stroke:#1f77b4;" x="467.354754" xlink:href="#ma397105566" y="17.149002"/>
     <use style="fill:#1f77b4;stroke:#1f77b4;" x="483.817977" xlink:href="#ma397105566" y="7.296512"/>
    </g>
   </g>
   <g id="line2d_32">
    <path clip-path="url(#pb32e47c5a1)" d="M 302.722523 112.0927 
L 319.185746 112.761366 
L 335.648969 113.331761 
L 352.112192 113.464758 
L 368.575415 113.226201 
L 385.038638 113.263769 
L 401.501862 50.640733 
L 417.965085 112.344166 
L 434.428308 112.679461 
L 450.891531 23.099002 
L 467.354754 20.143684 
L 483.817977 7.940244 
" style="fill:none;stroke:#ff7f0e;stroke-linecap:square;stroke-width:1.2;"/>
    <g clip-path="url(#pb32e47c5a1)">
     <use style="fill:#ff7f0e;stroke:#ff7f0e;stroke-linejoin:miter;" x="302.722523" xlink:href="#m46aa7e402e" y="112.0927"/>
     <use style="fill:#ff7f0e;stroke:#ff7f0e;stroke-linejoin:miter;" x="319.185746" xlink:href="#m46aa7e402e" y="112.761366"/>
     <use style="fill:#ff7f0e;stroke:#ff7f0e;stroke-linejoin:miter;" x="335.648969" xlink:href="#m46aa7e402e" y="113.331761"/>
     <use style="fill:#ff7f0e;stroke:#ff7f0e;stroke-linejoin:miter;" x="352.112192" xlink:href="#m46aa7e402e" y="113.464758"/>
     <use style="fill:#ff7f0e;stroke:#ff7f0e;stroke-linejoin:miter;" x="368.575415" xlink:href="#m46aa7e402e" y="113.226201"/>
     <use style="fill:#ff7f0e;stroke:#ff7f0e;stroke-linejoin:miter;" x="385.038638" xlink:href="#m46aa7e402e" y="113.263769"/>
     <use style="fill:#ff7f0e;stroke:#ff7f0e;stroke-linejoin:miter;" x="401.501862" xlink:href="#m46aa7e402e" y="50.640733"/>
     <use style="fill:#ff7f0e;stroke:#ff7f0e;stroke-linejoin:miter;" x="417.965085" xlink:href="#m46aa7e402e" y="112.344166"/>
     <use style="fill:#ff7f0e;stroke:#ff7f0e;stroke-linejoin:miter;" x="434.428308" xlink:href="#m46aa7e402e" y="112.679461"/>
     <use style="fill:#ff7f0e;stroke:#ff7f0e;stroke-linejoin:miter;" x="450.891531" xlink:href="#m46aa7e402e" y="23.099002"/>
     <use style="fill:#ff7f0e;stroke:#ff7f0e;stroke-linejoin:miter;" x="467.354754" xlink:href="#m46aa7e402e" y="20.143684"/>
     <use style="fill:#ff7f0e;stroke:#ff7f0e;stroke-linejoin:miter;" x="483.817977" xlink:href="#m46aa7e402e" y="7.940244"/>
    </g>
   </g>
   <g id="patch_8">
    <path d="M 293.66775 118.868142 
L 293.66775 1.983577 
" style="fill:none;stroke:#000000;stroke-linecap:square;stroke-linejoin:miter;stroke-width:0.8;"/>
   </g>
   <g id="patch_9">
    <path d="M 492.87275 118.868142 
L 492.87275 1.983577 
" style="fill:none;stroke:#000000;stroke-linecap:square;stroke-linejoin:miter;stroke-width:0.8;"/>
   </g>
   <g id="patch_10">
    <path d="M 293.66775 118.868142 
L 492.87275 118.868142 
" style="fill:none;stroke:#000000;stroke-linecap:square;stroke-linejoin:miter;stroke-width:0.8;"/>
   </g>
   <g id="patch_11">
    <path d="M 293.66775 1.983577 
L 492.87275 1.983577 
" style="fill:none;stroke:#000000;stroke-linecap:square;stroke-linejoin:miter;stroke-width:0.8;"/>
   </g>
   <g id="legend_2">
    <g id="line2d_33">
     <path d="M 300.41775 11.807405 
L 311.66775 11.807405 
" style="fill:none;stroke:#1f77b4;stroke-linecap:square;stroke-width:1.2;"/>
    </g>
    <g id="line2d_34">
     <g>
      <use style="fill:#1f77b4;stroke:#1f77b4;" x="306.04275" xlink:href="#ma397105566" y="11.807405"/>
     </g>
    </g>
    <g id="text_31">
     <!-- Host A -->
     <g transform="translate(317.66775 14.432405)scale(0.075 -0.075)">
      <use xlink:href="#DejaVuSerif-72"/>
      <use x="87.207031" xlink:href="#DejaVuSerif-111"/>
      <use x="147.412109" xlink:href="#DejaVuSerif-115"/>
      <use x="198.730469" xlink:href="#DejaVuSerif-116"/>
      <use x="238.916016" xlink:href="#DejaVuSerif-32"/>
      <use x="270.703125" xlink:href="#DejaVuSerif-65"/>
     </g>
    </g>
    <g id="line2d_35">
     <path d="M 300.41775 22.815999 
L 311.66775 22.815999 
" style="fill:none;stroke:#ff7f0e;stroke-linecap:square;stroke-width:1.2;"/>
    </g>
    <g id="line2d_36">
     <g>
      <use style="fill:#ff7f0e;stroke:#ff7f0e;stroke-linejoin:miter;" x="306.04275" xlink:href="#m46aa7e402e" y="22.815999"/>
     </g>
    </g>
    <g id="text_32">
     <!-- Host B -->
     <g transform="translate(317.66775 25.440999)scale(0.075 -0.075)">
      <use xlink:href="#DejaVuSerif-72"/>
      <use x="87.207031" xlink:href="#DejaVuSerif-111"/>
      <use x="147.412109" xlink:href="#DejaVuSerif-115"/>
      <use x="198.730469" xlink:href="#DejaVuSerif-116"/>
      <use x="238.916016" xlink:href="#DejaVuSerif-32"/>
      <use x="270.703125" xlink:href="#DejaVuSerif-66"/>
     </g>
    </g>
   </g>
  </g>
  <g id="axes_3">
   <g id="patch_12">
    <path d="M 41.51275 277.032707 
L 240.71775 277.032707 
L 240.71775 160.148142 
L 41.51275 160.148142 
z
" style="fill:#ffffff;"/>
   </g>
   <g id="matplotlib.axis_5">
    <g id="xtick_13">
     <g id="line2d_37">
      <g>
       <use style="stroke:#000000;stroke-width:0.8;" x="67.030746" xlink:href="#m7e733df901" y="277.032707"/>
      </g>
     </g>
     <g id="text_33">
      <!-- 2 -->
      <g transform="translate(64.644808 289.731535)scale(0.075 -0.075)">
       <use xlink:href="#DejaVuSerif-50"/>
      </g>
     </g>
    </g>
    <g id="xtick_14">
     <g id="line2d_38">
      <g>
       <use style="stroke:#000000;stroke-width:0.8;" x="99.957192" xlink:href="#m7e733df901" y="277.032707"/>
      </g>
     </g>
     <g id="text_34">
      <!-- 4 -->
      <g transform="translate(97.571255 289.731535)scale(0.075 -0.075)">
       <use xlink:href="#DejaVuSerif-52"/>
      </g>
     </g>
    </g>
    <g id="xtick_15">
     <g id="line2d_39">
      <g>
       <use style="stroke:#000000;stroke-width:0.8;" x="132.883638" xlink:href="#m7e733df901" y="277.032707"/>
      </g>
     </g>
     <g id="text_35">
      <!-- 6 -->
      <g transform="translate(130.497701 289.731535)scale(0.075 -0.075)">
       <use xlink:href="#DejaVuSerif-54"/>
      </g>
     </g>
    </g>
    <g id="xtick_16">
     <g id="line2d_40">
      <g>
       <use style="stroke:#000000;stroke-width:0.8;" x="165.810085" xlink:href="#m7e733df901" y="277.032707"/>
      </g>
     </g>
     <g id="text_36">
      <!-- 8 -->
      <g transform="translate(163.424147 289.731535)scale(0.075 -0.075)">
       <use xlink:href="#DejaVuSerif-56"/>
      </g>
     </g>
    </g>
    <g id="xtick_17">
     <g id="line2d_41">
      <g>
       <use style="stroke:#000000;stroke-width:0.8;" x="198.736531" xlink:href="#m7e733df901" y="277.032707"/>
      </g>
     </g>
     <g id="text_37">
      <!-- 10 -->
      <g transform="translate(193.964656 289.731535)scale(0.075 -0.075)">
       <use xlink:href="#DejaVuSerif-49"/>
       <use x="63.623047" xlink:href="#DejaVuSerif-48"/>
      </g>
     </g>
    </g>
    <g id="xtick_18">
     <g id="line2d_42">
      <g>
       <use style="stroke:#000000;stroke-width:0.8;" x="231.662977" xlink:href="#m7e733df901" y="277.032707"/>
      </g>
     </g>
     <g id="text_38">
      <!-- 12 -->
      <g transform="translate(226.891102 289.731535)scale(0.075 -0.075)">
       <use xlink:href="#DejaVuSerif-49"/>
       <use x="63.623047" xlink:href="#DejaVuSerif-50"/>
      </g>
     </g>
    </g>
    <g id="text_39">
     <!-- Concurrent Allreduce Processes -->
     <g transform="translate(71.634391 301.749973)scale(0.085 -0.085)">
      <use xlink:href="#DejaVuSerif-67"/>
      <use x="76.513672" xlink:href="#DejaVuSerif-111"/>
      <use x="136.71875" xlink:href="#DejaVuSerif-110"/>
      <use x="201.123047" xlink:href="#DejaVuSerif-99"/>
      <use x="257.128906" xlink:href="#DejaVuSerif-117"/>
      <use x="321.533203" xlink:href="#DejaVuSerif-114"/>
      <use x="369.335938" xlink:href="#DejaVuSerif-114"/>
      <use x="417.138672" xlink:href="#DejaVuSerif-101"/>
      <use x="476.318359" xlink:href="#DejaVuSerif-110"/>
      <use x="540.722656" xlink:href="#DejaVuSerif-116"/>
      <use x="580.908203" xlink:href="#DejaVuSerif-32"/>
      <use x="612.695312" xlink:href="#DejaVuSerif-65"/>
      <use x="684.912109" xlink:href="#DejaVuSerif-108"/>
      <use x="716.894531" xlink:href="#DejaVuSerif-108"/>
      <use x="748.876953" xlink:href="#DejaVuSerif-114"/>
      <use x="796.679688" xlink:href="#DejaVuSerif-101"/>
      <use x="855.859375" xlink:href="#DejaVuSerif-100"/>
      <use x="919.873047" xlink:href="#DejaVuSerif-117"/>
      <use x="984.277344" xlink:href="#DejaVuSerif-99"/>
      <use x="1040.283203" xlink:href="#DejaVuSerif-101"/>
      <use x="1099.462891" xlink:href="#DejaVuSerif-32"/>
      <use x="1131.25" xlink:href="#DejaVuSerif-80"/>
      <use x="1198.535156" xlink:href="#DejaVuSerif-114"/>
      <use x="1246.337891" xlink:href="#DejaVuSerif-111"/>
      <use x="1306.542969" xlink:href="#DejaVuSerif-99"/>
      <use x="1362.548828" xlink:href="#DejaVuSerif-101"/>
      <use x="1421.728516" xlink:href="#DejaVuSerif-115"/>
      <use x="1473.046875" xlink:href="#DejaVuSerif-115"/>
      <use x="1524.365234" xlink:href="#DejaVuSerif-101"/>
      <use x="1583.544922" xlink:href="#DejaVuSerif-115"/>
     </g>
    </g>
   </g>
   <g id="matplotlib.axis_6">
    <g id="ytick_13">
     <g id="line2d_43">
      <g>
       <use style="stroke:#000000;stroke-width:0.8;" x="41.51275" xlink:href="#m3d3c180f33" y="271.968683"/>
      </g>
     </g>
     <g id="text_40">
      <!-- 0.0 -->
      <g transform="translate(22.585406 274.818097)scale(0.075 -0.075)">
       <use xlink:href="#DejaVuSerif-48"/>
       <use x="63.623047" xlink:href="#DejaVuSerif-46"/>
       <use x="95.410156" xlink:href="#DejaVuSerif-48"/>
      </g>
     </g>
    </g>
    <g id="ytick_14">
     <g id="line2d_44">
      <g>
       <use style="stroke:#000000;stroke-width:0.8;" x="41.51275" xlink:href="#m3d3c180f33" y="252.783522"/>
      </g>
     </g>
     <g id="text_41">
      <!-- 0.5 -->
      <g transform="translate(22.585406 255.632936)scale(0.075 -0.075)">
       <use xlink:href="#DejaVuSerif-48"/>
       <use x="63.623047" xlink:href="#DejaVuSerif-46"/>
       <use x="95.410156" xlink:href="#DejaVuSerif-53"/>
      </g>
     </g>
    </g>
    <g id="ytick_15">
     <g id="line2d_45">
      <g>
       <use style="stroke:#000000;stroke-width:0.8;" x="41.51275" xlink:href="#m3d3c180f33" y="233.598362"/>
      </g>
     </g>
     <g id="text_42">
      <!-- 1.0 -->
      <g transform="translate(22.585406 236.447776)scale(0.075 -0.075)">
       <use xlink:href="#DejaVuSerif-49"/>
       <use x="63.623047" xlink:href="#DejaVuSerif-46"/>
       <use x="95.410156" xlink:href="#DejaVuSerif-48"/>
      </g>
     </g>
    </g>
    <g id="ytick_16">
     <g id="line2d_46">
      <g>
       <use style="stroke:#000000;stroke-width:0.8;" x="41.51275" xlink:href="#m3d3c180f33" y="214.413202"/>
      </g>
     </g>
     <g id="text_43">
      <!-- 1.5 -->
      <g transform="translate(22.585406 217.262616)scale(0.075 -0.075)">
       <use xlink:href="#DejaVuSerif-49"/>
       <use x="63.623047" xlink:href="#DejaVuSerif-46"/>
       <use x="95.410156" xlink:href="#DejaVuSerif-53"/>
      </g>
     </g>
    </g>
    <g id="ytick_17">
     <g id="line2d_47">
      <g>
       <use style="stroke:#000000;stroke-width:0.8;" x="41.51275" xlink:href="#m3d3c180f33" y="195.228042"/>
      </g>
     </g>
     <g id="text_44">
      <!-- 2.0 -->
      <g transform="translate(22.585406 198.077456)scale(0.075 -0.075)">
       <use xlink:href="#DejaVuSerif-50"/>
       <use x="63.623047" xlink:href="#DejaVuSerif-46"/>
       <use x="95.410156" xlink:href="#DejaVuSerif-48"/>
      </g>
     </g>
    </g>
    <g id="ytick_18">
     <g id="line2d_48">
      <g>
       <use style="stroke:#000000;stroke-width:0.8;" x="41.51275" xlink:href="#m3d3c180f33" y="176.042881"/>
      </g>
     </g>
     <g id="text_45">
      <!-- 2.5 -->
      <g transform="translate(22.585406 178.892295)scale(0.075 -0.075)">
       <use xlink:href="#DejaVuSerif-50"/>
       <use x="63.623047" xlink:href="#DejaVuSerif-46"/>
       <use x="95.410156" xlink:href="#DejaVuSerif-53"/>
      </g>
     </g>
    </g>
    <g id="text_46">
     <!-- Inbound Traffic Engine Stall Cycles -->
     <g transform="translate(7.178672 295.302925)rotate(-90)scale(0.085 -0.085)">
      <defs>
       <path d="M 24.703125 5.171875 
L 33.984375 5.171875 
L 33.984375 0 
L 5.515625 0 
L 5.515625 5.171875 
L 14.796875 5.171875 
L 14.796875 67.671875 
L 5.515625 67.671875 
L 5.515625 72.90625 
L 33.984375 72.90625 
L 33.984375 67.671875 
L 24.703125 67.671875 
z
" id="DejaVuSerif-73"/>
       <path d="M 19.09375 0 
L 19.09375 5.171875 
L 28.421875 5.171875 
L 28.421875 67.09375 
L 6.984375 67.09375 
L 6.984375 55.71875 
L 0.984375 55.71875 
L 0.984375 72.90625 
L 65.71875 72.90625 
L 65.71875 55.71875 
L 59.71875 55.71875 
L 59.71875 67.09375 
L 38.28125 67.09375 
L 38.28125 5.171875 
L 47.609375 5.171875 
L 47.609375 0 
z
" id="DejaVuSerif-84"/>
       <path d="M 43.015625 63.71875 
L 38.28125 63.71875 
Q 38.234375 67.390625 36.203125 69.28125 
Q 34.1875 71.1875 30.328125 71.1875 
Q 25.296875 71.1875 23.234375 68.421875 
Q 21.1875 65.671875 21.1875 58.59375 
L 21.1875 51.90625 
L 35.6875 51.90625 
L 35.6875 46.6875 
L 21.1875 46.6875 
L 21.1875 5.171875 
L 32.71875 5.171875 
L 32.71875 0 
L 3.609375 0 
L 3.609375 5.171875 
L 12.203125 5.171875 
L 12.203125 46.6875 
L 3.609375 46.6875 
L 3.609375 51.90625 
L 12.203125 51.90625 
L 12.203125 58.40625 
Q 12.203125 67.09375 16.71875 71.53125 
Q 21.234375 75.984375 29.984375 75.984375 
Q 33.25 75.984375 36.515625 75.390625 
Q 39.796875 74.8125 43.015625 73.578125 
z
" id="DejaVuSerif-102"/>
       <path d="M 5.515625 0 
L 5.515625 5.171875 
L 14.796875 5.171875 
L 14.796875 67.671875 
L 5.515625 67.671875 
L 5.515625 72.90625 
L 64.203125 72.90625 
L 64.203125 56.6875 
L 58.203125 56.6875 
L 58.203125 66.890625 
L 24.703125 66.890625 
L 24.703125 42.484375 
L 48.578125 42.484375 
L 48.578125 51.609375 
L 54.59375 51.609375 
L 54.59375 27.390625 
L 48.578125 27.390625 
L 48.578125 36.53125 
L 24.703125 36.53125 
L 24.703125 6 
L 58.984375 6 
L 58.984375 16.21875 
L 64.984375 16.21875 
L 64.984375 0 
z
" id="DejaVuSerif-69"/>
       <path d="M 52.484375 46.6875 
L 52.484375 1.125 
Q 52.484375 -10.0625 46.328125 -16.140625 
Q 40.1875 -22.21875 28.8125 -22.21875 
Q 23.6875 -22.21875 19 -21.28125 
Q 14.3125 -20.359375 10.015625 -18.5 
L 10.015625 -7.625 
L 14.703125 -7.625 
Q 15.578125 -12.703125 18.84375 -15.046875 
Q 22.125 -17.390625 28.21875 -17.390625 
Q 36.140625 -17.390625 39.8125 -12.921875 
Q 43.5 -8.453125 43.5 1.125 
L 43.5 8.109375 
Q 40.875 3.21875 36.796875 0.890625 
Q 32.71875 -1.421875 26.703125 -1.421875 
Q 17.140625 -1.421875 11.0625 6.171875 
Q 4.984375 13.765625 4.984375 25.984375 
Q 4.984375 38.1875 11.03125 45.75 
Q 17.09375 53.328125 26.703125 53.328125 
Q 32.71875 53.328125 36.796875 51 
Q 40.875 48.6875 43.5 43.796875 
L 43.5 51.90625 
L 61.078125 51.90625 
L 61.078125 46.6875 
z
M 43.5 28.515625 
Q 43.5 37.84375 39.90625 42.765625 
Q 36.328125 47.703125 29.5 47.703125 
Q 22.5625 47.703125 19.015625 42.234375 
Q 15.484375 36.765625 15.484375 25.984375 
Q 15.484375 15.234375 19.015625 9.71875 
Q 22.5625 4.203125 29.5 4.203125 
Q 36.328125 4.203125 39.90625 9.109375 
Q 43.5 14.015625 43.5 23.390625 
z
" id="DejaVuSerif-103"/>
       <path d="M 9.28125 3.515625 
L 9.28125 20.125 
L 14.890625 20.0625 
Q 15.140625 11.765625 19.703125 7.78125 
Q 24.265625 3.8125 33.59375 3.8125 
Q 42.28125 3.8125 46.84375 7.25 
Q 51.421875 10.6875 51.421875 17.28125 
Q 51.421875 22.5625 48.65625 25.390625 
Q 45.90625 28.21875 37.015625 30.90625 
L 27.390625 33.796875 
Q 16.9375 36.96875 12.671875 41.703125 
Q 8.40625 46.4375 8.40625 54.6875 
Q 8.40625 63.96875 14.984375 69.09375 
Q 21.578125 74.21875 33.5 74.21875 
Q 38.578125 74.21875 44.625 73.109375 
Q 50.6875 72.015625 57.515625 69.921875 
L 57.515625 54.390625 
L 52 54.390625 
Q 51.171875 62.109375 46.84375 65.546875 
Q 42.53125 69 33.6875 69 
Q 25.984375 69 21.953125 65.84375 
Q 17.921875 62.703125 17.921875 56.6875 
Q 17.921875 51.46875 20.9375 48.484375 
Q 23.96875 45.515625 33.796875 42.578125 
L 42.828125 39.890625 
Q 52.734375 36.921875 56.953125 32.296875 
Q 61.1875 27.6875 61.1875 19.921875 
Q 61.1875 9.328125 54.390625 3.953125 
Q 47.609375 -1.421875 34.1875 -1.421875 
Q 28.171875 -1.421875 21.9375 -0.1875 
Q 15.71875 1.03125 9.28125 3.515625 
z
" id="DejaVuSerif-83"/>
       <path d="M 21.578125 -9.515625 
L 25 -0.875 
L 5.609375 46.6875 
L -0.296875 46.6875 
L -0.296875 51.90625 
L 23.578125 51.90625 
L 23.578125 46.6875 
L 15.28125 46.6875 
L 29.890625 10.984375 
L 44.484375 46.6875 
L 36.71875 46.6875 
L 36.71875 51.90625 
L 56.203125 51.90625 
L 56.203125 46.6875 
L 50.390625 46.6875 
L 26.609375 -11.71875 
Q 24.171875 -17.78125 21.1875 -20 
Q 18.21875 -22.21875 12.796875 -22.21875 
Q 10.5 -22.21875 8.078125 -21.828125 
Q 5.671875 -21.4375 3.21875 -20.703125 
L 3.21875 -10.796875 
L 7.8125 -10.796875 
Q 8.109375 -14.109375 9.5 -15.546875 
Q 10.890625 -17 13.8125 -17 
Q 16.5 -17 18.140625 -15.5 
Q 19.78125 -14.015625 21.578125 -9.515625 
z
" id="DejaVuSerif-121"/>
      </defs>
      <use xlink:href="#DejaVuSerif-73"/>
      <use x="39.501953" xlink:href="#DejaVuSerif-110"/>
      <use x="103.90625" xlink:href="#DejaVuSerif-98"/>
      <use x="167.919922" xlink:href="#DejaVuSerif-111"/>
      <use x="228.125" xlink:href="#DejaVuSerif-117"/>
      <use x="292.529297" xlink:href="#DejaVuSerif-110"/>
      <use x="356.933594" xlink:href="#DejaVuSerif-100"/>
      <use x="420.947266" xlink:href="#DejaVuSerif-32"/>
      <use x="452.734375" xlink:href="#DejaVuSerif-84"/>
      <use x="519.433594" xlink:href="#DejaVuSerif-114"/>
      <use x="567.236328" xlink:href="#DejaVuSerif-97"/>
      <use x="626.855469" xlink:href="#DejaVuSerif-102"/>
      <use x="663.867188" xlink:href="#DejaVuSerif-102"/>
      <use x="700.878906" xlink:href="#DejaVuSerif-105"/>
      <use x="732.861328" xlink:href="#DejaVuSerif-99"/>
      <use x="788.867188" xlink:href="#DejaVuSerif-32"/>
      <use x="820.654297" xlink:href="#DejaVuSerif-69"/>
      <use x="893.652344" xlink:href="#DejaVuSerif-110"/>
      <use x="958.056641" xlink:href="#DejaVuSerif-103"/>
      <use x="1022.070312" xlink:href="#DejaVuSerif-105"/>
      <use x="1054.052734" xlink:href="#DejaVuSerif-110"/>
      <use x="1118.457031" xlink:href="#DejaVuSerif-101"/>
      <use x="1177.636719" xlink:href="#DejaVuSerif-32"/>
      <use x="1209.423828" xlink:href="#DejaVuSerif-83"/>
      <use x="1277.929688" xlink:href="#DejaVuSerif-116"/>
      <use x="1318.115234" xlink:href="#DejaVuSerif-97"/>
      <use x="1377.734375" xlink:href="#DejaVuSerif-108"/>
      <use x="1409.716797" xlink:href="#DejaVuSerif-108"/>
      <use x="1441.699219" xlink:href="#DejaVuSerif-32"/>
      <use x="1473.486328" xlink:href="#DejaVuSerif-67"/>
      <use x="1550" xlink:href="#DejaVuSerif-121"/>
      <use x="1606.494141" xlink:href="#DejaVuSerif-99"/>
      <use x="1662.5" xlink:href="#DejaVuSerif-108"/>
      <use x="1694.482422" xlink:href="#DejaVuSerif-101"/>
      <use x="1753.662109" xlink:href="#DejaVuSerif-115"/>
     </g>
     <!-- (Packet Buffer Full) -->
     <g transform="translate(16.817672 260.947651)rotate(-90)scale(0.085 -0.085)">
      <defs>
       <path d="M 31.890625 -15.578125 
Q 20.015625 -10.25 13.953125 1.296875 
Q 7.90625 12.84375 7.90625 30.171875 
Q 7.90625 47.5625 13.953125 59.109375 
Q 20.015625 70.65625 31.890625 75.984375 
L 31.890625 71.1875 
Q 24.359375 66.015625 21.09375 56.609375 
Q 17.828125 47.21875 17.828125 30.171875 
Q 17.828125 13.1875 21.09375 3.78125 
Q 24.359375 -5.609375 31.890625 -10.796875 
z
" id="DejaVuSerif-40"/>
       <path d="M 5.515625 0 
L 5.515625 5.171875 
L 14.796875 5.171875 
L 14.796875 67.671875 
L 5.515625 67.671875 
L 5.515625 72.90625 
L 65.1875 72.90625 
L 65.1875 56.6875 
L 59.1875 56.6875 
L 59.1875 66.890625 
L 24.703125 66.890625 
L 24.703125 42.484375 
L 49.609375 42.484375 
L 49.609375 51.609375 
L 55.609375 51.609375 
L 55.609375 27.390625 
L 49.609375 27.390625 
L 49.609375 36.53125 
L 24.703125 36.53125 
L 24.703125 5.171875 
L 36.375 5.171875 
L 36.375 0 
z
" id="DejaVuSerif-70"/>
       <path d="M 7.078125 -15.578125 
L 7.078125 -10.796875 
Q 14.59375 -5.609375 17.890625 3.78125 
Q 21.1875 13.1875 21.1875 30.171875 
Q 21.1875 47.21875 17.890625 56.609375 
Q 14.59375 66.015625 7.078125 71.1875 
L 7.078125 75.984375 
Q 19 70.65625 25.046875 59.109375 
Q 31.109375 47.5625 31.109375 30.171875 
Q 31.109375 12.84375 25.046875 1.296875 
Q 19 -10.25 7.078125 -15.578125 
z
" id="DejaVuSerif-41"/>
      </defs>
      <use xlink:href="#DejaVuSerif-40"/>
      <use x="39.013672" xlink:href="#DejaVuSerif-80"/>
      <use x="101.798828" xlink:href="#DejaVuSerif-97"/>
      <use x="161.417969" xlink:href="#DejaVuSerif-99"/>
      <use x="217.423828" xlink:href="#DejaVuSerif-107"/>
      <use x="278.019531" xlink:href="#DejaVuSerif-101"/>
      <use x="337.199219" xlink:href="#DejaVuSerif-116"/>
      <use x="377.384766" xlink:href="#DejaVuSerif-32"/>
      <use x="409.171875" xlink:href="#DejaVuSerif-66"/>
      <use x="482.658203" xlink:href="#DejaVuSerif-117"/>
      <use x="547.0625" xlink:href="#DejaVuSerif-102"/>
      <use x="584.074219" xlink:href="#DejaVuSerif-102"/>
      <use x="621.085938" xlink:href="#DejaVuSerif-101"/>
      <use x="680.265625" xlink:href="#DejaVuSerif-114"/>
      <use x="728.068359" xlink:href="#DejaVuSerif-32"/>
      <use x="759.855469" xlink:href="#DejaVuSerif-70"/>
      <use x="829.240234" xlink:href="#DejaVuSerif-117"/>
      <use x="893.644531" xlink:href="#DejaVuSerif-108"/>
      <use x="925.626953" xlink:href="#DejaVuSerif-108"/>
      <use x="957.609375" xlink:href="#DejaVuSerif-41"/>
     </g>
    </g>
    <g id="text_47">
     <!-- 1e8 -->
     <g transform="translate(41.51275 157.148142)scale(0.075 -0.075)">
      <use xlink:href="#DejaVuSerif-49"/>
      <use x="63.623047" xlink:href="#DejaVuSerif-101"/>
      <use x="122.802734" xlink:href="#DejaVuSerif-56"/>
     </g>
    </g>
   </g>
   <g id="line2d_49">
    <path clip-path="url(#p594a20cf89)" d="M 50.567523 271.691803 
L 67.030746 271.136584 
L 83.493969 270.055563 
L 99.957192 268.577597 
L 116.420415 265.665844 
L 132.883638 261.832353 
L 149.346862 257.861747 
L 165.810085 218.321477 
L 182.273308 207.05021 
L 198.736531 194.972803 
L 215.199754 186.009059 
L 231.662977 167.546466 
" style="fill:none;stroke:#1f77b4;stroke-linecap:square;stroke-width:1.2;"/>
    <g clip-path="url(#p594a20cf89)">
     <use style="fill:#1f77b4;stroke:#1f77b4;" x="50.567523" xlink:href="#ma397105566" y="271.691803"/>
     <use style="fill:#1f77b4;stroke:#1f77b4;" x="67.030746" xlink:href="#ma397105566" y="271.136584"/>
     <use style="fill:#1f77b4;stroke:#1f77b4;" x="83.493969" xlink:href="#ma397105566" y="270.055563"/>
     <use style="fill:#1f77b4;stroke:#1f77b4;" x="99.957192" xlink:href="#ma397105566" y="268.577597"/>
     <use style="fill:#1f77b4;stroke:#1f77b4;" x="116.420415" xlink:href="#ma397105566" y="265.665844"/>
     <use style="fill:#1f77b4;stroke:#1f77b4;" x="132.883638" xlink:href="#ma397105566" y="261.832353"/>
     <use style="fill:#1f77b4;stroke:#1f77b4;" x="149.346862" xlink:href="#ma397105566" y="257.861747"/>
     <use style="fill:#1f77b4;stroke:#1f77b4;" x="165.810085" xlink:href="#ma397105566" y="218.321477"/>
     <use style="fill:#1f77b4;stroke:#1f77b4;" x="182.273308" xlink:href="#ma397105566" y="207.05021"/>
     <use style="fill:#1f77b4;stroke:#1f77b4;" x="198.736531" xlink:href="#ma397105566" y="194.972803"/>
     <use style="fill:#1f77b4;stroke:#1f77b4;" x="215.199754" xlink:href="#ma397105566" y="186.009059"/>
     <use style="fill:#1f77b4;stroke:#1f77b4;" x="231.662977" xlink:href="#ma397105566" y="167.546466"/>
    </g>
   </g>
   <g id="line2d_50">
    <path clip-path="url(#p594a20cf89)" d="M 50.567523 271.719772 
L 67.030746 271.163978 
L 83.493969 270.5393 
L 99.957192 268.250089 
L 116.420415 265.944568 
L 132.883638 262.256815 
L 149.346862 230.420723 
L 165.810085 253.818812 
L 182.273308 250.930431 
L 198.736531 196.949454 
L 215.199754 187.564546 
L 231.662977 165.461077 
" style="fill:none;stroke:#ff7f0e;stroke-linecap:square;stroke-width:1.2;"/>
    <g clip-path="url(#p594a20cf89)">
     <use style="fill:#ff7f0e;stroke:#ff7f0e;stroke-linejoin:miter;" x="50.567523" xlink:href="#m46aa7e402e" y="271.719772"/>
     <use style="fill:#ff7f0e;stroke:#ff7f0e;stroke-linejoin:miter;" x="67.030746" xlink:href="#m46aa7e402e" y="271.163978"/>
     <use style="fill:#ff7f0e;stroke:#ff7f0e;stroke-linejoin:miter;" x="83.493969" xlink:href="#m46aa7e402e" y="270.5393"/>
     <use style="fill:#ff7f0e;stroke:#ff7f0e;stroke-linejoin:miter;" x="99.957192" xlink:href="#m46aa7e402e" y="268.250089"/>
     <use style="fill:#ff7f0e;stroke:#ff7f0e;stroke-linejoin:miter;" x="116.420415" xlink:href="#m46aa7e402e" y="265.944568"/>
     <use style="fill:#ff7f0e;stroke:#ff7f0e;stroke-linejoin:miter;" x="132.883638" xlink:href="#m46aa7e402e" y="262.256815"/>
     <use style="fill:#ff7f0e;stroke:#ff7f0e;stroke-linejoin:miter;" x="149.346862" xlink:href="#m46aa7e402e" y="230.420723"/>
     <use style="fill:#ff7f0e;stroke:#ff7f0e;stroke-linejoin:miter;" x="165.810085" xlink:href="#m46aa7e402e" y="253.818812"/>
     <use style="fill:#ff7f0e;stroke:#ff7f0e;stroke-linejoin:miter;" x="182.273308" xlink:href="#m46aa7e402e" y="250.930431"/>
     <use style="fill:#ff7f0e;stroke:#ff7f0e;stroke-linejoin:miter;" x="198.736531" xlink:href="#m46aa7e402e" y="196.949454"/>
     <use style="fill:#ff7f0e;stroke:#ff7f0e;stroke-linejoin:miter;" x="215.199754" xlink:href="#m46aa7e402e" y="187.564546"/>
     <use style="fill:#ff7f0e;stroke:#ff7f0e;stroke-linejoin:miter;" x="231.662977" xlink:href="#m46aa7e402e" y="165.461077"/>
    </g>
   </g>
   <g id="patch_13">
    <path d="M 41.51275 277.032707 
L 41.51275 160.148142 
" style="fill:none;stroke:#000000;stroke-linecap:square;stroke-linejoin:miter;stroke-width:0.8;"/>
   </g>
   <g id="patch_14">
    <path d="M 240.71775 277.032707 
L 240.71775 160.148142 
" style="fill:none;stroke:#000000;stroke-linecap:square;stroke-linejoin:miter;stroke-width:0.8;"/>
   </g>
   <g id="patch_15">
    <path d="M 41.51275 277.032707 
L 240.71775 277.032707 
" style="fill:none;stroke:#000000;stroke-linecap:square;stroke-linejoin:miter;stroke-width:0.8;"/>
   </g>
   <g id="patch_16">
    <path d="M 41.51275 160.148142 
L 240.71775 160.148142 
" style="fill:none;stroke:#000000;stroke-linecap:square;stroke-linejoin:miter;stroke-width:0.8;"/>
   </g>
   <g id="legend_3">
    <g id="line2d_51">
     <path d="M 48.26275 169.97197 
L 59.51275 169.97197 
" style="fill:none;stroke:#1f77b4;stroke-linecap:square;stroke-width:1.2;"/>
    </g>
    <g id="line2d_52">
     <g>
      <use style="fill:#1f77b4;stroke:#1f77b4;" x="53.88775" xlink:href="#ma397105566" y="169.97197"/>
     </g>
    </g>
    <g id="text_48">
     <!-- Host A -->
     <g transform="translate(65.51275 172.59697)scale(0.075 -0.075)">
      <use xlink:href="#DejaVuSerif-72"/>
      <use x="87.207031" xlink:href="#DejaVuSerif-111"/>
      <use x="147.412109" xlink:href="#DejaVuSerif-115"/>
      <use x="198.730469" xlink:href="#DejaVuSerif-116"/>
      <use x="238.916016" xlink:href="#DejaVuSerif-32"/>
      <use x="270.703125" xlink:href="#DejaVuSerif-65"/>
     </g>
    </g>
    <g id="line2d_53">
     <path d="M 48.26275 180.980564 
L 59.51275 180.980564 
" style="fill:none;stroke:#ff7f0e;stroke-linecap:square;stroke-width:1.2;"/>
    </g>
    <g id="line2d_54">
     <g>
      <use style="fill:#ff7f0e;stroke:#ff7f0e;stroke-linejoin:miter;" x="53.88775" xlink:href="#m46aa7e402e" y="180.980564"/>
     </g>
    </g>
    <g id="text_49">
     <!-- Host B -->
     <g transform="translate(65.51275 183.605564)scale(0.075 -0.075)">
      <use xlink:href="#DejaVuSerif-72"/>
      <use x="87.207031" xlink:href="#DejaVuSerif-111"/>
      <use x="147.412109" xlink:href="#DejaVuSerif-115"/>
      <use x="198.730469" xlink:href="#DejaVuSerif-116"/>
      <use x="238.916016" xlink:href="#DejaVuSerif-32"/>
      <use x="270.703125" xlink:href="#DejaVuSerif-66"/>
     </g>
    </g>
   </g>
  </g>
  <g id="axes_4">
   <g id="patch_17">
    <path d="M 293.66775 277.032707 
L 492.87275 277.032707 
L 492.87275 160.148142 
L 293.66775 160.148142 
z
" style="fill:#ffffff;"/>
   </g>
   <g id="matplotlib.axis_7">
    <g id="xtick_19">
     <g id="line2d_55">
      <g>
       <use style="stroke:#000000;stroke-width:0.8;" x="319.185746" xlink:href="#m7e733df901" y="277.032707"/>
      </g>
     </g>
     <g id="text_50">
      <!-- 2 -->
      <g transform="translate(316.799808 289.731535)scale(0.075 -0.075)">
       <use xlink:href="#DejaVuSerif-50"/>
      </g>
     </g>
    </g>
    <g id="xtick_20">
     <g id="line2d_56">
      <g>
       <use style="stroke:#000000;stroke-width:0.8;" x="352.112192" xlink:href="#m7e733df901" y="277.032707"/>
      </g>
     </g>
     <g id="text_51">
      <!-- 4 -->
      <g transform="translate(349.726255 289.731535)scale(0.075 -0.075)">
       <use xlink:href="#DejaVuSerif-52"/>
      </g>
     </g>
    </g>
    <g id="xtick_21">
     <g id="line2d_57">
      <g>
       <use style="stroke:#000000;stroke-width:0.8;" x="385.038638" xlink:href="#m7e733df901" y="277.032707"/>
      </g>
     </g>
     <g id="text_52">
      <!-- 6 -->
      <g transform="translate(382.652701 289.731535)scale(0.075 -0.075)">
       <use xlink:href="#DejaVuSerif-54"/>
      </g>
     </g>
    </g>
    <g id="xtick_22">
     <g id="line2d_58">
      <g>
       <use style="stroke:#000000;stroke-width:0.8;" x="417.965085" xlink:href="#m7e733df901" y="277.032707"/>
      </g>
     </g>
     <g id="text_53">
      <!-- 8 -->
      <g transform="translate(415.579147 289.731535)scale(0.075 -0.075)">
       <use xlink:href="#DejaVuSerif-56"/>
      </g>
     </g>
    </g>
    <g id="xtick_23">
     <g id="line2d_59">
      <g>
       <use style="stroke:#000000;stroke-width:0.8;" x="450.891531" xlink:href="#m7e733df901" y="277.032707"/>
      </g>
     </g>
     <g id="text_54">
      <!-- 10 -->
      <g transform="translate(446.119656 289.731535)scale(0.075 -0.075)">
       <use xlink:href="#DejaVuSerif-49"/>
       <use x="63.623047" xlink:href="#DejaVuSerif-48"/>
      </g>
     </g>
    </g>
    <g id="xtick_24">
     <g id="line2d_60">
      <g>
       <use style="stroke:#000000;stroke-width:0.8;" x="483.817977" xlink:href="#m7e733df901" y="277.032707"/>
      </g>
     </g>
     <g id="text_55">
      <!-- 12 -->
      <g transform="translate(479.046102 289.731535)scale(0.075 -0.075)">
       <use xlink:href="#DejaVuSerif-49"/>
       <use x="63.623047" xlink:href="#DejaVuSerif-50"/>
      </g>
     </g>
    </g>
    <g id="text_56">
     <!-- Concurrent Allreduce Processes -->
     <g transform="translate(323.789391 301.749973)scale(0.085 -0.085)">
      <use xlink:href="#DejaVuSerif-67"/>
      <use x="76.513672" xlink:href="#DejaVuSerif-111"/>
      <use x="136.71875" xlink:href="#DejaVuSerif-110"/>
      <use x="201.123047" xlink:href="#DejaVuSerif-99"/>
      <use x="257.128906" xlink:href="#DejaVuSerif-117"/>
      <use x="321.533203" xlink:href="#DejaVuSerif-114"/>
      <use x="369.335938" xlink:href="#DejaVuSerif-114"/>
      <use x="417.138672" xlink:href="#DejaVuSerif-101"/>
      <use x="476.318359" xlink:href="#DejaVuSerif-110"/>
      <use x="540.722656" xlink:href="#DejaVuSerif-116"/>
      <use x="580.908203" xlink:href="#DejaVuSerif-32"/>
      <use x="612.695312" xlink:href="#DejaVuSerif-65"/>
      <use x="684.912109" xlink:href="#DejaVuSerif-108"/>
      <use x="716.894531" xlink:href="#DejaVuSerif-108"/>
      <use x="748.876953" xlink:href="#DejaVuSerif-114"/>
      <use x="796.679688" xlink:href="#DejaVuSerif-101"/>
      <use x="855.859375" xlink:href="#DejaVuSerif-100"/>
      <use x="919.873047" xlink:href="#DejaVuSerif-117"/>
      <use x="984.277344" xlink:href="#DejaVuSerif-99"/>
      <use x="1040.283203" xlink:href="#DejaVuSerif-101"/>
      <use x="1099.462891" xlink:href="#DejaVuSerif-32"/>
      <use x="1131.25" xlink:href="#DejaVuSerif-80"/>
      <use x="1198.535156" xlink:href="#DejaVuSerif-114"/>
      <use x="1246.337891" xlink:href="#DejaVuSerif-111"/>
      <use x="1306.542969" xlink:href="#DejaVuSerif-99"/>
      <use x="1362.548828" xlink:href="#DejaVuSerif-101"/>
      <use x="1421.728516" xlink:href="#DejaVuSerif-115"/>
      <use x="1473.046875" xlink:href="#DejaVuSerif-115"/>
      <use x="1524.365234" xlink:href="#DejaVuSerif-101"/>
      <use x="1583.544922" xlink:href="#DejaVuSerif-115"/>
     </g>
    </g>
   </g>
   <g id="matplotlib.axis_8">
    <g id="ytick_19">
     <g id="line2d_61">
      <g>
       <use style="stroke:#000000;stroke-width:0.8;" x="293.66775" xlink:href="#m3d3c180f33" y="272.762883"/>
      </g>
     </g>
     <g id="text_57">
      <!-- 1.1 -->
      <g transform="translate(274.740406 275.612297)scale(0.075 -0.075)">
       <use xlink:href="#DejaVuSerif-49"/>
       <use x="63.623047" xlink:href="#DejaVuSerif-46"/>
       <use x="95.410156" xlink:href="#DejaVuSerif-49"/>
      </g>
     </g>
    </g>
    <g id="ytick_20">
     <g id="line2d_62">
      <g>
       <use style="stroke:#000000;stroke-width:0.8;" x="293.66775" xlink:href="#m3d3c180f33" y="241.250554"/>
      </g>
     </g>
     <g id="text_58">
      <!-- 1.2 -->
      <g transform="translate(274.740406 244.099968)scale(0.075 -0.075)">
       <use xlink:href="#DejaVuSerif-49"/>
       <use x="63.623047" xlink:href="#DejaVuSerif-46"/>
       <use x="95.410156" xlink:href="#DejaVuSerif-50"/>
      </g>
     </g>
    </g>
    <g id="ytick_21">
     <g id="line2d_63">
      <g>
       <use style="stroke:#000000;stroke-width:0.8;" x="293.66775" xlink:href="#m3d3c180f33" y="209.738225"/>
      </g>
     </g>
     <g id="text_59">
      <!-- 1.3 -->
      <g transform="translate(274.740406 212.58764)scale(0.075 -0.075)">
       <use xlink:href="#DejaVuSerif-49"/>
       <use x="63.623047" xlink:href="#DejaVuSerif-46"/>
       <use x="95.410156" xlink:href="#DejaVuSerif-51"/>
      </g>
     </g>
    </g>
    <g id="ytick_22">
     <g id="line2d_64">
      <g>
       <use style="stroke:#000000;stroke-width:0.8;" x="293.66775" xlink:href="#m3d3c180f33" y="178.225897"/>
      </g>
     </g>
     <g id="text_60">
      <!-- 1.4 -->
      <g transform="translate(274.740406 181.075311)scale(0.075 -0.075)">
       <use xlink:href="#DejaVuSerif-49"/>
       <use x="63.623047" xlink:href="#DejaVuSerif-46"/>
       <use x="95.410156" xlink:href="#DejaVuSerif-52"/>
      </g>
     </g>
    </g>
    <g id="text_61">
     <!-- Average Allreduce Latency (s) -->
     <g transform="translate(268.851813 283.543706)rotate(-90)scale(0.085 -0.085)">
      <defs>
       <path d="M 24.703125 0 
L 5.609375 46.6875 
L -0.296875 46.6875 
L -0.296875 51.90625 
L 23.578125 51.90625 
L 23.578125 46.6875 
L 15.28125 46.6875 
L 29.890625 10.984375 
L 44.484375 46.6875 
L 36.71875 46.6875 
L 36.71875 51.90625 
L 56.203125 51.90625 
L 56.203125 46.6875 
L 50.390625 46.6875 
L 31.296875 0 
z
" id="DejaVuSerif-118"/>
       <path d="M 5.515625 0 
L 5.515625 5.171875 
L 14.796875 5.171875 
L 14.796875 67.671875 
L 5.515625 67.671875 
L 5.515625 72.90625 
L 33.984375 72.90625 
L 33.984375 67.671875 
L 24.703125 67.671875 
L 24.703125 6 
L 58.015625 6 
L 58.015625 18.21875 
L 64.015625 18.21875 
L 64.015625 0 
z
" id="DejaVuSerif-76"/>
      </defs>
      <use xlink:href="#DejaVuSerif-65"/>
      <use x="68.216797" xlink:href="#DejaVuSerif-118"/>
      <use x="124.710938" xlink:href="#DejaVuSerif-101"/>
      <use x="183.890625" xlink:href="#DejaVuSerif-114"/>
      <use x="231.693359" xlink:href="#DejaVuSerif-97"/>
      <use x="291.3125" xlink:href="#DejaVuSerif-103"/>
      <use x="355.326172" xlink:href="#DejaVuSerif-101"/>
      <use x="414.505859" xlink:href="#DejaVuSerif-32"/>
      <use x="446.292969" xlink:href="#DejaVuSerif-65"/>
      <use x="518.509766" xlink:href="#DejaVuSerif-108"/>
      <use x="550.492188" xlink:href="#DejaVuSerif-108"/>
      <use x="582.474609" xlink:href="#DejaVuSerif-114"/>
      <use x="630.277344" xlink:href="#DejaVuSerif-101"/>
      <use x="689.457031" xlink:href="#DejaVuSerif-100"/>
      <use x="753.470703" xlink:href="#DejaVuSerif-117"/>
      <use x="817.875" xlink:href="#DejaVuSerif-99"/>
      <use x="873.880859" xlink:href="#DejaVuSerif-101"/>
      <use x="933.060547" xlink:href="#DejaVuSerif-32"/>
      <use x="964.847656" xlink:href="#DejaVuSerif-76"/>
      <use x="1031.253906" xlink:href="#DejaVuSerif-97"/>
      <use x="1090.873047" xlink:href="#DejaVuSerif-116"/>
      <use x="1131.058594" xlink:href="#DejaVuSerif-101"/>
      <use x="1190.238281" xlink:href="#DejaVuSerif-110"/>
      <use x="1254.642578" xlink:href="#DejaVuSerif-99"/>
      <use x="1310.648438" xlink:href="#DejaVuSerif-121"/>
      <use x="1367.142578" xlink:href="#DejaVuSerif-32"/>
      <use x="1398.929688" xlink:href="#DejaVuSerif-40"/>
      <use x="1437.943359" xlink:href="#DejaVuSerif-115"/>
      <use x="1489.261719" xlink:href="#DejaVuSerif-41"/>
     </g>
    </g>
   </g>
   <g id="LineCollection_1">
    <path clip-path="url(#p96bc865783)" d="M 302.722523 255.330678 
L 302.722523 252.310966 
" style="fill:none;stroke:#1f77b4;stroke-width:1.2;"/>
    <path clip-path="url(#p96bc865783)" d="M 319.185746 269.970947 
L 319.185746 267.103212 
" style="fill:none;stroke:#1f77b4;stroke-width:1.2;"/>
    <path clip-path="url(#p96bc865783)" d="M 335.648969 271.519488 
L 335.648969 268.283639 
" style="fill:none;stroke:#1f77b4;stroke-width:1.2;"/>
    <path clip-path="url(#p96bc865783)" d="M 352.112192 271.719772 
L 352.112192 269.142168 
" style="fill:none;stroke:#1f77b4;stroke-width:1.2;"/>
    <path clip-path="url(#p96bc865783)" d="M 368.575415 267.525367 
L 368.575415 264.777825 
" style="fill:none;stroke:#1f77b4;stroke-width:1.2;"/>
    <path clip-path="url(#p96bc865783)" d="M 385.038638 248.751795 
L 385.038638 244.009728 
" style="fill:none;stroke:#1f77b4;stroke-width:1.2;"/>
    <path clip-path="url(#p96bc865783)" d="M 401.501862 232.910178 
L 401.501862 225.673073 
" style="fill:none;stroke:#1f77b4;stroke-width:1.2;"/>
    <path clip-path="url(#p96bc865783)" d="M 417.965085 215.467304 
L 417.965085 208.61625 
" style="fill:none;stroke:#1f77b4;stroke-width:1.2;"/>
    <path clip-path="url(#p96bc865783)" d="M 434.428308 208.557952 
L 434.428308 201.9753 
" style="fill:none;stroke:#1f77b4;stroke-width:1.2;"/>
    <path clip-path="url(#p96bc865783)" d="M 450.891531 195.872622 
L 450.891531 189.078922 
" style="fill:none;stroke:#1f77b4;stroke-width:1.2;"/>
    <path clip-path="url(#p96bc865783)" d="M 467.354754 184.62184 
L 467.354754 177.968555 
" style="fill:none;stroke:#1f77b4;stroke-width:1.2;"/>
    <path clip-path="url(#p96bc865783)" d="M 483.817977 170.16737 
L 483.817977 165.461077 
" style="fill:none;stroke:#1f77b4;stroke-width:1.2;"/>
   </g>
   <g id="line2d_65">
    <defs>
     <path d="M 2.5 0 
L -2.5 -0 
" id="m122835cb10" style="stroke:#1f77b4;"/>
    </defs>
    <g clip-path="url(#p96bc865783)">
     <use style="fill:#1f77b4;stroke:#1f77b4;" x="302.722523" xlink:href="#m122835cb10" y="255.330678"/>
     <use style="fill:#1f77b4;stroke:#1f77b4;" x="319.185746" xlink:href="#m122835cb10" y="269.970947"/>
     <use style="fill:#1f77b4;stroke:#1f77b4;" x="335.648969" xlink:href="#m122835cb10" y="271.519488"/>
     <use style="fill:#1f77b4;stroke:#1f77b4;" x="352.112192" xlink:href="#m122835cb10" y="271.719772"/>
     <use style="fill:#1f77b4;stroke:#1f77b4;" x="368.575415" xlink:href="#m122835cb10" y="267.525367"/>
     <use style="fill:#1f77b4;stroke:#1f77b4;" x="385.038638" xlink:href="#m122835cb10" y="248.751795"/>
     <use style="fill:#1f77b4;stroke:#1f77b4;" x="401.501862" xlink:href="#m122835cb10" y="232.910178"/>
     <use style="fill:#1f77b4;stroke:#1f77b4;" x="417.965085" xlink:href="#m122835cb10" y="215.467304"/>
     <use style="fill:#1f77b4;stroke:#1f77b4;" x="434.428308" xlink:href="#m122835cb10" y="208.557952"/>
     <use style="fill:#1f77b4;stroke:#1f77b4;" x="450.891531" xlink:href="#m122835cb10" y="195.872622"/>
     <use style="fill:#1f77b4;stroke:#1f77b4;" x="467.354754" xlink:href="#m122835cb10" y="184.62184"/>
     <use style="fill:#1f77b4;stroke:#1f77b4;" x="483.817977" xlink:href="#m122835cb10" y="170.16737"/>
    </g>
   </g>
   <g id="line2d_66">
    <g clip-path="url(#p96bc865783)">
     <use style="fill:#1f77b4;stroke:#1f77b4;" x="302.722523" xlink:href="#m122835cb10" y="252.310966"/>
     <use style="fill:#1f77b4;stroke:#1f77b4;" x="319.185746" xlink:href="#m122835cb10" y="267.103212"/>
     <use style="fill:#1f77b4;stroke:#1f77b4;" x="335.648969" xlink:href="#m122835cb10" y="268.283639"/>
     <use style="fill:#1f77b4;stroke:#1f77b4;" x="352.112192" xlink:href="#m122835cb10" y="269.142168"/>
     <use style="fill:#1f77b4;stroke:#1f77b4;" x="368.575415" xlink:href="#m122835cb10" y="264.777825"/>
     <use style="fill:#1f77b4;stroke:#1f77b4;" x="385.038638" xlink:href="#m122835cb10" y="244.009728"/>
     <use style="fill:#1f77b4;stroke:#1f77b4;" x="401.501862" xlink:href="#m122835cb10" y="225.673073"/>
     <use style="fill:#1f77b4;stroke:#1f77b4;" x="417.965085" xlink:href="#m122835cb10" y="208.61625"/>
     <use style="fill:#1f77b4;stroke:#1f77b4;" x="434.428308" xlink:href="#m122835cb10" y="201.9753"/>
     <use style="fill:#1f77b4;stroke:#1f77b4;" x="450.891531" xlink:href="#m122835cb10" y="189.078922"/>
     <use style="fill:#1f77b4;stroke:#1f77b4;" x="467.354754" xlink:href="#m122835cb10" y="177.968555"/>
     <use style="fill:#1f77b4;stroke:#1f77b4;" x="483.817977" xlink:href="#m122835cb10" y="165.461077"/>
    </g>
   </g>
   <g id="line2d_67">
    <path clip-path="url(#p96bc865783)" d="M 302.722523 253.820822 
L 319.185746 268.537079 
L 335.648969 269.901563 
L 352.112192 270.43097 
L 368.575415 266.151596 
L 385.038638 246.380761 
L 401.501862 229.291625 
L 417.965085 212.041777 
L 434.428308 205.266626 
L 450.891531 192.475772 
L 467.354754 181.295198 
L 483.817977 167.814223 
" style="fill:none;stroke:#1f77b4;stroke-linecap:square;stroke-width:1.2;"/>
    <defs>
     <path d="M -0 2.828427 
L 2.828427 0 
L 0 -2.828427 
L -2.828427 -0 
z
" id="m54145a1b20" style="stroke:#1f77b4;stroke-linejoin:miter;"/>
    </defs>
    <g clip-path="url(#p96bc865783)">
     <use style="fill:#1f77b4;stroke:#1f77b4;stroke-linejoin:miter;" x="302.722523" xlink:href="#m54145a1b20" y="253.820822"/>
     <use style="fill:#1f77b4;stroke:#1f77b4;stroke-linejoin:miter;" x="319.185746" xlink:href="#m54145a1b20" y="268.537079"/>
     <use style="fill:#1f77b4;stroke:#1f77b4;stroke-linejoin:miter;" x="335.648969" xlink:href="#m54145a1b20" y="269.901563"/>
     <use style="fill:#1f77b4;stroke:#1f77b4;stroke-linejoin:miter;" x="352.112192" xlink:href="#m54145a1b20" y="270.43097"/>
     <use style="fill:#1f77b4;stroke:#1f77b4;stroke-linejoin:miter;" x="368.575415" xlink:href="#m54145a1b20" y="266.151596"/>
     <use style="fill:#1f77b4;stroke:#1f77b4;stroke-linejoin:miter;" x="385.038638" xlink:href="#m54145a1b20" y="246.380761"/>
     <use style="fill:#1f77b4;stroke:#1f77b4;stroke-linejoin:miter;" x="401.501862" xlink:href="#m54145a1b20" y="229.291625"/>
     <use style="fill:#1f77b4;stroke:#1f77b4;stroke-linejoin:miter;" x="417.965085" xlink:href="#m54145a1b20" y="212.041777"/>
     <use style="fill:#1f77b4;stroke:#1f77b4;stroke-linejoin:miter;" x="434.428308" xlink:href="#m54145a1b20" y="205.266626"/>
     <use style="fill:#1f77b4;stroke:#1f77b4;stroke-linejoin:miter;" x="450.891531" xlink:href="#m54145a1b20" y="192.475772"/>
     <use style="fill:#1f77b4;stroke:#1f77b4;stroke-linejoin:miter;" x="467.354754" xlink:href="#m54145a1b20" y="181.295198"/>
     <use style="fill:#1f77b4;stroke:#1f77b4;stroke-linejoin:miter;" x="483.817977" xlink:href="#m54145a1b20" y="167.814223"/>
    </g>
   </g>
   <g id="patch_18">
    <path d="M 293.66775 277.032707 
L 293.66775 160.148142 
" style="fill:none;stroke:#000000;stroke-linecap:square;stroke-linejoin:miter;stroke-width:0.8;"/>
   </g>
   <g id="patch_19">
    <path d="M 492.87275 277.032707 
L 492.87275 160.148142 
" style="fill:none;stroke:#000000;stroke-linecap:square;stroke-linejoin:miter;stroke-width:0.8;"/>
   </g>
   <g id="patch_20">
    <path d="M 293.66775 277.032707 
L 492.87275 277.032707 
" style="fill:none;stroke:#000000;stroke-linecap:square;stroke-linejoin:miter;stroke-width:0.8;"/>
   </g>
   <g id="patch_21">
    <path d="M 293.66775 160.148142 
L 492.87275 160.148142 
" style="fill:none;stroke:#000000;stroke-linecap:square;stroke-linejoin:miter;stroke-width:0.8;"/>
   </g>
  </g>
 </g>
 <defs>
  <clipPath id="p67e9a11f76">
   <rect height="116.884565" width="199.205" x="41.51275" y="1.983577"/>
  </clipPath>
  <clipPath id="pb32e47c5a1">
   <rect height="116.884565" width="199.205" x="293.66775" y="1.983577"/>
  </clipPath>
  <clipPath id="p594a20cf89">
   <rect height="116.884565" width="199.205" x="41.51275" y="160.148142"/>
  </clipPath>
  <clipPath id="p96bc865783">
   <rect height="116.884565" width="199.205" x="293.66775" y="160.148142"/>
  </clipPath>
 </defs>
</svg>
